<svg width="30" height="30" viewBox="0 0 30 30" fill="none" xmlns="http://www.w3.org/2000/svg">
<path d="M13.5 9C13.5 8.17157 14.1716 7.5 15 7.5C15.8284 7.5 16.5 8.17157 16.5 9V21C16.5 21.8284 15.8284 22.5 15 22.5C14.1716 22.5 13.5 21.8284 13.5 21V9Z" fill="#E0A4B6"/>
<path d="M21 13.5C21.8284 13.5 22.5 14.1716 22.5 15C22.5 15.8284 21.8284 16.5 21 16.5L9 16.5C8.17157 16.5 7.5 15.8284 7.5 15C7.5 14.1716 8.17157 13.5 9 13.5L21 13.5Z" fill="#E0A4B6"/>
<rect x="0.5" y="0.5" width="29" height="29" rx="14.5" stroke="#E0A4B6"/>
</svg>
