<svg width="24" height="24" viewBox="0 0 24 24" fill="none" xmlns="http://www.w3.org/2000/svg">
<path d="M22.0792 5.10969L18.8917 1.92219C18.8235 1.8469 18.7407 1.78626 18.6483 1.74394C18.556 1.70162 18.456 1.67851 18.3544 1.67601C18.2528 1.67351 18.1518 1.69167 18.0575 1.72939C17.9631 1.76711 17.8774 1.82361 17.8056 1.89545C17.7338 1.96729 17.6773 2.05298 17.6395 2.14732C17.6018 2.24166 17.5837 2.34267 17.5862 2.44424C17.5887 2.54581 17.6118 2.64581 17.6541 2.73818C17.6964 2.83054 17.7571 2.91335 17.8323 2.98157L21.0198 6.16907C21.1598 6.30694 21.3484 6.38436 21.5448 6.38469C21.744 6.38385 21.9353 6.30668 22.0792 6.16907C22.2195 6.02847 22.2983 5.83798 22.2983 5.63938C22.2983 5.44078 22.2195 5.25029 22.0792 5.10969Z" fill="#4065AE"/>
<path d="M6.16903 1.92215C6.02843 1.78189 5.83794 1.70312 5.63934 1.70313C5.44074 1.70312 5.25025 1.78189 5.10965 1.92215L1.92215 5.10965C1.78189 5.25025 1.70312 5.44074 1.70313 5.63934C1.70312 5.83794 1.78189 6.02843 1.92215 6.16903C2.06612 6.30664 2.25737 6.38381 2.45653 6.38465C2.65302 6.38432 2.84153 6.3069 2.98153 6.16903L6.16903 2.98153C6.30929 2.84093 6.38806 2.65044 6.38806 2.45184C6.38806 2.25324 6.30929 2.06275 6.16903 1.92215Z" fill="#4065AE"/>
<path d="M21 11.7379C20.9922 11.6726 20.9891 11.6068 20.9906 11.541V11.541C20.8776 9.31656 19.9438 7.21303 18.3697 5.6372C16.7956 4.06138 14.6931 3.12522 12.4688 3.00977H11.5312C9.30845 3.12502 7.20721 4.05986 5.63334 5.63373C4.05947 7.2076 3.12463 9.30884 3.00937 11.5316V11.5316C3.01092 11.5974 3.00779 11.6632 3 11.7285V12.2535C3.00779 12.3188 3.01092 12.3846 3.00937 12.4504V12.4504C3.12014 14.6765 4.05299 16.7823 5.6273 18.3601C7.20162 19.9379 9.30539 20.8754 11.5312 20.991H12.4688C14.6915 20.8758 16.7928 19.9409 18.3667 18.3671C19.9405 16.7932 20.8754 14.6919 20.9906 12.4691V12.4691C20.9891 12.4034 20.9922 12.3376 21 12.2723V11.7473V11.7379ZM17.25 12.7504H12C11.8011 12.7504 11.6103 12.6714 11.4697 12.5307C11.329 12.3901 11.25 12.1993 11.25 12.0004V6.75039C11.25 6.55148 11.329 6.36071 11.4697 6.22006C11.6103 6.07941 11.8011 6.00039 12 6.00039C12.1989 6.00039 12.3897 6.07941 12.5303 6.22006C12.671 6.36071 12.75 6.55148 12.75 6.75039V11.2504H17.25C17.4489 11.2504 17.6397 11.3294 17.7803 11.4701C17.921 11.6107 18 11.8015 18 12.0004C18 12.1993 17.921 12.3901 17.7803 12.5307C17.6397 12.6714 17.4489 12.7504 17.25 12.7504Z" fill="#4065AE"/>
</svg>
