<svg width="11" height="10" viewBox="0 0 11 10" fill="none" xmlns="http://www.w3.org/2000/svg">
<path d="M1.21338 1.81802C0.822857 1.4275 0.822857 0.794331 1.21338 0.403806C1.60391 0.0132821 2.23707 0.013282 2.62759 0.403806L10.4058 8.18198C10.7963 8.5725 10.7963 9.20567 10.4058 9.59619C10.0152 9.98672 9.38208 9.98672 8.99156 9.59619L1.21338 1.81802Z" fill="white"/>
<path d="M2.62759 9.59619C2.23707 9.98672 1.60391 9.98672 1.21338 9.59619C0.822857 9.20567 0.822857 8.5725 1.21338 8.18198L8.99156 0.403805C9.38208 0.0132814 10.0152 0.0132811 10.4058 0.403805C10.7963 0.79433 10.7963 1.4275 10.4058 1.81802L2.62759 9.59619Z" fill="white"/>
</svg>
