<svg width="24" height="24" viewBox="0 0 24 24" fill="none" xmlns="http://www.w3.org/2000/svg">
<path d="M0.792969 21.141V6.98718H23.2032V21.141C23.2032 22.4385 22.1417 23.5 20.8443 23.5H3.15194C1.85451 23.5 0.792969 22.4385 0.792969 21.141Z" fill="#CFD8DC"/>
<path d="M23.2032 4.62851V8.16697H0.792969V4.62851C0.792969 3.33107 1.85451 2.26953 3.15194 2.26953H20.8443C22.1417 2.26953 23.2032 3.33107 23.2032 4.62851Z" fill="#E71E5A"/>
<path d="M17.3044 6.39686C18.2815 6.39686 19.0736 5.60475 19.0736 4.62763C19.0736 3.65051 18.2815 2.8584 17.3044 2.8584C16.3273 2.8584 15.5352 3.65051 15.5352 4.62763C15.5352 5.60475 16.3273 6.39686 17.3044 6.39686Z" fill="#B71C1C"/>
<path d="M6.6872 6.39686C7.66432 6.39686 8.45643 5.60475 8.45643 4.62763C8.45643 3.65051 7.66432 2.8584 6.6872 2.8584C5.71008 2.8584 4.91797 3.65051 4.91797 4.62763C4.91797 5.60475 5.71008 6.39686 6.6872 6.39686Z" fill="#B71C1C"/>
<path d="M17.3066 0.5C16.6579 0.5 16.1271 1.03077 16.1271 1.67949V4.62821C16.1271 5.27692 16.6579 5.80769 17.3066 5.80769C17.9553 5.80769 18.4861 5.27692 18.4861 4.62821V1.67949C18.4861 1.03077 17.9553 0.5 17.3066 0.5ZM6.69121 0.5C6.04249 0.5 5.51172 1.03077 5.51172 1.67949V4.62821C5.51172 5.27692 6.04249 5.80769 6.69121 5.80769C7.33992 5.80769 7.87069 5.27692 7.87069 4.62821V1.67949C7.87069 1.03077 7.33992 0.5 6.69121 0.5Z" fill="#B0BEC5"/>
<path d="M5.51172 10.5254H7.87069V12.8844H5.51172V10.5254ZM9.05018 10.5254H11.4092V12.8844H9.05018V10.5254ZM12.5886 10.5254H14.9476V12.8844H12.5886V10.5254ZM16.1271 10.5254H18.4861V12.8844H16.1271V10.5254ZM5.51172 14.0639H7.87069V16.4228H5.51172V14.0639ZM9.05018 14.0639H11.4092V16.4228H9.05018V14.0639ZM12.5886 14.0639H14.9476V16.4228H12.5886V14.0639ZM16.1271 14.0639H18.4861V16.4228H16.1271V14.0639ZM5.51172 17.6023H7.87069V19.9613H5.51172V17.6023ZM9.05018 17.6023H11.4092V19.9613H9.05018V17.6023ZM12.5886 17.6023H14.9476V19.9613H12.5886V17.6023ZM16.1271 17.6023H18.4861V19.9613H16.1271V17.6023Z" fill="#90A4AE"/>
</svg>
