<svg width="14" height="16" viewBox="0 0 14 16" fill="none" xmlns="http://www.w3.org/2000/svg">
<path d="M7.00019 1.9813e-09C7.76799 -2.74248e-05 8.50589 0.284693 9.05871 0.794289C9.61154 1.30389 9.93622 1.99865 9.96447 2.73248L9.96637 2.83733L13.1698 2.83688C13.3841 2.83697 13.5901 2.91627 13.7447 3.05821C13.8992 3.20014 13.9905 3.39373 13.9993 3.5985C14.0081 3.80327 13.9338 4.00337 13.792 4.15699C13.6502 4.31061 13.4517 4.40585 13.2382 4.42281L13.1698 4.42553H12.616L11.8438 14.2162C11.8055 14.7013 11.577 15.1546 11.204 15.4854C10.8311 15.8162 10.3412 16 9.83253 16H4.16784C3.65918 16 3.1693 15.8162 2.79633 15.4854C2.42336 15.1546 2.19483 14.7013 2.15653 14.2162L1.3839 4.42553H0.830531C0.622021 4.42552 0.421145 4.35049 0.267807 4.21535C0.114468 4.08022 0.0198856 3.89487 0.00284733 3.69611L0 3.63121C1.75915e-05 3.43178 0.0784644 3.23967 0.219757 3.09301C0.361051 2.94636 0.554852 2.8559 0.762665 2.8396L0.830531 2.83688H4.03401C4.03401 1.33991 5.24658 0.113475 6.78377 0.00726232L6.89151 0.00181569L7.00019 1.9813e-09ZM8.7799 5.90071C8.63303 5.90065 8.49136 5.95269 8.3823 6.04676C8.27324 6.14084 8.20455 6.27026 8.18951 6.40999L8.18666 6.46809V11.9149L8.18951 11.973C8.20392 12.1132 8.27234 12.2432 8.38147 12.3378C8.49059 12.4324 8.63261 12.4848 8.7799 12.4848C8.92718 12.4848 9.0692 12.4324 9.17832 12.3378C9.28745 12.2432 9.35587 12.1132 9.37028 11.973L9.37313 11.9149V6.46809L9.37028 6.40999C9.35525 6.27026 9.28655 6.14084 9.17749 6.04676C9.06843 5.95269 8.92676 5.90065 8.7799 5.90071ZM5.22048 5.90071C5.07361 5.90065 4.93194 5.95269 4.82288 6.04676C4.71383 6.14084 4.64513 6.27026 4.63009 6.40999L4.62724 6.46809V11.9149L4.63009 11.973C4.6445 12.1132 4.71293 12.2432 4.82205 12.3378C4.93117 12.4324 5.07319 12.4848 5.22048 12.4848C5.36776 12.4848 5.50978 12.4324 5.61891 12.3378C5.72803 12.2432 5.79645 12.1132 5.81087 11.973L5.81371 11.9149V6.46809L5.81087 6.40999C5.79583 6.27026 5.72713 6.14084 5.61807 6.04676C5.50901 5.95269 5.36734 5.90065 5.22048 5.90071ZM7.07992 1.59092L7.00019 1.58865C6.66784 1.58864 6.348 1.70989 6.10592 1.92767C5.86384 2.14545 5.71774 2.44336 5.69744 2.76062L5.69507 2.83733L8.30531 2.83688C8.30532 2.51902 8.17855 2.21313 7.95084 1.9816C7.72313 1.75007 7.41165 1.61034 7.07992 1.59092Z" fill="black"/>
</svg>
