<svg width="16" height="20" viewBox="0 0 16 20" fill="none" xmlns="http://www.w3.org/2000/svg">
<path d="M8.00021 0.5C8.8777 0.499967 9.72101 0.838073 10.3528 1.44322C10.9846 2.04836 11.3557 2.8734 11.388 3.74482L11.3901 3.86933L15.0512 3.86879C15.2961 3.8689 15.5315 3.96307 15.7082 4.13162C15.8848 4.30017 15.9891 4.53005 15.9992 4.77321C16.0093 5.01638 15.9244 5.25401 15.7623 5.43643C15.6002 5.61885 15.3734 5.73195 15.1294 5.75208L15.0512 5.75532H14.4183L13.5358 17.3817C13.492 17.9578 13.2309 18.4961 12.8046 18.8889C12.3784 19.2817 11.8185 19.5 11.2372 19.5H4.76325C4.18192 19.5 3.62206 19.2817 3.1958 18.8889C2.76955 18.4961 2.50838 17.9578 2.46461 17.3817L1.5816 5.75532H0.949178C0.710881 5.7553 0.481309 5.6662 0.306065 5.50573C0.130821 5.34526 0.0227264 5.12515 0.00325409 4.88913L0 4.81206C2.01046e-05 4.57524 0.0896736 4.3471 0.251151 4.17295C0.412629 3.9988 0.634116 3.89138 0.871617 3.87203L0.949178 3.86879H4.61029C4.61029 2.09115 5.99609 0.634752 7.75288 0.508624L7.87601 0.502156L8.00021 0.5ZM10.0342 7.50709C9.86632 7.50702 9.70441 7.56882 9.57977 7.68053C9.45513 7.79225 9.37662 7.94593 9.35944 8.11186L9.35618 8.18085V14.6489L9.35944 14.7179C9.37591 14.8844 9.45411 15.0388 9.57882 15.1512C9.70353 15.2635 9.86584 15.3258 10.0342 15.3258C10.2025 15.3258 10.3648 15.2635 10.4895 15.1512C10.6142 15.0388 10.6924 14.8844 10.7089 14.7179L10.7121 14.6489V8.18085L10.7089 8.11186C10.6917 7.94593 10.6132 7.79225 10.4886 7.68053C10.3639 7.56882 10.202 7.50702 10.0342 7.50709ZM5.96626 7.50709C5.79841 7.50702 5.63651 7.56882 5.51187 7.68053C5.38723 7.79225 5.30872 7.94593 5.29153 8.11186L5.28828 8.18085V14.6489L5.29153 14.7179C5.308 14.8844 5.3862 15.0388 5.51092 15.1512C5.63563 15.2635 5.79794 15.3258 5.96626 15.3258C6.13459 15.3258 6.29689 15.2635 6.42161 15.1512C6.54632 15.0388 6.62452 14.8844 6.64099 14.7179L6.64425 14.6489V8.18085L6.64099 8.11186C6.6238 7.94593 6.54529 7.79225 6.42065 7.68053C6.29601 7.56882 6.13411 7.50702 5.96626 7.50709ZM8.09133 2.38922L8.00021 2.38652C7.62039 2.38651 7.25486 2.53049 6.97819 2.78911C6.70153 3.04772 6.53456 3.40149 6.51136 3.77824L6.50865 3.86933L9.49178 3.86879C9.4918 3.49133 9.34691 3.12809 9.08667 2.85314C8.82644 2.5782 8.47045 2.41228 8.09133 2.38922Z" fill="#5B6373"/>
</svg>
