<svg width="12" height="14" viewBox="0 0 12 14" fill="none" xmlns="http://www.w3.org/2000/svg">
<path d="M1.49977 12.15V12.1498L1.49292 12.1502L1.39092 12.1572L1.39091 12.157L1.38414 12.1579C1.17079 12.1873 0.976537 12.2965 0.840631 12.4636C0.704725 12.6307 0.637299 12.8431 0.651978 13.0579C0.666657 13.2728 0.762346 13.4741 0.91971 13.6211C1.07707 13.7681 1.28438 13.8499 1.49974 13.85H1.49977H10.4998V13.8502L10.5066 13.8498L10.6086 13.8428L10.6086 13.843L10.6154 13.8421C10.8288 13.8127 11.023 13.7035 11.1589 13.5364C11.2948 13.3693 11.3622 13.1569 11.3476 12.9421C11.3329 12.7272 11.2372 12.5259 11.0798 12.3789C10.9225 12.2319 10.7152 12.1501 10.4998 12.15H10.4998H1.49977ZM5.89092 0.157235L5.89091 0.157004L5.88417 0.157929C5.68068 0.185864 5.49418 0.286541 5.35917 0.441341C5.22417 0.596141 5.14978 0.794593 5.14977 0.999996V8.4485L3.0655 6.36331L3.06571 6.36309L3.05985 6.35807L2.97585 6.28607L2.97601 6.28589L2.97042 6.28174C2.79804 6.15361 2.58354 6.0955 2.37005 6.11908C2.15656 6.14266 1.95992 6.24619 1.81965 6.40885C1.67939 6.57152 1.6059 6.78125 1.61397 6.99588C1.62204 7.21052 1.71107 7.41414 1.86316 7.56581L5.39907 11.1007L5.3989 11.1009L5.40418 11.1055L5.48818 11.1785L5.48797 11.1787L5.49436 11.1834C5.65809 11.3044 5.85979 11.3625 6.06278 11.3474C6.26576 11.3322 6.45655 11.2447 6.60047 11.1007C6.60048 11.1007 6.60048 11.1007 6.60049 11.1007L10.1365 7.56572L10.1367 7.56593L10.1417 7.56008L10.2137 7.47608L10.2139 7.47624L10.2181 7.47057C10.3395 7.30688 10.398 7.10502 10.3831 6.90177C10.3681 6.69853 10.2806 6.50743 10.1365 6.3633L10.1367 6.36309L10.1309 6.35807L10.0469 6.28607L10.047 6.28589L10.0413 6.28168C9.87765 6.16028 9.67579 6.10174 9.47254 6.11672C9.2693 6.13169 9.0782 6.2192 8.93408 6.36327L6.84977 8.44665V1H6.85001L6.84954 0.993153L6.84254 0.891153L6.84277 0.891138L6.84184 0.8844C6.81391 0.680906 6.71323 0.49441 6.55843 0.359403C6.40363 0.224395 6.20518 0.150009 5.99978 0.15V0.149765L5.99292 0.150235L5.89092 0.157235Z" fill="#4065AE" stroke="#4065AE" stroke-width="0.2"/>
</svg>
