<svg width="16" height="18" viewBox="0 0 16 18" fill="none" xmlns="http://www.w3.org/2000/svg">
<path d="M15 15.5H1C0.447715 15.5 0 15.9477 0 16.5C0 17.0523 0.447715 17.5 1 17.5H15C15.5523 17.5 16 17.0523 16 16.5C16 15.9477 15.5523 15.5 15 15.5Z" fill="#5B6373"/>
<path d="M0 14.5V16.5C0 17.0523 0.447715 17.5 1 17.5C1.55228 17.5 2 17.0523 2 16.5V14.5C2 13.9477 1.55228 13.5 1 13.5C0.447715 13.5 0 13.9477 0 14.5Z" fill="#5B6373"/>
<path d="M14 14.5V16.5C14 17.0523 14.4477 17.5 15 17.5C15.5523 17.5 16 17.0523 16 16.5V14.5C16 13.9477 15.5523 13.5 15 13.5C14.4477 13.5 14 13.9477 14 14.5Z" fill="#5B6373"/>
<path d="M8.00142 12.5C7.7941 12.5016 7.59142 12.4387 7.42142 12.32L3.42142 9.5C3.20583 9.34707 3.05956 9.115 3.01459 8.85453C2.96961 8.59406 3.02959 8.32638 3.18142 8.11C3.2572 8.00185 3.35366 7.90978 3.46522 7.83911C3.57678 7.76844 3.70124 7.72056 3.8314 7.69825C3.96156 7.67594 4.09486 7.67962 4.22359 7.7091C4.35232 7.73858 4.47393 7.79327 4.58142 7.87L8.00142 10.26L11.4014 7.7C11.6136 7.54087 11.8803 7.47255 12.1428 7.51005C12.4054 7.54756 12.6423 7.68783 12.8014 7.9C12.9605 8.11218 13.0289 8.37887 12.9914 8.64143C12.9539 8.90398 12.8136 9.14087 12.6014 9.3L8.60142 12.3C8.42832 12.4298 8.21779 12.5 8.00142 12.5Z" fill="#5B6373"/>
<path d="M8 10.5C7.73478 10.5 7.48043 10.3946 7.29289 10.2071C7.10536 10.0196 7 9.76522 7 9.5V1.5C7 1.23478 7.10536 0.98043 7.29289 0.792893C7.48043 0.605357 7.73478 0.5 8 0.5C8.26522 0.5 8.51957 0.605357 8.70711 0.792893C8.89464 0.98043 9 1.23478 9 1.5V9.5C9 9.76522 8.89464 10.0196 8.70711 10.2071C8.51957 10.3946 8.26522 10.5 8 10.5Z" fill="#5B6373"/>
</svg>
