<svg width="14" height="18" viewBox="0 0 14 18" fill="none" xmlns="http://www.w3.org/2000/svg">
<path d="M13.1252 16.1948H0.878447C0.646443 16.1948 0.423942 16.2899 0.259891 16.4592C0.0958398 16.6284 0.00367662 16.858 0.00367662 17.0974C0.00367662 17.3368 0.0958398 17.5664 0.259891 17.7356C0.423942 17.9049 0.646443 18 0.878447 18H13.1252C13.3572 18 13.5797 17.9049 13.7438 17.7356C13.9078 17.5664 14 17.3368 14 17.0974C14 16.858 13.9078 16.6284 13.7438 16.4592C13.5797 16.2899 13.3572 16.1948 13.1252 16.1948ZM0.878447 14.3896H0.957176L4.60497 14.0466C5.00456 14.0055 5.37829 13.8238 5.66344 13.5321L13.5364 5.40864C13.8419 5.07554 14.0071 4.63105 13.9956 4.17255C13.9841 3.71405 13.797 3.27894 13.4751 2.96257L11.0783 0.48943C10.7654 0.186241 10.3555 0.012275 9.92648 0.000625288C9.49745 -0.0110245 9.07922 0.140455 8.75138 0.426248L0.878447 8.54971C0.595691 8.84393 0.419634 9.22955 0.379828 9.64186L0.00367662 13.4057C-0.00810745 13.5379 0.00851788 13.6712 0.0523674 13.796C0.0962169 13.9208 0.166211 14.0341 0.25736 14.1278C0.339099 14.2115 0.436037 14.2777 0.542617 14.3226C0.649197 14.3675 0.763321 14.3903 0.878447 14.3896ZM9.86234 1.75308L12.2505 4.2172L10.5009 5.97728L8.15653 3.55829L9.86234 1.75308Z" fill="#5B6373"/>
</svg>
