<svg width="32" height="32" viewBox="0 0 32 32" fill="none" xmlns="http://www.w3.org/2000/svg">
<path d="M8.77577 15C6.67531 15 4.72786 15.161 3.29231 15.4538C1.50975 15.817 1.03416 16.2823 1.03416 16.5002C1.03416 16.7179 1.50975 17.1832 3.29231 17.5463C4.72786 17.8391 6.67531 18.0001 8.77577 18.0001C10.8762 18.0001 12.8237 17.8391 14.2592 17.5463C16.0418 17.1832 16.5174 16.7179 16.5174 16.5002C16.5174 16.2823 16.0418 15.817 14.2592 15.4538C12.8237 15.161 10.8762 15 8.77577 15ZM8.77577 19.0001C6.60616 19.0001 4.58331 18.8316 3.07985 18.5251C1.00881 18.1032 0.00192007 17.4408 0.00192007 16.5002C0.00192007 15.5596 1.00881 14.8973 3.07985 14.4753C4.58331 14.1688 6.60616 14 8.77577 14C10.9454 14 12.9682 14.1688 14.4717 14.4753C16.5427 14.8973 17.5496 15.5596 17.5496 16.5002C17.5496 17.4408 16.5427 18.1032 14.4717 18.5251C12.9682 18.8316 10.9454 19.0001 8.77577 19.0001Z" fill="#E71B5A"/>
<path d="M0.51786 16.9992C0.232826 16.9992 0.00192007 16.7761 0.00192007 16.5002V3.99888C0.00192007 3.72304 0.232826 3.49902 0.51786 3.49902C0.802893 3.49902 1.03411 3.72304 1.03411 3.99888L1.03416 16.5002C1.03416 16.7761 0.802893 16.9992 0.51786 16.9992Z" fill="#E71B5A"/>
<path d="M17.0307 4.99991C16.7457 4.99991 16.5145 4.7762 16.5145 4.50005C16.5145 4.25694 15.9516 3.74556 13.8411 3.3718C13.5607 3.32209 13.3752 3.06139 13.4265 2.79009C13.4775 2.51819 13.746 2.33843 14.0269 2.38814C16.3956 2.80798 17.5467 3.49851 17.5467 4.50005C17.5467 4.7762 17.3158 4.99991 17.0307 4.99991Z" fill="#E71B5A"/>
<path d="M17.0339 17.0003C16.7488 17.0003 16.5174 16.7761 16.5174 16.5002L16.5176 4.50016C16.5176 4.22431 16.7488 4 17.0339 4C17.3189 4 17.5499 4.22431 17.5499 4.50016L17.5496 16.5002C17.5496 16.7761 17.3189 17.0003 17.0339 17.0003Z" fill="#E71B5A"/>
<path d="M13.9348 15.38C13.6497 15.38 13.4188 15.156 13.4188 14.8801V2.87984C13.4188 2.83559 13.3847 2.7977 13.3397 2.79103C12.0393 2.60066 10.4604 2.50002 8.7739 2.50002C6.67187 2.50002 4.72441 2.66098 3.28978 2.9532C1.50753 3.31605 1.03224 3.78196 1.03224 3.99991C1.03224 4.27606 0.801012 4.49976 0.515964 4.49976C0.230916 4.49976 0 4.27606 0 3.99991C0 3.05899 1.00658 2.39635 3.07764 1.9744C4.57985 1.66854 6.60272 1.5 8.7739 1.5C9.98543 1.5 11.7877 1.55244 13.4942 1.80222C14.0487 1.88376 14.4511 2.33664 14.4511 2.87924V14.8801C14.4511 15.156 14.2198 15.38 13.9348 15.38Z" fill="#E71B5A"/>
<path d="M22.7084 5.00003C21.2853 5.00003 20.1279 6.12161 20.1279 7.50024C20.1279 8.87858 21.2853 10.0002 22.7084 10.0002C24.1311 10.0002 25.2888 8.87858 25.2888 7.50024C25.2888 6.12161 24.1311 5.00003 22.7084 5.00003ZM22.7084 11.0002C20.7162 11.0002 19.0957 9.42997 19.0957 7.50024C19.0957 5.57021 20.7162 4 22.7084 4C24.7006 4 26.3211 5.57021 26.3211 7.50024C26.3211 9.42997 24.7006 11.0002 22.7084 11.0002Z" fill="#E71B5A"/>
<path d="M23.7445 13.5H21.68C21.3949 13.5 21.164 13.2763 21.164 13.0002V10.3251C21.164 10.0489 21.3949 9.8252 21.68 9.8252C21.965 9.8252 22.1962 10.0489 22.1962 10.3251V12.5H23.2285V10.3251C23.2285 10.0489 23.4594 9.8252 23.7445 9.8252C24.0295 9.8252 24.2604 10.0489 24.2604 10.3251V13.0002C24.2604 13.2763 24.0295 13.5 23.7445 13.5Z" fill="#E71B5A"/>
<path d="M28.9056 18.0002H29.935V16.5003H28.9056V18.0002ZM30.4512 19.0002H28.3893C28.1046 19.0002 27.873 18.7759 27.873 18.5001V15.9999C27.873 15.724 28.1046 15.5 28.3893 15.5H30.4512C30.7391 15.5 30.9675 15.724 30.9675 15.9999V18.5001C30.9675 18.7759 30.7391 19.0002 30.4512 19.0002Z" fill="#E71B5A"/>
<path d="M28.3879 16.5011C28.2674 16.5011 28.1463 16.4602 28.0484 16.3774C27.9245 16.2722 26.8397 15.2728 26.8397 12.501C26.8397 10.2075 27.7946 8.44938 29.2728 8.02167C29.3691 7.99408 29.4718 7.99408 29.5678 8.02167C31.0459 8.44938 32.0009 10.2075 32.0009 12.501C32.0009 15.2728 30.9161 16.2722 30.7925 16.3774L30.1126 15.6245L30.1057 15.6308C30.1144 15.6229 30.9687 14.8157 30.9687 12.501C30.9687 10.5298 30.2133 9.36544 29.4204 9.0323C28.6272 9.36544 27.8719 10.5298 27.8719 12.501C27.8719 14.8339 28.7196 15.6175 28.728 15.6245C28.9423 15.8066 28.9642 16.1225 28.7765 16.3304C28.6745 16.4432 28.5315 16.5011 28.3879 16.5011Z" fill="#E71B5A"/>
<path d="M19.0961 26.501C16.5347 26.501 14.4512 24.4825 14.4512 22.0011V17.8961C14.4512 17.6199 14.6824 17.3962 14.9671 17.3962C15.2522 17.3962 15.4834 17.6199 15.4834 17.8961V22.0011C15.4834 23.9311 17.1039 25.501 19.0961 25.501C20.8035 25.501 22.1928 24.1554 22.1928 22.5012V13.0011C22.1928 12.725 22.4237 12.501 22.7087 12.501C22.9938 12.501 23.225 12.725 23.225 13.0011V22.5012C23.225 24.7068 21.3727 26.501 19.0961 26.501Z" fill="#E71B5A"/>
<path d="M21.1595 30.5C15.7524 30.5 11.3534 26.2383 11.3534 21V18.3749C11.3534 18.099 11.5846 17.875 11.8697 17.875C12.1547 17.875 12.3856 18.099 12.3856 18.3749V21C12.3856 25.6869 16.3215 29.5 21.1595 29.5C25.4283 29.5 28.9011 26.1356 28.9011 22V18.5001C28.9011 18.2239 29.132 18.0002 29.4171 18.0002C29.7021 18.0002 29.9334 18.2239 29.9334 18.5001V22C29.9334 26.687 25.9975 30.5 21.1595 30.5Z" fill="#E71B5A"/>
<path d="M22.9699 6.00063L23.2281 8.50056C23.2565 8.77671 23.0485 9.02286 22.7634 9.05074C22.4784 9.07803 22.2243 8.87644 22.1958 8.60029C22.1924 8.56755 22.1927 8.53239 22.1958 8.50056L22.454 6.00063C22.468 5.8624 22.5951 5.76176 22.7378 5.7757C22.8626 5.78753 22.958 5.88392 22.9699 6.00063Z" fill="#E71B5A"/>
<path d="M21.3584 6.29588C21.1662 6.18436 20.9292 6.23348 20.8299 6.40491C20.7301 6.57668 20.8049 6.80589 20.9973 6.91715C21.1901 7.02875 21.4263 6.9798 21.5264 6.8082C21.6263 6.63643 21.5515 6.40722 21.3584 6.29588Z" fill="#E71B5A"/>
<path d="M24.4178 8.00827C24.2258 7.8965 23.9889 7.94538 23.8894 8.11707C23.7891 8.28893 23.8644 8.51807 24.0566 8.62959C24.2488 8.74044 24.4857 8.69157 24.5852 8.51988C24.6854 8.34868 24.6102 8.11954 24.4178 8.00827Z" fill="#E71B5A"/>
<path d="M20.9968 8.00854C20.8039 8.11949 20.73 8.34889 20.8289 8.52021C20.929 8.69155 21.1662 8.74089 21.358 8.62951C21.5515 8.51756 21.6254 8.28883 21.5262 8.117C21.4258 7.94557 21.19 7.89609 20.9968 8.00854Z" fill="#E71B5A"/>
<path d="M24.0608 6.29592C23.8687 6.40752 23.7935 6.63669 23.8936 6.80801C23.9929 6.97983 24.2292 7.02827 24.4227 6.91759C24.6141 6.80606 24.6892 6.57689 24.589 6.40532C24.4899 6.23309 24.2528 6.18472 24.0608 6.29592Z" fill="#E71B5A"/>
</svg>
