<svg width="24" height="24" viewBox="0 0 24 24" fill="none" xmlns="http://www.w3.org/2000/svg">
<path d="M13.2783 4.36023C13.2783 5.07069 12.7013 5.64698 12.0005 5.64698C11.2996 5.64698 10.7227 5.07069 10.7227 4.36023V1.78674C10.7227 1.07565 11.2996 0.5 12.0005 0.5C12.7013 0.5 13.2783 1.07565 13.2783 1.78674V4.36023Z" fill="#FFCC4D"/>
<path d="M6.36655 23.4997C6.22344 23.4997 6.07777 23.4665 5.94104 23.3981C5.71427 23.2814 5.54248 23.0802 5.46275 22.8379C5.38303 22.5956 5.40176 22.3317 5.5149 22.1031L11.2267 10.5218C11.3877 10.1946 11.7173 9.98828 12.0783 9.98828C12.4393 9.98828 12.769 10.1946 12.93 10.5218L18.6424 22.1031C18.7557 22.3316 18.7746 22.5955 18.695 22.8378C18.6154 23.0801 18.4437 23.2814 18.2169 23.3981C18.1048 23.4545 17.9827 23.4881 17.8575 23.4969C17.7324 23.5056 17.6068 23.4895 17.488 23.4493C17.3691 23.4091 17.2595 23.3457 17.1654 23.2628C17.0712 23.1799 16.9945 23.0791 16.9397 22.9663L12.079 13.1112L7.21884 22.9663C7.14073 23.1259 7.0195 23.2604 6.86888 23.3547C6.71825 23.449 6.54425 23.4992 6.36655 23.4997Z" fill="#FFAC33"/>
<path d="M12.0743 13.5283C11.9908 13.5283 11.9081 13.5116 11.8311 13.4792C11.7541 13.4468 11.6843 13.3995 11.6258 13.3399L2.74061 4.33202C2.49271 4.08029 2.49271 3.67331 2.74061 3.42223C2.9885 3.17114 3.39037 3.17114 3.63762 3.42223L12.0743 11.9745L20.5097 3.42159C20.5683 3.36199 20.6381 3.31466 20.7152 3.28235C20.7922 3.25004 20.875 3.2334 20.9585 3.2334C21.0421 3.2334 21.1248 3.25004 21.2019 3.28235C21.2789 3.31466 21.3488 3.36199 21.4073 3.42159C21.5264 3.54305 21.5931 3.70638 21.5931 3.87648C21.5931 4.04659 21.5264 4.20992 21.4073 4.33138L12.5234 13.3399C12.4647 13.3994 12.3948 13.4466 12.3177 13.479C12.2406 13.5113 12.1579 13.5281 12.0743 13.5283Z" fill="#58595B"/>
<path d="M22.2306 12.8854C22.2306 18.5703 17.6848 23.1787 12.0759 23.1787C6.46829 23.1787 1.92188 18.5703 1.92188 12.8854C1.92188 7.19921 6.46829 2.59082 12.0759 2.59082C17.6842 2.59018 22.2306 7.19921 22.2306 12.8854Z" fill="#E71E5A"/>
<path d="M19.6917 12.8852C19.6917 17.1492 16.2831 20.6056 12.076 20.6056C7.87011 20.6056 4.46094 17.1492 4.46094 12.8852C4.46094 8.62051 7.87011 5.16406 12.076 5.16406C16.2831 5.16342 19.6917 8.62051 19.6917 12.8852Z" fill="#E6E7E8"/>
<path d="M19.6926 1.30273C19.1911 1.30265 18.6947 1.40263 18.2324 1.59681C17.7701 1.79099 17.3512 2.07547 17.0002 2.43359L22.3855 7.89235C23.1023 7.16504 23.503 6.18414 23.5004 5.16297C23.5004 3.0316 21.7952 1.30273 19.6926 1.30273ZM4.30786 1.30273C4.80928 1.30269 5.30567 1.40268 5.76797 1.59686C6.23027 1.79104 6.64918 2.0755 7.00018 2.43359L1.61489 7.89235C0.898088 7.16504 0.497416 6.18414 0.500013 5.16297C0.500013 3.0316 2.2046 1.30273 4.30786 1.30273Z" fill="#FFCC4D"/>
<path d="M15.1928 13.2779H11.9983C11.8288 13.2779 11.6663 13.2106 11.5465 13.0908C11.4267 12.971 11.3594 12.8084 11.3594 12.639V6.8889C11.3594 6.71945 11.4267 6.55695 11.5465 6.43713C11.6663 6.31731 11.8288 6.25 11.9983 6.25C12.1677 6.25 12.3302 6.31731 12.45 6.43713C12.5699 6.55695 12.6372 6.71945 12.6372 6.8889V12.0001H15.1928C15.3622 12.0001 15.5247 12.0674 15.6445 12.1872C15.7644 12.307 15.8317 12.4696 15.8317 12.639C15.8317 12.8084 15.7644 12.971 15.6445 13.0908C15.5247 13.2106 15.3622 13.2779 15.1928 13.2779Z" fill="#414042"/>
</svg>
