<svg width="24" height="24" viewBox="0 0 24 24" fill="none" xmlns="http://www.w3.org/2000/svg">
<path d="M0.792969 21.141V6.98718H23.2032V21.141C23.2032 22.4385 22.1417 23.5 20.8443 23.5H3.15194C1.85451 23.5 0.792969 22.4385 0.792969 21.141Z" fill="#CFD8DC"/>
<path d="M23.2032 4.62851V8.16697H0.792969V4.62851C0.792969 3.33107 1.85451 2.26953 3.15194 2.26953H20.8443C22.1417 2.26953 23.2032 3.33107 23.2032 4.62851Z" fill="#4065AE"/>
<path d="M17.3044 6.39686C18.2815 6.39686 19.0736 5.60475 19.0736 4.62763C19.0736 3.65051 18.2815 2.8584 17.3044 2.8584C16.3273 2.8584 15.5352 3.65051 15.5352 4.62763C15.5352 5.60475 16.3273 6.39686 17.3044 6.39686Z" fill="#304E8A"/>
<path d="M6.6872 6.39686C7.66432 6.39686 8.45643 5.60475 8.45643 4.62763C8.45643 3.65051 7.66432 2.8584 6.6872 2.8584C5.71008 2.8584 4.91797 3.65051 4.91797 4.62763C4.91797 5.60475 5.71008 6.39686 6.6872 6.39686Z" fill="#304E8A"/>
<path d="M17.3066 0.5C16.6579 0.5 16.1271 1.03077 16.1271 1.67949V4.62821C16.1271 5.27692 16.6579 5.80769 17.3066 5.80769C17.9553 5.80769 18.4861 5.27692 18.4861 4.62821V1.67949C18.4861 1.03077 17.9553 0.5 17.3066 0.5ZM6.69121 0.5C6.04249 0.5 5.51172 1.03077 5.51172 1.67949V4.62821C5.51172 5.27692 6.04249 5.80769 6.69121 5.80769C7.33992 5.80769 7.87069 5.27692 7.87069 4.62821V1.67949C7.87069 1.03077 7.33992 0.5 6.69121 0.5Z" fill="#B0BEC5"/>
<path d="M15.7822 12.3389C15.782 12.3057 15.7728 12.2733 15.7556 12.2451C15.7384 12.2168 15.7138 12.1939 15.6846 12.1788C15.6554 12.1637 15.6227 12.157 15.59 12.1595C15.5573 12.1619 15.5259 12.1734 15.4992 12.1926L14.7408 12.7426C13.9833 11.9782 12.9436 11.5 11.7914 11.5C10.2203 11.5 8.84902 12.3796 8.13194 13.6769L8.13477 13.6785C8.10302 13.7473 8.09789 13.8256 8.12039 13.898C8.14289 13.9705 8.1914 14.0318 8.25636 14.0698L9.21861 14.6316C9.25287 14.6516 9.2907 14.6647 9.32993 14.6699C9.36916 14.6751 9.40903 14.6725 9.44725 14.6621C9.48548 14.6518 9.52131 14.6339 9.5527 14.6096C9.58409 14.5852 9.61043 14.5548 9.6302 14.5201C9.63091 14.5188 9.63126 14.5174 9.63197 14.5161C10.0567 13.7501 10.8665 13.2307 11.795 13.2307C12.3721 13.2307 12.9011 13.4335 13.3224 13.7689L13.204 13.8549L12.5005 14.3647C12.474 14.3841 12.4532 14.4105 12.4405 14.441C12.4277 14.4716 12.4236 14.5051 12.4284 14.5379C12.4333 14.5707 12.4469 14.6015 12.4679 14.6269C12.4889 14.6524 12.5165 14.6715 12.5475 14.6822L15.5571 15.7191C15.584 15.7283 15.6127 15.7308 15.6408 15.7266C15.6689 15.7224 15.6955 15.7114 15.7186 15.6946C15.7417 15.6779 15.7604 15.6558 15.7734 15.6302C15.7863 15.6047 15.793 15.5764 15.793 15.5477L15.7822 12.3389ZM15.3298 16.9303L14.3673 16.3684C14.3331 16.3484 14.2952 16.3353 14.256 16.3301C14.2168 16.3249 14.1769 16.3275 14.1387 16.3379C14.1005 16.3482 14.0646 16.3661 14.0332 16.3904C14.0018 16.4148 13.9755 16.4452 13.9557 16.4799C13.955 16.4812 13.9547 16.4826 13.954 16.4839C13.5293 17.2499 12.7194 17.7693 11.7909 17.7693C11.2139 17.7693 10.6848 17.5665 10.2635 17.2311L10.3819 17.1451L11.0854 16.6353C11.112 16.6159 11.1328 16.5895 11.1455 16.559C11.1582 16.5284 11.1624 16.4949 11.1575 16.4621C11.1527 16.4293 11.139 16.3985 11.118 16.3731C11.097 16.3476 11.0695 16.3285 11.0385 16.3178L8.0288 15.2809C8.00191 15.2717 7.97323 15.2692 7.94515 15.2734C7.91707 15.2776 7.89039 15.2886 7.86734 15.3054C7.84428 15.3221 7.82551 15.3442 7.81257 15.3698C7.79964 15.3953 7.79292 15.4236 7.79297 15.4523L7.80385 18.6611C7.80406 18.6943 7.81327 18.7267 7.83047 18.7549C7.84768 18.7832 7.87222 18.8061 7.90142 18.8212C7.93062 18.8363 7.96336 18.843 7.99606 18.8405C8.02876 18.8381 8.06017 18.8266 8.08687 18.8074L8.84523 18.2574C9.60276 19.0218 10.6425 19.5 11.7947 19.5C13.3658 19.5 14.737 18.6204 15.4541 17.3231L15.4512 17.3216C15.4829 17.2529 15.4881 17.1746 15.4656 17.1021C15.4432 17.0297 15.3947 16.9684 15.3298 16.9303Z" fill="#4065AE"/>
</svg>
