<svg width="24" height="24" viewBox="0 0 24 24" fill="none" xmlns="http://www.w3.org/2000/svg">
<path d="M7.62283 13.875H16.3828C16.5369 13.8645 16.6907 13.899 16.8254 13.9744C16.9602 14.0498 17.07 14.1628 17.1416 14.2996C17.2132 14.4364 17.2434 14.5911 17.2285 14.7448C17.2136 14.8985 17.1543 15.0445 17.0578 15.165L12.6778 19.575C12.5934 19.6708 12.4895 19.7475 12.3731 19.8C12.2567 19.8526 12.1305 19.8797 12.0028 19.8797C11.8751 19.8797 11.7489 19.8526 11.6325 19.8C11.5162 19.7475 11.4123 19.6708 11.3278 19.575L6.94783 15.165C6.85133 15.0445 6.79202 14.8985 6.77714 14.7448C6.76226 14.5911 6.79246 14.4364 6.86404 14.2996C6.93563 14.1628 7.0455 14.0498 7.18025 13.9744C7.315 13.899 7.46879 13.8645 7.62283 13.875ZM17.0578 8.83502L12.6778 4.50002C12.5934 4.40425 12.4895 4.32755 12.3731 4.27502C12.2567 4.22248 12.1305 4.19531 12.0028 4.19531C11.8751 4.19531 11.7489 4.22248 11.6325 4.27502C11.5162 4.32755 11.4123 4.40425 11.3278 4.50002L6.94783 8.83502C6.85133 8.95555 6.79202 9.10158 6.77714 9.25527C6.76226 9.40896 6.79246 9.56365 6.86404 9.70046C6.93563 9.83727 7.0455 9.95027 7.18025 10.0257C7.315 10.1011 7.46879 10.1356 7.62283 10.125H16.3828C16.5369 10.1356 16.6907 10.1011 16.8254 10.0257C16.9602 9.95027 17.07 9.83727 17.1416 9.70046C17.2132 9.56365 17.2434 9.40896 17.2285 9.25527C17.2136 9.10158 17.1543 8.95555 17.0578 8.83502Z" fill="#5B6373"/>
</svg>
