<svg width="26" height="18" viewBox="0 0 26 18" fill="none" xmlns="http://www.w3.org/2000/svg">
<path d="M24.3022 8.4996L24.0833 8.20284C23.9414 8.01041 23.7791 7.80181 23.597 7.58064C22.9558 6.80195 22.1986 6.02302 21.3326 5.29854C18.9089 3.27088 16.1138 2.05189 13 2.05189C9.88624 2.05189 7.0911 3.27088 4.66742 5.29854C3.80144 6.02302 3.04417 6.80195 2.40297 7.58064C2.22085 7.80181 2.0586 8.01041 1.91669 8.20284L1.69785 8.4996L1.91669 8.79636C2.0586 8.98879 2.22085 9.19739 2.40297 9.41855C3.04417 10.1972 3.80144 10.9762 4.66742 11.7007C7.0911 13.7283 9.88624 14.9473 13 14.9473C16.1138 14.9473 18.9089 13.7283 21.3326 11.7007C22.1986 10.9762 22.9558 10.1972 23.597 9.41855C23.7791 9.19739 23.9414 8.98879 24.0833 8.79636L24.3022 8.4996ZM0.535984 8.61081L0.114371 8.87958L0.535984 8.6108C0.488006 8.53554 0.488005 8.46365 0.535984 8.38839C0.674502 8.17111 0.947363 7.78923 1.35485 7.29437C2.02542 6.48001 2.81697 5.66579 3.72842 4.90327C6.37965 2.68525 9.47481 1.35254 13 1.35254C16.5252 1.35254 19.6204 2.68525 22.2716 4.90327C23.183 5.66579 23.9746 6.48001 24.6452 7.29437C25.0526 7.78923 25.3255 8.17111 25.464 8.38839C25.512 8.46365 25.512 8.53554 25.464 8.6108C25.3255 8.82809 25.0526 9.20997 24.6452 9.70483C23.9746 10.5192 23.183 11.3334 22.2716 12.0959C19.6204 14.3139 16.5252 15.6467 13 15.6467C9.47481 15.6467 6.37965 14.3139 3.72842 12.0959C2.81697 11.3334 2.02542 10.5192 1.35485 9.70483C0.947363 9.20997 0.674502 8.82809 0.535984 8.61081Z" fill="#333638" stroke="#333638"/>
<line y1="-1" x2="29.2361" y2="-1" transform="matrix(0.852257 0.523124 -0.516775 0.856121 0 1.85254)" stroke="#333638" stroke-width="2"/>
<path d="M15.75 8.49997C15.75 10.0378 14.5148 11.2773 13 11.2773C11.4852 11.2773 10.25 10.0378 10.25 8.49997C10.25 6.96215 11.4852 5.72266 13 5.72266C14.5148 5.72266 15.75 6.96215 15.75 8.49997Z" fill="#333638" stroke="#333638"/>
</svg>
