<svg width="26" height="24" viewBox="0 0 26 24" fill="none" xmlns="http://www.w3.org/2000/svg">
<path d="M24.5 2H2.5V5.17L9.91 12.59L10.5 13.17V22H14.5V20H16.5V22C16.5 22.5304 16.2893 23.0391 15.9142 23.4142C15.5391 23.7893 15.0304 24 14.5 24H10.5C9.96957 24 9.46086 23.7893 9.08579 23.4142C8.71072 23.0391 8.5 22.5304 8.5 22V14L1.09 6.59C0.902832 6.40394 0.754338 6.18268 0.653078 5.93897C0.551817 5.69526 0.499792 5.43391 0.500001 5.17V2C0.500001 1.46957 0.710714 0.960859 1.08579 0.585786C1.46086 0.210714 1.96957 0 2.5 0H24.5V2Z" fill="#4065AE"/>
<path d="M24.5 17L22.1389 14.6347L24.5 17ZM23.4474 11.4737C23.4474 12.6602 22.976 13.7981 22.1371 14.6371C21.2981 15.476 20.1602 15.9474 18.9737 15.9474C17.7872 15.9474 16.6493 15.476 15.8103 14.6371C14.9713 13.7981 14.5 12.6602 14.5 11.4737C14.5 10.2872 14.9713 9.14929 15.8103 8.31031C16.6493 7.47133 17.7872 7 18.9737 7C20.1602 7 21.2981 7.47133 22.1371 8.31031C22.976 9.14929 23.4474 10.2872 23.4474 11.4737V11.4737Z" stroke="#4065AE" stroke-width="2" stroke-linecap="round"/>
</svg>
