<svg width="36" height="36" viewBox="0 0 36 36" fill="none" xmlns="http://www.w3.org/2000/svg">
<path d="M18 0C13.2261 0 8.64773 1.89642 5.27208 5.27208C1.89642 8.64773 0 13.2261 0 18C0 22.7739 1.89642 27.3523 5.27208 30.7279C8.64773 34.1036 13.2261 36 18 36C22.7739 36 27.3523 34.1036 30.7279 30.7279C34.1036 27.3523 36 22.7739 36 18C36 13.2261 34.1036 8.64773 30.7279 5.27208C27.3523 1.89642 22.7739 0 18 0Z" fill="#29B6F6"/>
<path d="M26.955 9.9L23.5836 27.1134C23.5836 27.1134 23.4387 27.9 22.4631 27.9C21.9447 27.9 21.6774 27.6534 21.6774 27.6534L14.3748 21.5937L10.8018 19.7928L6.2163 18.5733C6.2163 18.5733 5.4 18.3375 5.4 17.6625C5.4 17.1 6.2397 16.8318 6.2397 16.8318L25.4241 9.2106C25.4232 9.2097 26.01 8.9991 26.4375 9C26.7003 9 27 9.1125 27 9.45C27 9.675 26.955 9.9 26.955 9.9Z" fill="white"/>
<path d="M17.1 23.8545L14.0166 26.8911C14.0166 26.8911 13.8825 26.9946 13.7034 26.9991C13.6413 27.0009 13.5747 26.991 13.5063 26.9604L14.3739 21.5919L17.1 23.8545Z" fill="#B0BEC5"/>
<path d="M23.3073 12.7764C23.1552 12.5784 22.8744 12.5424 22.6764 12.6927L10.8 19.8C10.8 19.8 12.6954 25.1028 12.9843 26.0208C13.2741 26.9397 13.5063 26.9604 13.5063 26.9604L14.3739 21.5928L23.2227 13.4064C23.4207 13.2561 23.4576 12.9744 23.3073 12.7764Z" fill="#CFD8DC"/>
</svg>
