<svg width="36" height="36" viewBox="0 0 36 36" fill="none" xmlns="http://www.w3.org/2000/svg">
<path fill-rule="evenodd" clip-rule="evenodd" d="M0.921875 35.107L3.33753 26.3526C1.81656 23.762 1.01134 20.8142 1.01134 17.8663C1.01134 8.48661 8.61619 0.893555 18.0104 0.893555C22.5733 0.893555 26.7784 2.68016 29.9992 5.89604C33.2201 9.11192 35.0095 13.3104 35.0095 17.8663C35.0095 27.2459 27.4046 34.839 18.0104 34.839C15.1474 34.839 12.3739 34.1243 9.86875 32.7844L0.921875 35.107Z" fill="white"/>
<path fill-rule="evenodd" clip-rule="evenodd" d="M0.929716 35.554C0.840247 35.554 0.661309 35.4646 0.57184 35.4646C0.482372 35.3753 0.392903 35.1966 0.482372 35.018L2.80856 26.353C1.37706 23.7624 0.57184 20.8145 0.57184 17.7773C0.57184 8.21898 8.44509 0.447266 18.0183 0.447266C22.6706 0.447266 27.0546 2.23387 30.3649 5.53908C33.6753 8.84429 35.4647 13.2215 35.4647 17.8666C35.4647 27.4249 27.6809 35.286 18.0183 35.286C15.1553 35.286 12.3817 34.5713 9.87659 33.2314L1.01918 35.554H0.929716Z" fill="white"/>
<path fill-rule="evenodd" clip-rule="evenodd" d="M18.0168 0.8933C22.5797 0.8933 26.7847 2.6799 30.0056 5.89578C33.2265 9.11166 35.0158 13.3102 35.0158 17.866C35.0158 27.2457 27.411 34.8387 18.0168 34.8387C15.1538 34.8387 12.3802 34.1241 9.87512 32.7841L0.928239 35.1067L3.3439 26.3524C1.82293 23.7618 1.01771 20.8139 1.01771 17.866C1.01771 8.48635 8.62255 0.8933 18.0168 0.8933ZM18.0168 0C8.17521 0 0.12302 8.0397 0.12302 17.866C0.12302 20.9032 0.83877 23.8511 2.35974 26.4417L0.0335508 34.8387C-0.0559179 35.1067 0.0335506 35.464 0.301957 35.732C0.480895 35.9107 0.659832 36 0.928239 36C1.01771 36 1.10718 36 1.19664 36L9.87512 33.7667C12.3802 35.1067 15.2432 35.732 18.1062 35.732C27.9478 35.732 36 27.6923 36 17.866C36 13.1315 34.1212 8.57568 30.8108 5.27047C27.3215 1.87593 22.8481 0 18.0168 0Z" fill="#8CDB97"/>
<path fill-rule="evenodd" clip-rule="evenodd" d="M28.0394 7.86114C25.3553 5.18123 21.866 3.75195 18.0189 3.75195C10.2351 3.75195 3.88281 10.0944 3.88281 17.8661C3.88281 20.546 4.59856 23.1366 6.03006 25.3698L6.38794 25.9058L4.95644 31.0869L10.3246 29.6577L10.8614 29.9257C13.0086 31.1763 15.5138 31.8909 18.0189 31.8909C25.8027 31.8909 32.1549 25.5485 32.1549 17.7768C32.1549 14.1142 30.7234 10.541 28.0394 7.86114Z" fill="#40C351"/>
<path fill-rule="evenodd" clip-rule="evenodd" d="M13.8094 10.7195C13.4515 10.0049 13.1831 10.0049 12.8252 10.0049C12.5568 10.0049 12.2884 10.0049 12.02 10.0049C11.7516 10.0049 11.3043 10.0942 10.8569 10.5409C10.499 10.9875 9.33594 11.9701 9.33594 14.1141C9.33594 16.258 10.8569 18.2232 11.0358 18.4912C11.2148 18.7592 13.9883 23.2257 18.2828 24.923C21.8616 26.3523 22.5773 26.0843 23.3825 25.995C24.1878 25.9056 25.8877 25.0123 26.2455 23.9404C26.6034 22.9577 26.6034 22.0644 26.5139 21.8858C26.4245 21.7071 26.1561 21.6178 25.7087 21.3498C25.2614 21.0818 23.2036 20.0992 22.8457 20.0098C22.4878 19.8312 22.13 19.8312 21.8616 20.1885C21.5932 20.6352 20.7879 21.5285 20.5195 21.8858C20.2511 22.1538 19.9827 22.2431 19.6248 21.9751C19.1775 21.7964 17.8355 21.3498 16.225 19.8312C14.9725 18.6699 14.0778 17.3299 13.8988 16.8833C13.6304 16.4366 13.8988 16.258 14.0778 15.99C14.2567 15.8113 14.5251 15.454 14.7041 15.2754C14.883 15.0074 14.9725 14.8287 15.1514 14.5607C15.3303 14.2927 15.2409 14.0247 15.1514 13.8461C14.9725 13.6674 14.1673 11.6128 13.8094 10.7195Z" fill="white"/>
</svg>
