<svg width="244" height="290" viewBox="0 0 244 290" fill="none" xmlns="http://www.w3.org/2000/svg">
<path d="M118.572 266.102C118.938 265.833 119.291 265.574 119.617 265.307C120.316 264.731 120.934 264.122 121.694 263.278L122.087 262.829C122.391 262.505 122.663 262.198 122.793 262.025C123.015 261.726 123.236 261.371 123.446 261.043C123.677 260.688 123.896 260.329 124.121 260.007C130.801 248.744 134.13 233.292 137.071 219.645C137.376 218.22 137.67 216.824 137.984 215.454C141.388 199.88 143.842 186.831 143.859 186.708C144.477 183.387 146.764 180.447 149.851 178.97C152.952 177.483 156.391 177.693 158.926 179.504C158.926 179.504 163.374 182.703 171.888 188.776C173.124 189.654 174.443 190.649 175.832 191.698C179.907 194.768 184.51 198.261 188.342 199.696L188.545 199.774C190.64 200.553 192.798 201.366 194.6 201.73L195.239 201.853C195.981 202.009 196.689 202.152 197.335 202.235C198.123 202.336 199.139 202.396 199.975 202.388C202.15 202.368 203.888 202.136 205.989 201.588C207.429 201.205 209.011 200.59 210.938 199.649C211.363 199.402 211.726 199.201 212.066 199.025C212.848 198.592 213.113 198.453 214.164 197.668L214.508 197.414C215.431 196.74 216.382 196.043 217.344 195.018L217.731 194.613C218.405 193.913 218.854 193.427 219.059 193.179C219.266 192.919 219.471 192.657 219.698 192.405C219.812 192.257 219.919 192.096 220.027 191.938C220.381 191.428 220.731 190.932 221.078 190.49C221.246 190.255 221.625 189.578 221.877 189.137L222.274 188.422C222.615 187.824 222.831 187.367 223.174 186.54C223.334 186.146 223.756 185.13 223.929 184.579C224.178 183.789 224.475 182.694 224.794 181.321C225.107 180.064 225.229 178.76 225.244 176.966C225.238 174.637 224.912 172.419 224.275 170.373C224.252 170.287 224.227 170.217 224.202 170.133C223.884 168.985 223.207 167.487 222.408 166.157C221.107 163.964 219.275 161.788 216.293 158.877C215.963 158.558 215.635 158.243 215.286 157.937C215.055 157.716 214.808 157.494 214.551 157.29C214.463 157.197 214.357 157.105 214.239 157.021C213.97 156.788 213.694 156.561 213.402 156.329C213.398 156.322 213.392 156.311 213.37 156.3C212.581 155.664 211.745 155.047 210.886 154.457C210.385 154.115 209.874 153.78 209.353 153.456C208.846 153.129 208.321 152.818 207.794 152.505C207.763 152.49 207.741 152.479 207.719 152.468C207.191 152.17 206.659 151.874 206.111 151.589C206.092 151.577 206.07 151.566 206.052 151.553C205.496 151.262 204.94 150.983 204.354 150.712C203.896 150.49 203.443 150.279 202.964 150.074C202.333 149.783 201.68 149.503 201.009 149.238C200.729 149.125 200.443 149.016 200.154 148.908C199.685 148.719 199.204 148.552 198.716 148.378C198.082 148.15 197.424 147.927 196.76 147.72C196.089 147.502 195.401 147.3 194.702 147.1C194.062 146.916 193.405 146.74 192.737 146.574C192.644 146.546 192.542 146.516 192.441 146.493C191.741 146.323 191.034 146.155 190.324 146.003C189.607 145.844 188.881 145.689 188.141 145.557C187.379 145.414 186.612 145.274 185.826 145.162C185.047 145.03 184.263 144.913 183.463 144.81C183.4 144.801 183.33 144.786 183.259 144.783C182.523 144.684 181.776 144.607 181.03 144.53C180.122 144.433 179.198 144.347 178.258 144.287C177.627 144.23 176.993 144.19 176.357 144.165C176.15 144.151 175.952 144.135 175.737 144.126C174.97 144.088 174.184 144.062 173.399 144.031C173.375 144.037 173.334 144.039 173.282 144.034C172.487 144.013 171.686 144.008 170.877 144.009C170.802 143.998 170.714 144.005 170.622 144.005C169.759 144.005 168.876 144.018 167.998 144.039C167.199 144.058 166.401 144.076 165.601 144.12C163.5 144.208 161.352 144.348 159.151 144.562C158.296 144.643 157.436 144.742 156.562 144.836C155.575 144.94 154.573 145.072 153.553 145.213C152.557 145.348 151.545 145.508 150.531 145.659C149.265 145.851 147.968 146.078 146.667 146.329C145.879 146.478 145.087 146.629 144.29 146.783C143.084 148.861 141.861 150.946 140.628 153.024C139.077 155.691 137.505 158.369 135.921 161.055C127.171 175.929 118.805 190.158 111.595 203.533C109.663 207.128 107.812 210.64 106.054 214.105L104.029 218.072C95.8583 234.108 89.4051 246.768 90.2143 255.688C90.4405 258.199 91.4138 261.006 92.7255 263.005C94.8048 266.167 97.6807 268.363 101.261 269.554C102.264 269.883 103.211 270.08 104.527 270.24C105.34 270.339 106.038 270.372 106.725 270.352C108.524 270.293 110.357 270.013 111.612 269.641C113.089 269.182 114.231 268.723 115.424 268.118C116.122 267.766 116.754 267.411 117.699 266.769C117.989 266.54 118.286 266.317 118.572 266.102V266.102ZM122.107 284.731C119.83 285.884 117.649 286.756 115.024 287.566C111.322 288.702 107.616 289.04 105.166 289.121C103.555 289.182 101.945 289.105 100.229 288.896C97.7659 288.611 95.7483 288.166 93.6818 287.491C86.6101 285.15 80.9641 280.828 76.8925 274.648C74.0955 270.377 72.2069 264.882 71.7217 259.565C70.4002 245.068 78.0416 230.068 87.7245 211.084L89.7262 207.144C89.7672 207.055 89.8126 206.974 89.8609 206.892C91.6231 203.413 93.4757 199.886 95.4165 196.325C101.553 184.91 108.448 173.028 115.694 160.679C117.077 158.311 118.481 155.921 119.899 153.519C117.825 154.233 115.732 154.999 113.618 155.816C112.669 156.173 111.726 156.539 110.781 156.929C109.817 157.306 108.849 157.701 107.887 158.102C106.519 158.676 105.149 159.247 103.772 159.851C102.389 160.446 100.997 161.071 99.6095 161.704C98.9119 162.031 98.2069 162.351 97.505 162.677C96.5355 163.137 95.5561 163.6 94.5702 164.079C92.3668 165.146 90.1299 166.268 87.8845 167.435C87.8874 167.519 87.8945 167.605 87.8946 167.691C87.8881 170.656 87.3436 173.679 86.2809 176.674C81.1061 191.229 63.561 203.122 50.9248 210.078C50.7179 216.602 46.545 223.073 40.0372 225.987C31.7239 229.707 22.7823 226.214 20.0631 218.192C17.3452 210.164 21.8773 200.642 30.1905 196.922C36.1078 194.274 42.3329 195.295 46.4158 198.99C57.6634 192.718 71.2878 183.249 74.6812 173.707C75.2328 172.158 75.5127 170.624 75.5139 169.145C75.5163 167.953 75.3061 166.593 74.9489 165.496C74.07 162.799 71.9968 160.365 69.6678 159.301C60.9492 155.318 44.486 159.441 32.337 163.733C31.7951 168.813 28.9014 173.832 24.1548 176.986C16.4665 182.093 6.85481 180.377 2.68286 173.153C-1.48909 165.93 1.35901 155.935 9.04729 150.828C15.7707 146.361 23.9725 147.118 28.7136 152.218C41.9651 147.417 62.7562 141.808 75.8262 147.779C77.604 148.592 79.256 149.712 80.7427 151.057C81.5951 150.613 82.4478 150.177 83.3004 149.74C84.6885 149.041 86.0794 148.341 87.4712 147.669C88.2898 147.273 89.1016 146.885 89.9091 146.496C90.1115 146.401 90.3178 146.3 90.5191 146.217C91.3599 145.806 92.2016 145.424 93.0391 145.041C93.3402 144.891 93.6445 144.754 93.9547 144.62C94.6163 144.317 95.2779 144.015 95.9427 143.725C96.5766 143.441 97.2105 143.156 97.8421 142.888C102.979 140.637 108.085 138.604 113.15 136.772C114.016 136.459 114.879 136.16 115.742 135.861C115.847 135.816 115.953 135.786 116.062 135.749C116.837 135.483 117.616 135.218 118.384 134.968C119.704 134.516 121.015 134.096 122.33 133.683C123.05 133.454 123.771 133.235 124.485 133.024C124.777 132.931 125.073 132.846 125.356 132.759C126.127 132.532 126.899 132.307 127.662 132.088C127.686 132.083 127.708 132.069 127.73 132.065C128.68 131.798 129.632 131.54 130.583 131.28C131.486 131.03 132.387 130.796 133.292 130.57C134.517 128.433 135.736 126.299 136.95 124.17C158.401 86.4313 176.557 49.3383 169.627 30.7174C169.163 29.4542 168.608 28.2358 168.057 27.3544C167.225 25.9857 166.224 24.8044 164.983 23.7321C163.931 22.8337 162.764 22.0479 161.677 21.522C160.507 20.9508 159.495 20.5738 158.489 20.3334C156.219 19.7829 153.989 19.6417 151.661 19.9154C149.191 20.208 146.97 20.9589 144.248 22.4313C142.328 23.5701 140.714 24.815 139.302 26.2548C138.568 26.9908 137.85 27.8791 136.988 28.9638C122.62 46.9826 121.567 80.638 121.559 80.9683C121.465 84.6652 119.225 88.2124 115.829 90.0319C112.44 91.8432 108.531 91.5844 105.877 89.3528C105.685 89.2063 87.2935 73.8692 65.0574 60.2644C64.5048 59.932 63.91 59.5663 63.3046 59.1824C61.5385 58.0841 59.545 56.8376 57.7524 55.9191C56.21 55.1085 55.0116 54.7075 54.2893 54.513L53.6302 54.3416C53.0234 54.1677 52.4126 54.0002 51.9932 53.9183C51.7081 53.8697 51.3341 53.8333 50.8549 53.7875L50.2336 53.7279C49.5425 53.6606 48.7687 53.5761 48.1834 53.5791C47.4235 53.5719 46.6136 53.6376 45.5338 53.7275C45.0069 53.7783 44.4961 53.8437 44.0267 53.9211C43.0684 54.0818 42.0351 54.332 40.683 54.7542C40.4339 54.8476 40.1888 54.9347 39.9465 55.02L39.6548 55.1128C39.4729 55.1831 39.2676 55.2726 39.0747 55.3504C38.8046 55.454 38.5489 55.5626 38.3194 55.6502C37.8297 55.8385 37.0151 56.2679 36.6308 56.4727L36.0822 56.765C35.9819 56.8172 35.8716 56.8653 35.8466 56.8819L35.7368 56.9441C35.3708 57.1872 34.9905 57.4254 34.6749 57.6098L34.4675 57.762C34.2096 57.9333 33.9535 58.1143 33.6995 58.2722C33.5127 58.4072 33.3042 58.5709 33.1013 58.731C32.8539 58.9205 32.6089 59.0941 32.4087 59.2523C32.2983 59.3401 32.1975 59.4179 32.0943 59.5117L31.6657 59.8722C31.583 59.9415 31.5016 60.0064 31.4822 60.0193C31.2105 60.2863 30.9372 60.5436 30.6439 60.7998L30.2214 61.2174C29.9624 61.4797 29.7064 61.7471 29.4302 62.0063C29.2317 62.2139 29.0372 62.4549 28.8432 62.6703C28.362 63.2388 27.9906 63.6983 27.6773 64.1191C26.7455 65.3619 26.0814 66.3908 25.5106 67.4948C23.8919 70.6038 23.404 72.2368 22.8418 74.9432C22.5047 76.5914 22.3586 78.2714 22.3922 80.2359C22.4032 81.1516 22.5118 82.19 22.7076 83.3328C22.973 84.9016 23.333 86.1625 23.8555 87.4127C24.6769 89.4127 25.6867 91.1612 26.7312 92.4649C27.4245 93.3132 27.9999 93.9441 28.5471 94.4532L28.7509 94.6532C28.9172 94.7951 29.0727 94.9514 29.2491 95.0974L29.6326 95.416C29.6836 95.4578 29.7346 95.4996 29.7856 95.5415C29.8246 95.5625 29.854 95.5934 29.8816 95.6147C30.0925 95.7739 30.3529 95.9723 30.5293 96.1183L30.5404 96.111C33.9746 98.9352 42.0396 101.102 48.5225 102.835C50.6511 103.419 52.6688 103.95 54.5973 104.526C76.9614 111.158 96.9708 114.026 97.2914 114.077C102.257 114.769 105.245 119.498 103.954 124.65C102.672 129.782 97.6085 133.384 92.6388 132.69C91.7717 132.57 71.1882 129.619 47.5003 122.607C45.7711 122.097 43.8644 121.579 41.8407 121.037C33.4954 118.797 24.0419 116.265 17.9591 111.345L17.9036 111.296C17.8847 111.283 17.8742 111.265 17.8553 111.252C17.6306 111.102 17.4353 110.943 17.2199 110.776C17.0279 110.63 16.8365 110.458 16.6262 110.273C16.1746 109.909 15.7489 109.518 15.3321 109.135L15.1507 108.967C14.0375 107.936 12.9813 106.792 11.807 105.336C9.79829 102.841 8.04137 99.826 6.60423 96.3745C5.58241 93.9344 4.8856 91.4659 4.39721 88.6209C4.04347 86.5338 3.85727 84.6239 3.82253 82.7503C3.7749 79.3998 4.04849 76.2866 4.68162 73.2446C5.51678 69.1309 6.58774 65.5385 9.29104 60.3351C10.4238 58.1583 11.7202 56.1252 13.386 53.908C13.9735 53.1319 14.6089 52.3456 15.4078 51.4038C15.9598 50.7522 16.6484 49.9451 17.5023 49.1254L17.7106 48.9148C17.9397 48.687 18.1642 48.4513 18.4098 48.2124C18.636 47.9864 18.8794 47.7634 19.1189 47.5538L19.3235 47.3566C19.9462 46.741 20.5211 46.2617 20.9913 45.8736L21.2424 45.6707C21.6955 45.2796 22.1645 44.8959 22.6031 44.5793L23.0728 44.2168C23.6367 43.7917 24.2738 43.3071 24.988 42.8434L25.2053 42.6883C25.6207 42.3979 26.0449 42.1161 26.4852 41.8488C26.7325 41.699 26.9865 41.541 27.2332 41.3771L27.3414 41.3053C28.1393 40.8004 28.8219 40.4479 29.2818 40.2145L29.559 40.07C30.7496 39.4413 32.0522 38.7742 33.5141 38.2033L33.9799 38.0201C34.3643 37.862 34.7613 37.6992 35.1195 37.5622C35.4163 37.4516 35.6825 37.3613 35.9488 37.271C36.0369 37.2376 36.1394 37.2092 36.2359 37.1703C36.4445 37.0931 36.6447 37.0213 36.8455 36.9637C39.2348 36.1985 41.253 35.6943 43.1953 35.3774C44.1343 35.2296 45.1094 35.1046 46.12 35.021C47.6053 34.896 48.9509 34.7881 50.4776 34.7944C51.8242 34.8012 53.1407 34.9218 54.2472 35.0376L54.7332 35.0753C55.4799 35.1526 56.4128 35.2468 57.4668 35.4444C58.5282 35.6479 59.5194 35.9161 60.3893 36.1603L60.9541 36.3079C63.1536 36.8947 65.426 37.7937 67.6964 38.9681C70.0449 40.1915 72.3309 41.6188 74.3461 42.8761C74.922 43.2291 75.4636 43.5688 75.9757 43.8776C87.2629 50.7804 97.4521 57.9872 105.046 63.6624C107.396 49.9568 112.403 31.645 123.077 18.2621C124.265 16.773 125.444 15.3195 126.919 13.8277C129.711 10.9844 132.957 8.46752 136.571 6.3552C136.661 6.30592 136.741 6.26401 136.83 6.20507C141.927 3.42061 146.659 1.84918 151.713 1.26079C156.147 0.734591 160.553 1.00258 164.785 2.03434C166.932 2.55556 169.038 3.32676 171.247 4.3943C173.557 5.5173 175.865 7.05602 177.934 8.82551C180.421 10.9664 182.535 13.4566 184.22 16.2561C184.316 16.4017 184.405 16.5554 184.494 16.7092C185.698 18.7939 186.572 20.9062 187.113 22.3466C195.915 46.0228 180.969 81.1628 159.307 120.462C158.228 122.387 157.15 124.34 156.05 126.293C157.093 126.174 158.124 126.066 159.155 125.965C159.827 125.893 160.513 125.838 161.181 125.78C161.256 125.77 161.325 125.77 161.389 125.768C162.257 125.689 163.125 125.624 163.986 125.575C165.342 125.485 166.677 125.424 168.002 125.38C168.647 125.348 169.292 125.335 169.934 125.319C170.59 125.305 171.236 125.301 171.885 125.296C196.473 125.158 217.113 132.039 229.995 144.646C232.814 147.414 236.055 150.814 238.618 155.14C238.911 155.62 239.222 156.185 239.552 156.802C239.64 156.956 239.721 157.115 239.798 157.276C239.915 157.498 240.036 157.728 240.148 157.968C240.279 158.241 240.416 158.525 240.542 158.816C240.627 158.983 240.705 159.158 240.781 159.343C240.846 159.501 240.909 159.658 240.978 159.824C241.209 160.356 241.418 160.931 241.62 161.507C241.782 161.973 241.941 162.455 242.08 162.947C242.65 164.804 243.086 166.735 243.377 168.713C243.52 169.692 243.632 170.689 243.699 171.708C243.767 172.723 243.803 173.748 243.805 174.782C243.804 176.852 243.701 180.029 242.824 183.684C242.379 185.537 241.963 187.05 241.565 188.313C241.176 189.545 240.679 190.798 240.198 191.965C239.684 193.193 239.084 194.566 238.092 196.295L237.797 196.841C237.166 197.96 236.308 199.503 235.178 200.954C235.042 201.131 234.932 201.305 234.801 201.478C234.382 202.081 233.831 202.873 233.108 203.714C232.423 204.594 231.545 205.538 230.324 206.825L230.103 207.059C227.723 209.588 225.517 211.215 224.189 212.184L223.914 212.392C221.818 213.936 220.691 214.584 219.318 215.334C219.026 215.492 218.71 215.662 218.315 215.889C218.123 216.002 217.94 216.098 217.742 216.193C214.38 217.864 211.477 218.996 208.576 219.751C204.964 220.691 201.702 221.134 197.918 221.178C196.946 221.175 194.993 221.149 192.91 220.87C191.624 220.715 190.462 220.477 189.53 220.285L188.972 220.169C185.846 219.538 182.932 218.452 180.357 217.481L180.151 217.404C174.14 215.16 168.559 210.942 163.629 207.215C162.378 206.265 161.159 205.351 160.042 204.546C159.681 204.285 159.325 204.035 158.984 203.789C158.134 207.884 157.165 212.523 156.09 217.405C155.799 218.76 155.503 220.128 155.196 221.529C152.06 236.106 148.159 254.221 139.548 268.551C139.437 268.751 139.307 268.938 139.173 269.125C139.015 269.356 138.855 269.61 138.688 269.873C138.301 270.49 137.812 271.252 137.242 272.031C136.431 273.132 135.654 273.998 135.078 274.629L134.785 274.95C133.28 276.624 131.852 278.009 130.284 279.3C129.724 279.772 129.089 280.241 128.465 280.721C128.196 280.925 127.914 281.122 127.651 281.337C127.495 281.452 127.333 281.57 127.167 281.695C125.403 282.917 123.9 283.829 122.107 284.731" fill="url(#paint0_linear_469_362)" fill-opacity="0.17"/>
<defs>
<linearGradient id="paint0_linear_469_362" x1="12.0222" y1="204.82" x2="222.822" y2="83.0723" gradientUnits="userSpaceOnUse">
<stop stop-color="#4065AE"/>
<stop offset="1" stop-color="#E71B5A"/>
</linearGradient>
</defs>
</svg>
