<svg width="415" height="444" viewBox="0 0 415 444" fill="none" xmlns="http://www.w3.org/2000/svg">
<path d="M307.903 49.9194C308.188 50.567 308.461 51.1913 308.693 51.8041C309.187 53.1251 309.547 54.4279 309.914 56.1563L310.095 57.067C310.252 57.7406 310.38 58.3655 310.421 58.7002C310.488 59.2765 310.508 59.9275 310.537 60.5319C310.573 61.1921 310.589 61.8454 310.641 62.4543C310.883 82.8377 303.348 106.26 296.694 126.947C295.996 129.105 295.307 131.217 294.664 133.308C287.136 156.953 280.289 176.455 280.217 176.634C278.466 181.592 279.262 187.336 282.274 191.73C285.298 196.146 290.099 198.54 294.924 198.071C294.924 198.071 303.411 197.219 319.616 195.656C321.964 195.434 324.517 195.119 327.206 194.785C335.088 193.817 344.012 192.689 350.296 193.737L350.629 193.789C354.06 194.37 357.602 194.952 360.315 195.864L361.273 196.195C362.395 196.562 363.46 196.92 364.395 197.312C365.535 197.788 366.953 198.498 368.074 199.159C370.99 200.879 373.153 202.544 375.559 204.917C377.202 206.554 378.856 208.614 380.722 211.382C381.104 212.046 381.436 212.6 381.758 213.101C382.476 214.293 382.724 214.687 383.53 216.563L383.796 217.173C384.516 218.8 385.256 220.48 385.755 222.61L385.963 223.458C386.326 224.926 386.553 225.929 386.637 226.424C386.714 226.936 386.786 227.449 386.896 227.965C386.935 228.253 386.953 228.553 386.975 228.85C387.057 229.813 387.143 230.754 387.266 231.621C387.31 232.067 387.294 233.276 387.29 234.067L387.269 235.339C387.264 236.41 387.199 237.194 387.019 238.576C386.927 239.232 386.706 240.93 386.51 241.808C386.232 243.067 385.78 244.773 385.142 246.873C384.586 248.812 383.736 250.664 382.36 253.095C380.539 256.23 378.375 258.967 375.923 261.23C375.826 261.328 375.738 261.403 375.638 261.496C374.316 262.797 372.238 264.289 370.127 265.46C366.666 267.405 362.503 268.913 356.216 270.518C355.524 270.691 354.836 270.861 354.128 271.001C353.644 271.119 353.138 271.226 352.634 271.303C352.442 271.359 352.228 271.4 352.004 271.421C351.46 271.526 350.91 271.617 350.337 271.703C350.325 271.71 350.309 271.719 350.271 271.717C348.711 271.961 347.105 272.142 345.488 272.27C344.547 272.341 343.597 272.394 342.642 272.426C341.704 272.471 340.754 272.482 339.8 272.496C339.746 272.491 339.708 272.489 339.671 272.487C338.726 272.477 337.779 272.462 336.819 272.42C336.783 272.422 336.746 272.42 336.71 272.423C335.735 272.383 334.768 272.326 333.767 272.235C332.977 272.178 332.202 272.111 331.398 272.015C330.32 271.915 329.221 271.784 328.111 271.619C327.645 271.554 327.175 271.479 326.702 271.4C325.922 271.289 325.143 271.141 324.351 270.996C323.319 270.809 322.258 270.598 321.201 270.36C320.127 270.132 319.041 269.869 317.945 269.595C316.939 269.346 315.915 269.071 314.886 268.775C314.738 268.741 314.578 268.702 314.424 268.654C313.348 268.338 312.263 268.015 311.188 267.668C310.098 267.324 308.998 266.968 307.897 266.57C306.759 266.171 305.616 265.761 304.469 265.301C303.317 264.874 302.168 264.42 301.009 263.937C300.918 263.9 300.812 263.866 300.714 263.815C299.645 263.375 298.578 262.899 297.511 262.422C296.212 261.846 294.9 261.242 293.585 260.592C292.69 260.177 291.804 259.739 290.928 259.278C290.638 259.135 290.359 259.004 290.061 258.847C288.998 258.302 287.918 257.726 286.836 257.156C286.808 257.131 286.754 257.096 286.68 257.061C285.593 256.471 284.509 255.854 283.418 255.224C283.308 255.18 283.196 255.102 283.071 255.03C281.908 254.359 280.728 253.654 279.56 252.943C278.498 252.297 277.436 251.65 276.393 250.968C273.627 249.215 270.84 247.355 268.039 245.353C266.95 244.579 265.868 243.777 264.762 242.97C263.513 242.061 262.265 241.104 260.999 240.121C259.761 239.164 258.521 238.16 257.272 237.168C255.714 235.923 254.143 234.609 252.584 233.258C251.637 232.443 250.687 231.624 249.733 230.796C249.724 227.057 249.697 223.293 249.651 219.533C249.636 214.73 249.6 209.896 249.554 205.044C249.331 178.182 249.125 152.488 249.811 128.846C250.003 122.495 250.241 116.321 250.567 110.281L250.923 103.358C252.385 75.3802 253.536 53.2913 261.568 41.8946C263.826 38.6858 267.323 35.6577 270.647 33.9836C275.91 31.3388 281.497 30.6155 287.251 31.7957C288.859 32.1331 290.288 32.6038 292.187 33.4119C293.36 33.9116 294.327 34.4097 295.238 34.9709C297.617 36.4513 299.87 38.2554 301.272 39.733C302.907 41.5002 304.089 43.0089 305.227 44.7526C305.894 45.7705 306.47 46.74 307.244 48.3411C307.457 48.875 307.684 49.4065 307.903 49.9194V49.9194ZM327.165 27.5545C324.992 24.2294 322.729 21.3558 319.821 18.2221C315.714 13.81 310.981 10.47 307.74 8.45376C305.615 7.11876 303.385 5.97023 300.909 4.91571C297.366 3.38437 294.3 2.4137 290.989 1.71612C279.634 -0.631095 268.658 0.803071 258.361 5.96624C251.266 9.54882 244.444 15.4879 239.652 22.2788C226.591 40.7952 225.222 66.9633 223.504 100.092L223.137 106.962C223.123 107.113 223.122 107.257 223.123 107.406C222.792 113.467 222.545 119.664 222.39 125.975C221.782 146.139 221.832 167.523 221.991 189.811C222.013 194.08 222.047 198.395 222.089 202.736C219.849 200.16 217.624 197.498 215.409 194.752C214.407 193.533 213.422 192.305 212.451 191.044C211.445 189.786 210.446 188.499 209.461 187.211C208.063 185.373 206.661 183.537 205.275 181.65C203.873 179.773 202.483 177.847 201.105 175.913C200.418 174.93 199.717 173.95 199.024 172.964C198.075 171.59 197.115 170.203 196.158 168.791C194.018 165.638 191.875 162.385 189.756 159.064C189.826 158.952 189.902 158.843 189.969 158.726C192.267 154.724 193.885 150.225 194.783 145.36C199.132 121.711 184.732 92.0238 173.109 72.8135C177.905 63.8579 177.315 51.886 170.808 42.8942C162.495 31.4104 147.723 29.1612 137.814 37.8616C127.904 46.5689 126.604 62.934 134.917 74.4178C140.835 82.5914 150.022 86.0591 158.402 84.2545C168.686 101.461 179.686 124.829 176.836 140.334C176.375 142.851 175.558 145.138 174.409 147.133C173.485 148.741 172.143 150.412 170.808 151.613C167.524 154.565 162.835 156.233 158.868 155.855C144.014 154.441 125.026 136.073 111.987 120.833C115.209 113.563 115.213 104.544 111.268 96.5988C104.877 83.7305 90.5825 78.5659 79.3372 85.0584C68.092 91.5509 64.1552 107.241 70.5462 120.109C76.1352 131.363 87.7816 136.725 98.1421 133.537C112.272 150.321 135.938 174.062 158.205 176.182C161.234 176.469 164.333 176.244 167.384 175.587C168.188 176.849 168.998 178.101 169.807 179.353C171.135 181.375 172.465 183.402 173.819 185.391C174.614 186.562 175.407 187.716 176.193 188.869C176.392 189.154 176.592 189.451 176.798 189.72C177.612 190.927 178.45 192.098 179.28 193.267C179.57 193.702 179.873 194.124 180.187 194.546C180.844 195.469 181.501 196.391 182.171 197.3C182.805 198.176 183.438 199.053 184.081 199.906C189.255 206.938 194.557 213.652 199.959 220.063C200.885 221.159 201.815 222.234 202.746 223.309C202.853 223.45 202.971 223.573 203.09 223.707C203.928 224.669 204.772 225.632 205.612 226.568C207.04 228.204 208.481 229.79 209.934 231.37C210.725 232.239 211.527 233.095 212.325 233.936C212.646 234.288 212.979 234.633 213.293 234.971C214.156 235.877 215.022 236.78 215.881 237.669C215.909 237.695 215.928 237.732 215.954 237.753C217.027 238.853 218.111 239.941 219.19 241.032C220.213 242.071 221.245 243.088 222.289 244.097C222.277 247.931 222.261 251.756 222.24 255.572C221.796 323.142 217.412 387.278 193.58 406.991C191.971 408.332 190.276 409.543 188.847 410.303C186.659 411.5 184.391 412.314 181.884 412.794C179.766 413.187 177.581 413.338 175.707 413.202C173.685 413.061 172.027 412.782 170.484 412.324C166.995 411.299 163.879 409.754 160.953 407.574C157.85 405.257 155.44 402.517 152.917 398.414C151.214 395.385 150.007 392.451 149.223 389.41C148.807 387.847 148.53 386.091 148.211 383.958C142.861 348.485 167.63 302.292 167.875 301.84C170.625 296.783 170.365 290.257 167.203 285.162C164.044 280.083 158.572 277.391 153.257 278.334C152.884 278.382 116.155 284.749 75.5904 285.789C74.5868 285.807 73.5003 285.837 72.3855 285.883C69.1498 285.99 65.4922 286.119 62.3608 285.963C59.6505 285.856 57.7229 285.464 56.5978 285.164L55.5758 284.882C54.6225 284.644 53.6686 284.395 53.0394 284.179C52.6172 284.023 52.0847 283.781 51.403 283.47L50.519 283.066C49.5349 282.62 48.4258 282.131 47.6392 281.672C46.6091 281.09 45.5683 280.372 44.1825 279.41C43.5116 278.932 42.8737 278.446 42.3012 277.976C41.1342 277.014 39.9358 275.873 38.4416 274.251C38.1783 273.932 37.9157 273.624 37.6553 273.32L37.3343 272.968C37.1439 272.732 36.9367 272.451 36.737 272.196C36.4536 271.846 36.1934 271.501 35.9521 271.204C35.4384 270.569 34.6742 269.357 34.3155 268.781L33.8034 267.961C33.7088 267.812 33.5974 267.661 33.5767 267.62L33.4769 267.45C33.1727 266.838 32.8453 266.221 32.5634 265.727L32.4022 265.36C32.1879 264.928 31.9834 264.485 31.7638 264.075C31.6169 263.747 31.4633 263.364 31.3142 262.991C31.1282 262.543 30.933 262.118 30.7862 261.749C30.7057 261.545 30.6302 261.361 30.5642 261.155L30.2667 260.335C30.2092 260.177 30.1499 260.026 30.1338 259.994C29.9754 259.422 29.807 258.863 29.6109 258.289L29.3664 257.398C29.2212 256.842 29.0841 256.283 28.9135 255.718C28.8074 255.284 28.7326 254.808 28.6387 254.366C28.4323 253.225 28.2891 252.317 28.1942 251.506C27.905 249.105 27.8103 247.201 27.8997 245.269C28.1365 239.818 28.7495 237.237 30.0973 233.15C30.9254 230.666 32.0356 228.287 33.6094 225.665C34.3368 224.439 35.2913 223.123 36.4444 221.735C38.023 219.827 39.4893 218.407 41.1666 217.128C43.8302 215.071 46.5523 213.499 48.9749 212.554C50.5696 211.95 51.8363 211.547 52.9702 211.286L53.4004 211.175C53.7351 211.113 54.0664 211.024 54.4178 210.964L55.1827 210.833C55.284 210.816 55.3853 210.8 55.4867 210.783C55.5555 210.785 55.6192 210.766 55.6731 210.759C56.0812 210.708 56.5867 210.643 56.9381 210.584L56.9474 210.602C63.7749 209.467 76.3345 212.821 86.423 215.529C89.7468 216.398 92.8801 217.253 95.9281 217.977C131.24 226.436 160.449 238.139 160.92 238.321C168.153 241.25 175.861 237.2 178.13 229.25C180.394 221.333 176.37 212.538 169.131 209.606C167.868 209.093 137.821 197.056 100.429 188.078C97.7012 187.42 94.7274 186.635 91.5778 185.79C78.5832 182.317 63.8678 178.375 51.8393 180.274L51.7258 180.298C51.6905 180.3 51.6621 180.317 51.6268 180.319C51.2071 180.346 50.8203 180.408 50.4 180.466C50.0272 180.514 49.6351 180.597 49.2078 180.683C48.3162 180.821 47.4377 181.018 46.5778 181.21L46.2025 181.295C43.8995 181.819 41.5851 182.54 38.8694 183.588C34.22 185.389 29.505 188.087 24.8819 191.622C21.6056 194.117 18.7453 196.903 15.8732 200.358C13.7723 202.897 12.0351 205.327 10.5305 207.826C7.85916 212.306 5.80559 216.716 4.29219 221.31C2.21724 227.506 0.865788 233.182 0.461608 242.301C0.295043 246.117 0.460851 249.867 0.981409 254.152C1.16962 255.656 1.41443 257.21 1.75861 259.101C1.99588 260.41 2.2961 262.034 2.80956 263.803L2.92663 264.249C3.05808 264.734 3.17737 265.227 3.32265 265.74C3.4518 266.221 3.60639 266.711 3.76624 267.18L3.88857 267.605C4.2491 268.919 4.65122 270.013 4.98318 270.902L5.16387 271.371C5.47039 272.251 5.80411 273.133 6.14908 273.901L6.50022 274.755C6.92972 275.767 7.41158 276.916 8.01377 278.097L8.18598 278.475C8.52007 279.19 8.8727 279.9 9.25833 280.603C9.47507 280.997 9.69465 281.408 9.89977 281.821L9.98967 282.002C10.6726 283.304 11.3186 284.31 11.757 284.982L12.0182 285.393C13.1342 287.167 14.3714 289.08 15.898 290.987L16.3834 291.597C16.7787 292.109 17.1873 292.637 17.5636 293.101C17.8776 293.481 18.1663 293.81 18.455 294.139C18.5479 294.252 18.664 294.37 18.7638 294.498C18.9849 294.764 19.199 295.017 19.4248 295.25C22.0506 298.141 24.3793 300.391 26.7514 302.33C27.9022 303.26 29.1197 304.187 30.417 305.086C32.3223 306.41 34.0525 307.603 36.1155 308.782C37.9364 309.821 39.8051 310.683 41.3871 311.388L42.0716 311.715C43.1384 312.192 44.4694 312.791 46.0442 313.345C47.6335 313.896 49.1785 314.306 50.5413 314.653L51.4176 314.894C54.8396 315.814 58.6028 316.37 62.5775 316.554C66.6957 316.732 70.8882 316.586 74.5834 316.459C75.6346 316.431 76.629 316.395 77.5597 316.377C98.1483 315.853 117.493 314.065 132.146 312.323C124.651 332.629 117.153 361.213 121.13 387.561C121.573 390.494 122.031 393.37 122.859 396.529C124.411 402.535 126.829 408.454 130.057 414.114C130.141 414.251 130.215 414.369 130.289 414.518C134.995 422.238 140.152 428.039 146.508 432.765C152.076 436.924 158.224 439.991 164.734 441.893C168.033 442.861 171.473 443.46 175.281 443.739C179.269 444.022 183.578 443.744 187.745 442.968C192.764 442.017 197.551 440.305 202.002 437.842C202.244 437.72 202.484 437.582 202.723 437.444C205.968 435.57 208.791 433.403 210.64 431.881C240.93 406.81 248.123 347.806 249.498 277.967C249.541 274.532 249.607 271.061 249.643 267.571C250.957 268.544 252.263 269.492 253.574 270.43C254.425 271.05 255.306 271.658 256.162 272.256C256.255 272.328 256.349 272.381 256.433 272.434C257.541 273.215 258.661 273.978 259.784 274.715C261.543 275.891 263.295 277.011 265.047 278.102C265.892 278.647 266.75 279.166 267.605 279.688C268.478 280.217 269.346 280.725 270.217 281.237C303.259 300.555 336.439 307.338 363.617 300.365C369.571 298.826 376.586 296.764 383.408 292.927C384.176 292.508 385.034 291.988 385.959 291.412C386.199 291.274 386.431 291.122 386.661 290.965C386.991 290.757 387.333 290.541 387.67 290.305C388.059 290.038 388.465 289.762 388.862 289.468C389.106 289.309 389.348 289.133 389.593 288.944C389.804 288.78 390.011 288.619 390.235 288.448C390.959 287.91 391.689 287.298 392.41 286.679C392.99 286.177 393.58 285.651 394.15 285.095C396.363 283.035 398.454 280.771 400.384 278.331C401.34 277.122 402.266 275.865 403.149 274.543C404.031 273.228 404.877 271.874 405.684 270.482C407.293 267.69 409.626 263.328 411.287 257.717C412.13 254.872 412.747 252.51 413.193 250.496C413.627 248.532 413.932 246.457 414.192 244.51C414.455 242.453 414.713 240.136 414.722 237.032L414.749 236.067C414.769 234.067 414.813 231.319 414.418 228.484C414.372 228.14 414.359 227.819 414.318 227.485C414.222 226.346 414.095 224.849 413.774 223.153C413.536 221.433 413.087 219.477 412.442 216.792L412.325 216.304C411.085 211.043 409.378 207.133 408.341 204.793L408.132 204.299C406.507 200.585 405.493 198.837 404.225 196.756C403.954 196.316 403.66 195.84 403.304 195.228C403.133 194.926 402.962 194.655 402.769 194.372C399.536 189.503 396.503 185.719 393.18 182.443C389.041 178.365 384.988 175.23 379.921 172.226C378.608 171.473 375.955 169.989 372.93 168.744C371.075 167.952 369.324 167.369 367.918 166.903L367.075 166.625C362.369 165.043 357.596 164.24 353.368 163.546L353.032 163.489C343.181 161.838 332.374 163.181 322.828 164.369C320.402 164.677 318.048 164.961 315.916 165.177C315.225 165.248 314.551 165.309 313.899 165.374C315.939 159.192 318.243 152.184 320.593 144.766C321.254 142.713 321.92 140.638 322.596 138.51C329.711 116.417 338.546 88.9599 338.088 62.939C338.094 62.5832 338.065 62.2299 338.029 61.8743C337.996 61.4397 337.978 60.9724 337.957 60.4889C337.916 59.3544 337.849 57.9479 337.686 56.4536C337.45 54.3387 337.076 52.5662 336.791 51.2677L336.645 50.6056C335.92 47.1791 335.071 44.1995 333.962 41.2396C333.575 40.167 333.084 39.0414 332.615 37.9087C332.411 37.4236 332.186 36.9386 331.998 36.4442C331.876 36.168 331.75 35.8825 331.623 35.5854C330.196 32.5641 328.879 30.1654 327.165 27.5545" fill="url(#paint0_linear_469_363)" fill-opacity="0.17"/>
<defs>
<linearGradient id="paint0_linear_469_363" x1="116.569" y1="49.6326" x2="306.034" y2="377.797" gradientUnits="userSpaceOnUse">
<stop stop-color="#4065AE"/>
<stop offset="1" stop-color="#E71B5A"/>
</linearGradient>
</defs>
</svg>
