<svg width="90" height="90" viewBox="0 0 90 90" fill="none" xmlns="http://www.w3.org/2000/svg">
<mask id="path-1-outside-1_1692_6859" maskUnits="userSpaceOnUse" x="1.5332" y="3.00015" width="87" height="84" fill="black">
<rect fill="white" x="1.5332" y="3.00015" width="87" height="84"/>
<path d="M43.0186 20.3124H19.8492C19.668 20.2914 19.4843 20.3085 19.3103 20.3625C19.1363 20.4165 18.9758 20.5062 18.8395 20.6258C18.7032 20.7453 18.5941 20.892 18.5194 21.0561C18.4447 21.2202 18.4061 21.3981 18.4061 21.578C18.4061 21.7579 18.4447 21.9358 18.5194 22.0999C18.5941 22.2641 18.7032 22.4107 18.8395 22.5303C18.9758 22.6498 19.1363 22.7396 19.3103 22.7936C19.4843 22.8476 19.668 22.8646 19.8492 22.8436H43.0186C43.333 22.8071 43.6228 22.6581 43.8331 22.4248C44.0435 22.1915 44.1597 21.8902 44.1597 21.578C44.1597 21.2658 44.0435 20.9645 43.8331 20.7312C43.6228 20.4979 43.333 20.3489 43.0186 20.3124Z"/>
<path d="M38.594 30.908H22.009C21.6694 30.908 21.3434 31.0399 21.1016 31.2751C20.8597 31.5103 20.7216 31.83 20.717 32.1649C20.717 32.5029 20.8531 32.827 21.0954 33.066C21.3377 33.3049 21.6663 33.4392 22.009 33.4392H38.594C38.9367 33.4392 39.2655 33.3049 39.5078 33.066C39.7501 32.827 39.8862 32.5029 39.8862 32.1649C39.8816 31.83 39.7433 31.5103 39.5015 31.2751C39.2597 31.0399 38.9337 30.908 38.594 30.908Z"/>
<path d="M15.7197 30.908H13.2063C12.8667 30.908 12.5406 31.0399 12.2988 31.2751C12.057 31.5103 11.9188 31.83 11.9141 32.1649C11.9141 32.5029 12.0502 32.827 12.2926 33.066C12.5349 33.3049 12.8636 33.4392 13.2063 33.4392H15.7197C16.0593 33.4346 16.3835 33.2983 16.622 33.0599C16.8605 32.8214 16.9941 32.4999 16.994 32.1649C16.994 31.8316 16.8598 31.5119 16.6208 31.2762C16.3818 31.0405 16.0577 30.908 15.7197 30.908Z"/>
<path d="M30.8763 44.0366C31.219 44.0366 31.5476 43.9024 31.7899 43.6634C32.0322 43.4244 32.1683 43.1003 32.1683 42.7623C32.1683 42.4244 32.0322 42.1003 31.7899 41.8613C31.5476 41.6223 31.219 41.488 30.8763 41.488H22.0262C21.6835 41.488 21.3549 41.6223 21.1126 41.8613C20.8702 42.1003 20.7341 42.4244 20.7341 42.7623C20.7341 43.1003 20.8702 43.4244 21.1126 43.6634C21.3549 43.9024 21.6835 44.0366 22.0262 44.0366H30.8763Z"/>
<path d="M13.2063 44.0366H15.7197C16.0624 44.0366 16.391 43.9024 16.6333 43.6634C16.8756 43.4244 17.0118 43.1003 17.0118 42.7623C17.0118 42.4244 16.8756 42.1003 16.6333 41.8613C16.391 41.6223 16.0624 41.488 15.7197 41.488H13.2063C12.8636 41.488 12.5349 41.6223 12.2926 41.8613C12.0502 42.1003 11.9141 42.4244 11.9141 42.7623C11.9141 43.1003 12.0502 43.4244 12.2926 43.6634C12.5349 43.9024 12.8636 44.0366 13.2063 44.0366Z"/>
<path d="M11.9141 53.3581C11.9141 53.696 12.0502 54.0202 12.2926 54.2592C12.5349 54.4981 12.8636 54.6324 13.2063 54.6324H24.3928C24.7355 54.6324 25.0641 54.4981 25.3064 54.2592C25.5487 54.0202 25.6849 53.696 25.6849 53.3581C25.6849 53.0201 25.5487 52.696 25.3064 52.457C25.0641 52.218 24.7355 52.0838 24.3928 52.0838H13.2063C12.8636 52.0838 12.5349 52.218 12.2926 52.457C12.0502 52.696 11.9141 53.0201 11.9141 53.3581Z"/>
<path d="M38.5937 52.0838H30.6818C30.3391 52.0838 30.0104 52.218 29.7681 52.457C29.5258 52.696 29.3896 53.0201 29.3896 53.3581C29.3896 53.696 29.5258 54.0202 29.7681 54.2592C30.0104 54.4981 30.3391 54.6324 30.6818 54.6324H38.5937C38.9364 54.6324 39.2651 54.4981 39.5074 54.2592C39.7497 54.0202 39.8858 53.696 39.8858 53.3581C39.8858 53.0201 39.7497 52.696 39.5074 52.457C39.2651 52.218 38.9364 52.0838 38.5937 52.0838Z"/>
<path d="M38.594 62.7489H22.009C21.6663 62.7489 21.3377 62.8832 21.0954 63.1222C20.8531 63.3611 20.717 63.6853 20.717 64.0232C20.717 64.3612 20.8531 64.6853 21.0954 64.9243C21.3377 65.1633 21.6663 65.2975 22.009 65.2975H38.594C38.9367 65.2975 39.2655 65.1633 39.5078 64.9243C39.7501 64.6853 39.8862 64.3612 39.8862 64.0232C39.8862 63.6853 39.7501 63.3611 39.5078 63.1222C39.2655 62.8832 38.9367 62.7489 38.594 62.7489Z"/>
<path d="M13.2063 62.7489C12.8636 62.7489 12.5349 62.8832 12.2926 63.1222C12.0502 63.3611 11.9141 63.6853 11.9141 64.0232C11.9141 64.3612 12.0502 64.6853 12.2926 64.9243C12.5349 65.1633 12.8636 65.2975 13.2063 65.2975H15.7197C16.0624 65.2975 16.391 65.1633 16.6333 64.9243C16.8756 64.6853 17.0118 64.3612 17.0118 64.0232C17.0118 63.6853 16.8756 63.3611 16.6333 63.1222C16.391 62.8832 16.0624 62.7489 15.7197 62.7489H13.2063Z"/>
<path d="M38.5894 83.4701H18.8892V75.8242C18.8845 74.1745 18.2167 72.5939 17.0322 71.4289C15.8477 70.264 14.2431 69.6098 12.5702 69.6098H5.0654V13.8721C5.06539 12.8937 5.45837 11.955 6.15826 11.2615C6.85815 10.568 7.80807 10.1761 8.80021 10.1714H13.8093V12.3884C13.8092 12.7233 13.9429 13.0448 14.1814 13.2833C14.4199 13.5218 14.7441 13.6581 15.0837 13.6627C15.4264 13.6627 15.755 13.5284 15.9974 13.2894C16.2397 13.0504 16.3758 12.7263 16.3758 12.3884V10.1714H24.6949V12.3884C24.6736 12.567 24.6908 12.7482 24.7455 12.9198C24.8003 13.0914 24.8914 13.2496 25.0126 13.384C25.1338 13.5185 25.2825 13.6261 25.449 13.6998C25.6154 13.7735 25.7957 13.8115 25.9781 13.8115C26.1605 13.8115 26.3409 13.7735 26.5074 13.6998C26.6738 13.6261 26.8225 13.5185 26.9437 13.384C27.0649 13.2496 27.1559 13.0914 27.2106 12.9198C27.2654 12.7482 27.2827 12.567 27.2614 12.3884V10.1714H35.6335V12.3884C35.6122 12.567 35.6296 12.7482 35.6843 12.9198C35.7391 13.0914 35.83 13.2496 35.9513 13.384C36.0725 13.5185 36.2212 13.6261 36.3876 13.6998C36.554 13.7735 36.7343 13.8115 36.9168 13.8115C37.0992 13.8115 37.2796 13.7735 37.446 13.6998C37.6124 13.6261 37.7611 13.5185 37.8824 13.384C38.0036 13.2496 38.0946 13.0914 38.1493 12.9198C38.2041 12.7482 38.2214 12.567 38.2001 12.3884V10.1714H46.5192V12.3884C46.5192 12.7263 46.6553 13.0504 46.8976 13.2894C47.1399 13.5284 47.4685 13.6627 47.8112 13.6627C48.1539 13.6627 48.4826 13.5284 48.7249 13.2894C48.9672 13.0504 49.1033 12.7263 49.1033 12.3884V10.1714H54.0948C55.0869 10.1761 56.0368 10.568 56.7367 11.2615C57.4366 11.955 57.8295 12.8937 57.8295 13.8721V24.5553C57.8295 24.8933 57.9656 25.2174 58.2079 25.4564C58.4502 25.6954 58.779 25.8297 59.1216 25.8297C59.4613 25.8251 59.7853 25.6888 60.0238 25.4503C60.2623 25.2118 60.396 24.8903 60.396 24.5553V13.8721C60.396 12.2224 59.7328 10.6399 58.5516 9.47171C57.3703 8.3035 55.7676 7.64489 54.0948 7.64026H49.1033V5.42334C49.1033 5.08538 48.9672 4.76125 48.7249 4.52227C48.4826 4.28329 48.1539 4.14902 47.8112 4.14902C47.4685 4.14902 47.1399 4.28329 46.8976 4.52227C46.6553 4.76125 46.5192 5.08538 46.5192 5.42334V7.64026H38.2001V5.42334C38.2214 5.24467 38.2041 5.06357 38.1493 4.89195C38.0946 4.72034 38.0036 4.5621 37.8824 4.42766C37.7611 4.29322 37.6124 4.1856 37.446 4.11192C37.2796 4.03823 37.0992 4.00015 36.9168 4.00015C36.7343 4.00015 36.554 4.03823 36.3876 4.11192C36.2212 4.1856 36.0725 4.29322 35.9513 4.42766C35.83 4.5621 35.7391 4.72034 35.6843 4.89195C35.6296 5.06357 35.6122 5.24467 35.6335 5.42334V7.64026H27.3145V5.42334C27.3358 5.24467 27.3186 5.06357 27.2638 4.89195C27.209 4.72034 27.118 4.5621 26.9967 4.42766C26.8755 4.29322 26.7268 4.1856 26.5604 4.11192C26.394 4.03823 26.2137 4.00015 26.0312 4.00015C25.8488 4.00015 25.6684 4.03823 25.502 4.11192C25.3356 4.1856 25.1869 4.29322 25.0657 4.42766C24.9444 4.5621 24.8535 4.72034 24.7987 4.89195C24.7439 5.06357 24.7266 5.24467 24.7479 5.42334V7.64026H16.429V5.42334C16.429 5.256 16.3955 5.0903 16.3305 4.93569C16.2656 4.78109 16.1705 4.6406 16.0505 4.52227C15.9305 4.40394 15.788 4.31007 15.6312 4.24603C15.4745 4.18199 15.3065 4.14902 15.1368 4.14902C14.7972 4.15361 14.4731 4.28989 14.2346 4.52837C13.9961 4.76686 13.8624 5.08838 13.8624 5.42334V7.64026H8.85325C7.18043 7.64489 5.57777 8.3035 4.39657 9.47171C3.21536 10.6399 2.552 12.2224 2.55201 13.8721V70.8667C2.52693 70.9758 2.52693 71.0892 2.55201 71.1983C2.54434 71.2387 2.54434 71.2802 2.55201 71.3205C2.61188 71.4511 2.69594 71.5695 2.79984 71.6697L16.6059 85.5124C16.7237 85.6367 16.8691 85.7323 17.0307 85.7917C17.1863 85.8615 17.3554 85.8972 17.5264 85.8965H38.5187C38.6998 85.9175 38.8834 85.9004 39.0574 85.8464C39.2314 85.7924 39.3919 85.7027 39.5282 85.5831C39.6646 85.4636 39.7737 85.3169 39.8484 85.1528C39.9232 84.9887 39.9618 84.8108 39.9618 84.6309C39.9618 84.451 39.9232 84.2731 39.8484 84.109C39.7737 83.9449 39.6646 83.7982 39.5282 83.6786C39.3919 83.5591 39.2314 83.4694 39.0574 83.4154C38.8834 83.3614 38.6998 83.3443 38.5187 83.3653L38.5894 83.4701ZM16.305 81.6372L6.85313 72.141H12.6234C13.6125 72.1456 14.5597 72.5351 15.2591 73.2249C15.9585 73.9146 16.3534 74.8488 16.3581 75.8242L16.305 81.6372Z"/>
<path d="M38.5919 73.223H24.3256C23.983 73.223 23.6543 73.3573 23.412 73.5963C23.1697 73.8352 23.0336 74.1594 23.0336 74.4973C23.0336 74.8353 23.1697 75.1594 23.412 75.3984C23.6543 75.6374 23.983 75.7717 24.3256 75.7717H38.5919C38.9346 75.7717 39.2634 75.6374 39.5057 75.3984C39.748 75.1594 39.8841 74.8353 39.8841 74.4973C39.8841 74.1594 39.748 73.8352 39.5057 73.5963C39.2634 73.3573 38.9346 73.223 38.5919 73.223Z"/>
<path d="M77.838 30.908H54.2082C51.6606 30.9127 49.2187 31.9128 47.4173 33.6894C45.6159 35.466 44.6018 37.8743 44.5971 40.3868V76.5037C44.5971 79.0192 45.6091 81.4319 47.411 83.2123C49.213 84.9927 51.6576 85.9952 54.2082 85.9999H77.838C80.3903 85.9953 82.8366 84.9933 84.6413 83.2134C86.4461 81.4335 87.4622 79.0208 87.4668 76.5037V40.3868C87.4622 37.8713 86.4455 35.4604 84.6403 33.6833C82.835 31.9061 80.3886 30.908 77.838 30.908ZM84.918 76.5037C84.918 78.3556 84.1721 80.1316 82.8443 81.441C81.5166 82.7505 79.7157 83.4862 77.838 83.4862H54.2082C52.3305 83.4862 50.5296 82.7505 49.2019 81.441C47.8741 80.1316 47.1282 78.3556 47.1282 76.5037V40.3868C47.1282 38.5349 47.8741 36.7589 49.2019 35.4494C50.5296 34.1399 52.3305 33.4043 54.2082 33.4043H77.838C79.7157 33.4043 81.5166 34.1399 82.8443 35.4494C84.1721 36.7589 84.918 38.5349 84.918 40.3868V76.5037Z"/>
<path d="M66.0246 36.1823C65.855 36.1823 65.6869 36.2153 65.5302 36.2793C65.3734 36.3434 65.231 36.4372 65.111 36.5555C64.991 36.6739 64.8958 36.8143 64.8309 36.9689C64.7659 37.1236 64.7326 37.2893 64.7326 37.4566V79.4563C64.7372 79.7912 64.8754 80.1109 65.1172 80.3461C65.359 80.5813 65.685 80.7131 66.0246 80.7131C66.3626 80.7131 66.6869 80.5807 66.9258 80.345C67.1648 80.1093 67.2991 79.7896 67.2991 79.4563V37.4566C67.2991 37.1216 67.1654 36.8001 66.9269 36.5617C66.6884 36.3232 66.3643 36.1869 66.0246 36.1823Z"/>
<path d="M56.1849 38.7135C55.1977 38.7135 54.2327 39.0023 53.4118 39.5432C52.591 40.0841 51.9512 40.8529 51.5734 41.7524C51.1956 42.6519 51.0968 43.6417 51.2894 44.5966C51.482 45.5515 51.9574 46.4286 52.6555 47.117C53.3535 47.8055 54.243 48.2743 55.2112 48.4643C56.1795 48.6542 57.183 48.5567 58.095 48.1841C59.0071 47.8115 59.7868 47.1806 60.3352 46.3711C60.8837 45.5616 61.1764 44.6098 61.1764 43.6362C61.1764 42.3306 60.6505 41.0785 59.7145 40.1554C58.7784 39.2322 57.5087 38.7135 56.1849 38.7135ZM56.1849 46.0277C55.7046 46.0312 55.2341 45.8938 54.833 45.6332C54.4319 45.3725 54.1182 45.0002 53.932 44.5635C53.7457 44.1269 53.6952 43.6455 53.7868 43.1804C53.8784 42.7154 54.1079 42.2876 54.4463 41.9514C54.7848 41.6152 55.2168 41.3857 55.6876 41.292C56.1585 41.1983 56.647 41.2446 57.0911 41.4251C57.5352 41.6056 57.915 41.9121 58.1822 42.3058C58.4495 42.6994 58.5921 43.1625 58.5921 43.6362C58.5921 44.2675 58.3391 44.8731 57.8882 45.3211C57.4372 45.7691 56.825 46.0231 56.1849 46.0277Z"/>
<path d="M56.1849 53.5311C55.1977 53.5311 54.2327 53.8198 53.4118 54.3607C52.591 54.9016 51.9512 55.6705 51.5734 56.57C51.1956 57.4695 51.0968 58.4592 51.2894 59.4141C51.482 60.369 51.9574 61.2462 52.6555 61.9346C53.3535 62.6231 54.243 63.0919 55.2112 63.2818C56.1795 63.4718 57.183 63.3743 58.095 63.0017C59.0071 62.6291 59.7868 61.9982 60.3352 61.1887C60.8837 60.3791 61.1764 59.4274 61.1764 58.4538C61.1764 57.1482 60.6505 55.8961 59.7145 54.9729C58.7784 54.0498 57.5087 53.5311 56.1849 53.5311ZM56.1849 60.8278C55.7038 60.8313 55.2326 60.6935 54.8312 60.4321C54.4297 60.1706 54.1161 59.7973 53.9304 59.3596C53.7447 58.9219 53.6951 58.4396 53.7881 57.9741C53.8811 57.5086 54.1124 57.0808 54.4526 56.7453C54.7928 56.4098 55.2265 56.1817 55.6986 56.09C56.1706 55.9983 56.6596 56.0471 57.1034 56.2303C57.5472 56.4134 57.9258 56.7227 58.1909 57.1186C58.456 57.5146 58.5956 57.9793 58.5921 58.4538C58.5921 58.7655 58.5299 59.0743 58.4089 59.3623C58.2879 59.6503 58.1106 59.912 57.8871 60.1325C57.6636 60.3529 57.3982 60.5278 57.1061 60.6471C56.8141 60.7664 56.501 60.8278 56.1849 60.8278Z"/>
<path d="M56.1849 68.3365C55.1977 68.3365 54.2327 68.6253 53.4118 69.1662C52.591 69.7071 51.9512 70.4759 51.5734 71.3754C51.1956 72.2749 51.0968 73.2647 51.2894 74.2196C51.482 75.1745 51.9574 76.0516 52.6555 76.74C53.3535 77.4285 54.243 77.8973 55.2112 78.0873C56.1795 78.2772 57.183 78.1797 58.095 77.8071C59.0071 77.4346 59.7868 76.8036 60.3352 75.9941C60.8837 75.1845 61.1764 74.2328 61.1764 73.2592C61.1764 71.9536 60.6505 70.7015 59.7145 69.7784C58.7784 68.8552 57.5087 68.3365 56.1849 68.3365ZM56.1849 75.6507C55.7084 75.6438 55.2446 75.4986 54.8512 75.2332C54.4579 74.9677 54.1526 74.5939 53.9735 74.1584C53.7943 73.7228 53.7494 73.2449 53.8441 72.7843C53.9388 72.3237 54.169 71.9007 54.506 71.5684C54.843 71.2361 55.2717 71.009 55.7387 70.9156C56.2058 70.8223 56.6904 70.8667 57.132 71.0433C57.5737 71.22 57.9528 71.5211 58.2219 71.909C58.491 72.2969 58.6383 72.7543 58.6453 73.2243C58.65 73.5442 58.5896 73.8619 58.4677 74.1584C58.3457 74.4549 58.1647 74.7243 57.9353 74.9505C57.7058 75.1768 57.4327 75.3553 57.132 75.4756C56.8314 75.5959 56.5093 75.6554 56.1849 75.6507Z"/>
<path d="M75.864 38.7135C74.8767 38.7135 73.9117 39.0023 73.0909 39.5432C72.27 40.0841 71.6302 40.8529 71.2525 41.7524C70.8747 42.6519 70.7758 43.6417 70.9684 44.5966C71.161 45.5515 71.6365 46.4286 72.3345 47.117C73.0326 47.8055 73.922 48.2743 74.8903 48.4643C75.8585 48.6542 76.862 48.5567 77.7741 48.1841C78.6861 47.8115 79.4658 47.1806 80.0143 46.3711C80.5627 45.5616 80.8554 44.6098 80.8554 43.6362C80.8554 42.3306 80.3296 41.0785 79.3935 40.1554C78.4574 39.2322 77.1878 38.7135 75.864 38.7135ZM75.864 46.0277C75.3836 46.0312 74.9131 45.8938 74.512 45.6332C74.1109 45.3725 73.7973 45.0002 73.611 44.5635C73.4248 44.1269 73.3743 43.6455 73.4658 43.1804C73.5574 42.7154 73.787 42.2876 74.1254 41.9514C74.4638 41.6152 74.8958 41.3857 75.3667 41.292C75.8375 41.1983 76.326 41.2446 76.7701 41.4251C77.2143 41.6056 77.594 41.9121 77.8613 42.3058C78.1285 42.6994 78.2712 43.1625 78.2712 43.6362C78.2713 44.2675 78.0181 44.8731 77.5672 45.3211C77.1163 45.7691 76.504 46.0231 75.864 46.0277Z"/>
<path d="M75.864 53.5311C74.8767 53.5311 73.9117 53.8198 73.0909 54.3607C72.27 54.9016 71.6302 55.6705 71.2525 56.57C70.8747 57.4695 70.7758 58.4592 70.9684 59.4141C71.161 60.369 71.6365 61.2462 72.3345 61.9346C73.0326 62.6231 73.922 63.0919 74.8903 63.2818C75.8585 63.4718 76.862 63.3743 77.7741 63.0017C78.6861 62.6291 79.4658 61.9982 80.0143 61.1887C80.5627 60.3791 80.8554 59.4274 80.8554 58.4538C80.8554 57.1482 80.3296 55.8961 79.3935 54.9729C78.4574 54.0498 77.1878 53.5311 75.864 53.5311ZM75.864 60.8278C75.3829 60.8313 74.9117 60.6935 74.5102 60.4321C74.1087 60.1706 73.7951 59.7973 73.6094 59.3596C73.4237 58.9219 73.3741 58.4396 73.4671 57.9741C73.5601 57.5086 73.7915 57.0808 74.1316 56.7453C74.4718 56.4098 74.9056 56.1817 75.3776 56.09C75.8496 55.9983 76.3386 56.0471 76.7824 56.2303C77.2263 56.4134 77.6048 56.7227 77.8699 57.1186C78.135 57.5146 78.2747 57.9793 78.2712 58.4538C78.2666 59.082 78.0115 59.6832 77.561 60.1274C77.1106 60.5717 76.501 60.8232 75.864 60.8278Z"/>
<path d="M75.864 68.3365C74.8767 68.3365 73.9117 68.6253 73.0909 69.1662C72.27 69.7071 71.6302 70.4759 71.2525 71.3754C70.8747 72.2749 70.7758 73.2647 70.9684 74.2196C71.161 75.1745 71.6365 76.0516 72.3345 76.74C73.0326 77.4285 73.922 77.8973 74.8903 78.0873C75.8585 78.2772 76.862 78.1797 77.7741 77.8071C78.6861 77.4346 79.4658 76.8036 80.0143 75.9941C80.5627 75.1845 80.8554 74.2328 80.8554 73.2592C80.8554 71.9536 80.3296 70.7015 79.3935 69.7784C78.4574 68.8552 77.1878 68.3365 75.864 68.3365ZM75.864 75.6507C75.3836 75.6542 74.9131 75.5168 74.512 75.2562C74.1109 74.9955 73.7973 74.6232 73.611 74.1865C73.4248 73.7499 73.3743 73.2685 73.4658 72.8034C73.5574 72.3384 73.787 71.9106 74.1254 71.5744C74.4638 71.2382 74.8958 71.0087 75.3667 70.915C75.8375 70.8213 76.326 70.8676 76.7701 71.0481C77.2143 71.2286 77.594 71.5351 77.8613 71.9288C78.1285 72.3224 78.2712 72.7855 78.2712 73.2592C78.2713 73.8905 78.0181 74.4961 77.5672 74.9441C77.1163 75.3921 76.504 75.6461 75.864 75.6507Z"/>
</mask>
<path d="M43.0186 20.3124H19.8492C19.668 20.2914 19.4843 20.3085 19.3103 20.3625C19.1363 20.4165 18.9758 20.5062 18.8395 20.6258C18.7032 20.7453 18.5941 20.892 18.5194 21.0561C18.4447 21.2202 18.4061 21.3981 18.4061 21.578C18.4061 21.7579 18.4447 21.9358 18.5194 22.0999C18.5941 22.2641 18.7032 22.4107 18.8395 22.5303C18.9758 22.6498 19.1363 22.7396 19.3103 22.7936C19.4843 22.8476 19.668 22.8646 19.8492 22.8436H43.0186C43.333 22.8071 43.6228 22.6581 43.8331 22.4248C44.0435 22.1915 44.1597 21.8902 44.1597 21.578C44.1597 21.2658 44.0435 20.9645 43.8331 20.7312C43.6228 20.4979 43.333 20.3489 43.0186 20.3124Z" fill="#E71E5A"/>
<path d="M38.594 30.908H22.009C21.6694 30.908 21.3434 31.0399 21.1016 31.2751C20.8597 31.5103 20.7216 31.83 20.717 32.1649C20.717 32.5029 20.8531 32.827 21.0954 33.066C21.3377 33.3049 21.6663 33.4392 22.009 33.4392H38.594C38.9367 33.4392 39.2655 33.3049 39.5078 33.066C39.7501 32.827 39.8862 32.5029 39.8862 32.1649C39.8816 31.83 39.7433 31.5103 39.5015 31.2751C39.2597 31.0399 38.9337 30.908 38.594 30.908Z" fill="#E71E5A"/>
<path d="M15.7197 30.908H13.2063C12.8667 30.908 12.5406 31.0399 12.2988 31.2751C12.057 31.5103 11.9188 31.83 11.9141 32.1649C11.9141 32.5029 12.0502 32.827 12.2926 33.066C12.5349 33.3049 12.8636 33.4392 13.2063 33.4392H15.7197C16.0593 33.4346 16.3835 33.2983 16.622 33.0599C16.8605 32.8214 16.9941 32.4999 16.994 32.1649C16.994 31.8316 16.8598 31.5119 16.6208 31.2762C16.3818 31.0405 16.0577 30.908 15.7197 30.908Z" fill="#E71E5A"/>
<path d="M30.8763 44.0366C31.219 44.0366 31.5476 43.9024 31.7899 43.6634C32.0322 43.4244 32.1683 43.1003 32.1683 42.7623C32.1683 42.4244 32.0322 42.1003 31.7899 41.8613C31.5476 41.6223 31.219 41.488 30.8763 41.488H22.0262C21.6835 41.488 21.3549 41.6223 21.1126 41.8613C20.8702 42.1003 20.7341 42.4244 20.7341 42.7623C20.7341 43.1003 20.8702 43.4244 21.1126 43.6634C21.3549 43.9024 21.6835 44.0366 22.0262 44.0366H30.8763Z" fill="#E71E5A"/>
<path d="M13.2063 44.0366H15.7197C16.0624 44.0366 16.391 43.9024 16.6333 43.6634C16.8756 43.4244 17.0118 43.1003 17.0118 42.7623C17.0118 42.4244 16.8756 42.1003 16.6333 41.8613C16.391 41.6223 16.0624 41.488 15.7197 41.488H13.2063C12.8636 41.488 12.5349 41.6223 12.2926 41.8613C12.0502 42.1003 11.9141 42.4244 11.9141 42.7623C11.9141 43.1003 12.0502 43.4244 12.2926 43.6634C12.5349 43.9024 12.8636 44.0366 13.2063 44.0366Z" fill="#E71E5A"/>
<path d="M11.9141 53.3581C11.9141 53.696 12.0502 54.0202 12.2926 54.2592C12.5349 54.4981 12.8636 54.6324 13.2063 54.6324H24.3928C24.7355 54.6324 25.0641 54.4981 25.3064 54.2592C25.5487 54.0202 25.6849 53.696 25.6849 53.3581C25.6849 53.0201 25.5487 52.696 25.3064 52.457C25.0641 52.218 24.7355 52.0838 24.3928 52.0838H13.2063C12.8636 52.0838 12.5349 52.218 12.2926 52.457C12.0502 52.696 11.9141 53.0201 11.9141 53.3581Z" fill="#E71E5A"/>
<path d="M38.5937 52.0838H30.6818C30.3391 52.0838 30.0104 52.218 29.7681 52.457C29.5258 52.696 29.3896 53.0201 29.3896 53.3581C29.3896 53.696 29.5258 54.0202 29.7681 54.2592C30.0104 54.4981 30.3391 54.6324 30.6818 54.6324H38.5937C38.9364 54.6324 39.2651 54.4981 39.5074 54.2592C39.7497 54.0202 39.8858 53.696 39.8858 53.3581C39.8858 53.0201 39.7497 52.696 39.5074 52.457C39.2651 52.218 38.9364 52.0838 38.5937 52.0838Z" fill="#E71E5A"/>
<path d="M38.594 62.7489H22.009C21.6663 62.7489 21.3377 62.8832 21.0954 63.1222C20.8531 63.3611 20.717 63.6853 20.717 64.0232C20.717 64.3612 20.8531 64.6853 21.0954 64.9243C21.3377 65.1633 21.6663 65.2975 22.009 65.2975H38.594C38.9367 65.2975 39.2655 65.1633 39.5078 64.9243C39.7501 64.6853 39.8862 64.3612 39.8862 64.0232C39.8862 63.6853 39.7501 63.3611 39.5078 63.1222C39.2655 62.8832 38.9367 62.7489 38.594 62.7489Z" fill="#E71E5A"/>
<path d="M13.2063 62.7489C12.8636 62.7489 12.5349 62.8832 12.2926 63.1222C12.0502 63.3611 11.9141 63.6853 11.9141 64.0232C11.9141 64.3612 12.0502 64.6853 12.2926 64.9243C12.5349 65.1633 12.8636 65.2975 13.2063 65.2975H15.7197C16.0624 65.2975 16.391 65.1633 16.6333 64.9243C16.8756 64.6853 17.0118 64.3612 17.0118 64.0232C17.0118 63.6853 16.8756 63.3611 16.6333 63.1222C16.391 62.8832 16.0624 62.7489 15.7197 62.7489H13.2063Z" fill="#E71E5A"/>
<path d="M38.5894 83.4701H18.8892V75.8242C18.8845 74.1745 18.2167 72.5939 17.0322 71.4289C15.8477 70.264 14.2431 69.6098 12.5702 69.6098H5.0654V13.8721C5.06539 12.8937 5.45837 11.955 6.15826 11.2615C6.85815 10.568 7.80807 10.1761 8.80021 10.1714H13.8093V12.3884C13.8092 12.7233 13.9429 13.0448 14.1814 13.2833C14.4199 13.5218 14.7441 13.6581 15.0837 13.6627C15.4264 13.6627 15.755 13.5284 15.9974 13.2894C16.2397 13.0504 16.3758 12.7263 16.3758 12.3884V10.1714H24.6949V12.3884C24.6736 12.567 24.6908 12.7482 24.7455 12.9198C24.8003 13.0914 24.8914 13.2496 25.0126 13.384C25.1338 13.5185 25.2825 13.6261 25.449 13.6998C25.6154 13.7735 25.7957 13.8115 25.9781 13.8115C26.1605 13.8115 26.3409 13.7735 26.5074 13.6998C26.6738 13.6261 26.8225 13.5185 26.9437 13.384C27.0649 13.2496 27.1559 13.0914 27.2106 12.9198C27.2654 12.7482 27.2827 12.567 27.2614 12.3884V10.1714H35.6335V12.3884C35.6122 12.567 35.6296 12.7482 35.6843 12.9198C35.7391 13.0914 35.83 13.2496 35.9513 13.384C36.0725 13.5185 36.2212 13.6261 36.3876 13.6998C36.554 13.7735 36.7343 13.8115 36.9168 13.8115C37.0992 13.8115 37.2796 13.7735 37.446 13.6998C37.6124 13.6261 37.7611 13.5185 37.8824 13.384C38.0036 13.2496 38.0946 13.0914 38.1493 12.9198C38.2041 12.7482 38.2214 12.567 38.2001 12.3884V10.1714H46.5192V12.3884C46.5192 12.7263 46.6553 13.0504 46.8976 13.2894C47.1399 13.5284 47.4685 13.6627 47.8112 13.6627C48.1539 13.6627 48.4826 13.5284 48.7249 13.2894C48.9672 13.0504 49.1033 12.7263 49.1033 12.3884V10.1714H54.0948C55.0869 10.1761 56.0368 10.568 56.7367 11.2615C57.4366 11.955 57.8295 12.8937 57.8295 13.8721V24.5553C57.8295 24.8933 57.9656 25.2174 58.2079 25.4564C58.4502 25.6954 58.779 25.8297 59.1216 25.8297C59.4613 25.8251 59.7853 25.6888 60.0238 25.4503C60.2623 25.2118 60.396 24.8903 60.396 24.5553V13.8721C60.396 12.2224 59.7328 10.6399 58.5516 9.47171C57.3703 8.3035 55.7676 7.64489 54.0948 7.64026H49.1033V5.42334C49.1033 5.08538 48.9672 4.76125 48.7249 4.52227C48.4826 4.28329 48.1539 4.14902 47.8112 4.14902C47.4685 4.14902 47.1399 4.28329 46.8976 4.52227C46.6553 4.76125 46.5192 5.08538 46.5192 5.42334V7.64026H38.2001V5.42334C38.2214 5.24467 38.2041 5.06357 38.1493 4.89195C38.0946 4.72034 38.0036 4.5621 37.8824 4.42766C37.7611 4.29322 37.6124 4.1856 37.446 4.11192C37.2796 4.03823 37.0992 4.00015 36.9168 4.00015C36.7343 4.00015 36.554 4.03823 36.3876 4.11192C36.2212 4.1856 36.0725 4.29322 35.9513 4.42766C35.83 4.5621 35.7391 4.72034 35.6843 4.89195C35.6296 5.06357 35.6122 5.24467 35.6335 5.42334V7.64026H27.3145V5.42334C27.3358 5.24467 27.3186 5.06357 27.2638 4.89195C27.209 4.72034 27.118 4.5621 26.9967 4.42766C26.8755 4.29322 26.7268 4.1856 26.5604 4.11192C26.394 4.03823 26.2137 4.00015 26.0312 4.00015C25.8488 4.00015 25.6684 4.03823 25.502 4.11192C25.3356 4.1856 25.1869 4.29322 25.0657 4.42766C24.9444 4.5621 24.8535 4.72034 24.7987 4.89195C24.7439 5.06357 24.7266 5.24467 24.7479 5.42334V7.64026H16.429V5.42334C16.429 5.256 16.3955 5.0903 16.3305 4.93569C16.2656 4.78109 16.1705 4.6406 16.0505 4.52227C15.9305 4.40394 15.788 4.31007 15.6312 4.24603C15.4745 4.18199 15.3065 4.14902 15.1368 4.14902C14.7972 4.15361 14.4731 4.28989 14.2346 4.52837C13.9961 4.76686 13.8624 5.08838 13.8624 5.42334V7.64026H8.85325C7.18043 7.64489 5.57777 8.3035 4.39657 9.47171C3.21536 10.6399 2.552 12.2224 2.55201 13.8721V70.8667C2.52693 70.9758 2.52693 71.0892 2.55201 71.1983C2.54434 71.2387 2.54434 71.2802 2.55201 71.3205C2.61188 71.4511 2.69594 71.5695 2.79984 71.6697L16.6059 85.5124C16.7237 85.6367 16.8691 85.7323 17.0307 85.7917C17.1863 85.8615 17.3554 85.8972 17.5264 85.8965H38.5187C38.6998 85.9175 38.8834 85.9004 39.0574 85.8464C39.2314 85.7924 39.3919 85.7027 39.5282 85.5831C39.6646 85.4636 39.7737 85.3169 39.8484 85.1528C39.9232 84.9887 39.9618 84.8108 39.9618 84.6309C39.9618 84.451 39.9232 84.2731 39.8484 84.109C39.7737 83.9449 39.6646 83.7982 39.5282 83.6786C39.3919 83.5591 39.2314 83.4694 39.0574 83.4154C38.8834 83.3614 38.6998 83.3443 38.5187 83.3653L38.5894 83.4701ZM16.305 81.6372L6.85313 72.141H12.6234C13.6125 72.1456 14.5597 72.5351 15.2591 73.2249C15.9585 73.9146 16.3534 74.8488 16.3581 75.8242L16.305 81.6372Z" fill="#E71E5A"/>
<path d="M38.5919 73.223H24.3256C23.983 73.223 23.6543 73.3573 23.412 73.5963C23.1697 73.8352 23.0336 74.1594 23.0336 74.4973C23.0336 74.8353 23.1697 75.1594 23.412 75.3984C23.6543 75.6374 23.983 75.7717 24.3256 75.7717H38.5919C38.9346 75.7717 39.2634 75.6374 39.5057 75.3984C39.748 75.1594 39.8841 74.8353 39.8841 74.4973C39.8841 74.1594 39.748 73.8352 39.5057 73.5963C39.2634 73.3573 38.9346 73.223 38.5919 73.223Z" fill="#E71E5A"/>
<path d="M77.838 30.908H54.2082C51.6606 30.9127 49.2187 31.9128 47.4173 33.6894C45.6159 35.466 44.6018 37.8743 44.5971 40.3868V76.5037C44.5971 79.0192 45.6091 81.4319 47.411 83.2123C49.213 84.9927 51.6576 85.9952 54.2082 85.9999H77.838C80.3903 85.9953 82.8366 84.9933 84.6413 83.2134C86.4461 81.4335 87.4622 79.0208 87.4668 76.5037V40.3868C87.4622 37.8713 86.4455 35.4604 84.6403 33.6833C82.835 31.9061 80.3886 30.908 77.838 30.908ZM84.918 76.5037C84.918 78.3556 84.1721 80.1316 82.8443 81.441C81.5166 82.7505 79.7157 83.4862 77.838 83.4862H54.2082C52.3305 83.4862 50.5296 82.7505 49.2019 81.441C47.8741 80.1316 47.1282 78.3556 47.1282 76.5037V40.3868C47.1282 38.5349 47.8741 36.7589 49.2019 35.4494C50.5296 34.1399 52.3305 33.4043 54.2082 33.4043H77.838C79.7157 33.4043 81.5166 34.1399 82.8443 35.4494C84.1721 36.7589 84.918 38.5349 84.918 40.3868V76.5037Z" fill="#E71E5A"/>
<path d="M66.0246 36.1823C65.855 36.1823 65.6869 36.2153 65.5302 36.2793C65.3734 36.3434 65.231 36.4372 65.111 36.5555C64.991 36.6739 64.8958 36.8143 64.8309 36.9689C64.7659 37.1236 64.7326 37.2893 64.7326 37.4566V79.4563C64.7372 79.7912 64.8754 80.1109 65.1172 80.3461C65.359 80.5813 65.685 80.7131 66.0246 80.7131C66.3626 80.7131 66.6869 80.5807 66.9258 80.345C67.1648 80.1093 67.2991 79.7896 67.2991 79.4563V37.4566C67.2991 37.1216 67.1654 36.8001 66.9269 36.5617C66.6884 36.3232 66.3643 36.1869 66.0246 36.1823Z" fill="#E71E5A"/>
<path d="M56.1849 38.7135C55.1977 38.7135 54.2327 39.0023 53.4118 39.5432C52.591 40.0841 51.9512 40.8529 51.5734 41.7524C51.1956 42.6519 51.0968 43.6417 51.2894 44.5966C51.482 45.5515 51.9574 46.4286 52.6555 47.117C53.3535 47.8055 54.243 48.2743 55.2112 48.4643C56.1795 48.6542 57.183 48.5567 58.095 48.1841C59.0071 47.8115 59.7868 47.1806 60.3352 46.3711C60.8837 45.5616 61.1764 44.6098 61.1764 43.6362C61.1764 42.3306 60.6505 41.0785 59.7145 40.1554C58.7784 39.2322 57.5087 38.7135 56.1849 38.7135ZM56.1849 46.0277C55.7046 46.0312 55.2341 45.8938 54.833 45.6332C54.4319 45.3725 54.1182 45.0002 53.932 44.5635C53.7457 44.1269 53.6952 43.6455 53.7868 43.1804C53.8784 42.7154 54.1079 42.2876 54.4463 41.9514C54.7848 41.6152 55.2168 41.3857 55.6876 41.292C56.1585 41.1983 56.647 41.2446 57.0911 41.4251C57.5352 41.6056 57.915 41.9121 58.1822 42.3058C58.4495 42.6994 58.5921 43.1625 58.5921 43.6362C58.5921 44.2675 58.3391 44.8731 57.8882 45.3211C57.4372 45.7691 56.825 46.0231 56.1849 46.0277Z" fill="#E71E5A"/>
<path d="M56.1849 53.5311C55.1977 53.5311 54.2327 53.8198 53.4118 54.3607C52.591 54.9016 51.9512 55.6705 51.5734 56.57C51.1956 57.4695 51.0968 58.4592 51.2894 59.4141C51.482 60.369 51.9574 61.2462 52.6555 61.9346C53.3535 62.6231 54.243 63.0919 55.2112 63.2818C56.1795 63.4718 57.183 63.3743 58.095 63.0017C59.0071 62.6291 59.7868 61.9982 60.3352 61.1887C60.8837 60.3791 61.1764 59.4274 61.1764 58.4538C61.1764 57.1482 60.6505 55.8961 59.7145 54.9729C58.7784 54.0498 57.5087 53.5311 56.1849 53.5311ZM56.1849 60.8278C55.7038 60.8313 55.2326 60.6935 54.8312 60.4321C54.4297 60.1706 54.1161 59.7973 53.9304 59.3596C53.7447 58.9219 53.6951 58.4396 53.7881 57.9741C53.8811 57.5086 54.1124 57.0808 54.4526 56.7453C54.7928 56.4098 55.2265 56.1817 55.6986 56.09C56.1706 55.9983 56.6596 56.0471 57.1034 56.2303C57.5472 56.4134 57.9258 56.7227 58.1909 57.1186C58.456 57.5146 58.5956 57.9793 58.5921 58.4538C58.5921 58.7655 58.5299 59.0743 58.4089 59.3623C58.2879 59.6503 58.1106 59.912 57.8871 60.1325C57.6636 60.3529 57.3982 60.5278 57.1061 60.6471C56.8141 60.7664 56.501 60.8278 56.1849 60.8278Z" fill="#E71E5A"/>
<path d="M56.1849 68.3365C55.1977 68.3365 54.2327 68.6253 53.4118 69.1662C52.591 69.7071 51.9512 70.4759 51.5734 71.3754C51.1956 72.2749 51.0968 73.2647 51.2894 74.2196C51.482 75.1745 51.9574 76.0516 52.6555 76.74C53.3535 77.4285 54.243 77.8973 55.2112 78.0873C56.1795 78.2772 57.183 78.1797 58.095 77.8071C59.0071 77.4346 59.7868 76.8036 60.3352 75.9941C60.8837 75.1845 61.1764 74.2328 61.1764 73.2592C61.1764 71.9536 60.6505 70.7015 59.7145 69.7784C58.7784 68.8552 57.5087 68.3365 56.1849 68.3365ZM56.1849 75.6507C55.7084 75.6438 55.2446 75.4986 54.8512 75.2332C54.4579 74.9677 54.1526 74.5939 53.9735 74.1584C53.7943 73.7228 53.7494 73.2449 53.8441 72.7843C53.9388 72.3237 54.169 71.9007 54.506 71.5684C54.843 71.2361 55.2717 71.009 55.7387 70.9156C56.2058 70.8223 56.6904 70.8667 57.132 71.0433C57.5737 71.22 57.9528 71.5211 58.2219 71.909C58.491 72.2969 58.6383 72.7543 58.6453 73.2243C58.65 73.5442 58.5896 73.8619 58.4677 74.1584C58.3457 74.4549 58.1647 74.7243 57.9353 74.9505C57.7058 75.1768 57.4327 75.3553 57.132 75.4756C56.8314 75.5959 56.5093 75.6554 56.1849 75.6507Z" fill="#E71E5A"/>
<path d="M75.864 38.7135C74.8767 38.7135 73.9117 39.0023 73.0909 39.5432C72.27 40.0841 71.6302 40.8529 71.2525 41.7524C70.8747 42.6519 70.7758 43.6417 70.9684 44.5966C71.161 45.5515 71.6365 46.4286 72.3345 47.117C73.0326 47.8055 73.922 48.2743 74.8903 48.4643C75.8585 48.6542 76.862 48.5567 77.7741 48.1841C78.6861 47.8115 79.4658 47.1806 80.0143 46.3711C80.5627 45.5616 80.8554 44.6098 80.8554 43.6362C80.8554 42.3306 80.3296 41.0785 79.3935 40.1554C78.4574 39.2322 77.1878 38.7135 75.864 38.7135ZM75.864 46.0277C75.3836 46.0312 74.9131 45.8938 74.512 45.6332C74.1109 45.3725 73.7973 45.0002 73.611 44.5635C73.4248 44.1269 73.3743 43.6455 73.4658 43.1804C73.5574 42.7154 73.787 42.2876 74.1254 41.9514C74.4638 41.6152 74.8958 41.3857 75.3667 41.292C75.8375 41.1983 76.326 41.2446 76.7701 41.4251C77.2143 41.6056 77.594 41.9121 77.8613 42.3058C78.1285 42.6994 78.2712 43.1625 78.2712 43.6362C78.2713 44.2675 78.0181 44.8731 77.5672 45.3211C77.1163 45.7691 76.504 46.0231 75.864 46.0277Z" fill="#E71E5A"/>
<path d="M75.864 53.5311C74.8767 53.5311 73.9117 53.8198 73.0909 54.3607C72.27 54.9016 71.6302 55.6705 71.2525 56.57C70.8747 57.4695 70.7758 58.4592 70.9684 59.4141C71.161 60.369 71.6365 61.2462 72.3345 61.9346C73.0326 62.6231 73.922 63.0919 74.8903 63.2818C75.8585 63.4718 76.862 63.3743 77.7741 63.0017C78.6861 62.6291 79.4658 61.9982 80.0143 61.1887C80.5627 60.3791 80.8554 59.4274 80.8554 58.4538C80.8554 57.1482 80.3296 55.8961 79.3935 54.9729C78.4574 54.0498 77.1878 53.5311 75.864 53.5311ZM75.864 60.8278C75.3829 60.8313 74.9117 60.6935 74.5102 60.4321C74.1087 60.1706 73.7951 59.7973 73.6094 59.3596C73.4237 58.9219 73.3741 58.4396 73.4671 57.9741C73.5601 57.5086 73.7915 57.0808 74.1316 56.7453C74.4718 56.4098 74.9056 56.1817 75.3776 56.09C75.8496 55.9983 76.3386 56.0471 76.7824 56.2303C77.2263 56.4134 77.6048 56.7227 77.8699 57.1186C78.135 57.5146 78.2747 57.9793 78.2712 58.4538C78.2666 59.082 78.0115 59.6832 77.561 60.1274C77.1106 60.5717 76.501 60.8232 75.864 60.8278Z" fill="#E71E5A"/>
<path d="M75.864 68.3365C74.8767 68.3365 73.9117 68.6253 73.0909 69.1662C72.27 69.7071 71.6302 70.4759 71.2525 71.3754C70.8747 72.2749 70.7758 73.2647 70.9684 74.2196C71.161 75.1745 71.6365 76.0516 72.3345 76.74C73.0326 77.4285 73.922 77.8973 74.8903 78.0873C75.8585 78.2772 76.862 78.1797 77.7741 77.8071C78.6861 77.4346 79.4658 76.8036 80.0143 75.9941C80.5627 75.1845 80.8554 74.2328 80.8554 73.2592C80.8554 71.9536 80.3296 70.7015 79.3935 69.7784C78.4574 68.8552 77.1878 68.3365 75.864 68.3365ZM75.864 75.6507C75.3836 75.6542 74.9131 75.5168 74.512 75.2562C74.1109 74.9955 73.7973 74.6232 73.611 74.1865C73.4248 73.7499 73.3743 73.2685 73.4658 72.8034C73.5574 72.3384 73.787 71.9106 74.1254 71.5744C74.4638 71.2382 74.8958 71.0087 75.3667 70.915C75.8375 70.8213 76.326 70.8676 76.7701 71.0481C77.2143 71.2286 77.594 71.5351 77.8613 71.9288C78.1285 72.3224 78.2712 72.7855 78.2712 73.2592C78.2713 73.8905 78.0181 74.4961 77.5672 74.9441C77.1163 75.3921 76.504 75.6461 75.864 75.6507Z" fill="#E71E5A"/>
<path d="M43.0186 20.3124H19.8492C19.668 20.2914 19.4843 20.3085 19.3103 20.3625C19.1363 20.4165 18.9758 20.5062 18.8395 20.6258C18.7032 20.7453 18.5941 20.892 18.5194 21.0561C18.4447 21.2202 18.4061 21.3981 18.4061 21.578C18.4061 21.7579 18.4447 21.9358 18.5194 22.0999C18.5941 22.2641 18.7032 22.4107 18.8395 22.5303C18.9758 22.6498 19.1363 22.7396 19.3103 22.7936C19.4843 22.8476 19.668 22.8646 19.8492 22.8436H43.0186C43.333 22.8071 43.6228 22.6581 43.8331 22.4248C44.0435 22.1915 44.1597 21.8902 44.1597 21.578C44.1597 21.2658 44.0435 20.9645 43.8331 20.7312C43.6228 20.4979 43.333 20.3489 43.0186 20.3124Z" stroke="#E71E5A" stroke-width="0.2" mask="url(#path-1-outside-1_1692_6859)"/>
<path d="M38.594 30.908H22.009C21.6694 30.908 21.3434 31.0399 21.1016 31.2751C20.8597 31.5103 20.7216 31.83 20.717 32.1649C20.717 32.5029 20.8531 32.827 21.0954 33.066C21.3377 33.3049 21.6663 33.4392 22.009 33.4392H38.594C38.9367 33.4392 39.2655 33.3049 39.5078 33.066C39.7501 32.827 39.8862 32.5029 39.8862 32.1649C39.8816 31.83 39.7433 31.5103 39.5015 31.2751C39.2597 31.0399 38.9337 30.908 38.594 30.908Z" stroke="#E71E5A" stroke-width="0.2" mask="url(#path-1-outside-1_1692_6859)"/>
<path d="M15.7197 30.908H13.2063C12.8667 30.908 12.5406 31.0399 12.2988 31.2751C12.057 31.5103 11.9188 31.83 11.9141 32.1649C11.9141 32.5029 12.0502 32.827 12.2926 33.066C12.5349 33.3049 12.8636 33.4392 13.2063 33.4392H15.7197C16.0593 33.4346 16.3835 33.2983 16.622 33.0599C16.8605 32.8214 16.9941 32.4999 16.994 32.1649C16.994 31.8316 16.8598 31.5119 16.6208 31.2762C16.3818 31.0405 16.0577 30.908 15.7197 30.908Z" stroke="#E71E5A" stroke-width="0.2" mask="url(#path-1-outside-1_1692_6859)"/>
<path d="M30.8763 44.0366C31.219 44.0366 31.5476 43.9024 31.7899 43.6634C32.0322 43.4244 32.1683 43.1003 32.1683 42.7623C32.1683 42.4244 32.0322 42.1003 31.7899 41.8613C31.5476 41.6223 31.219 41.488 30.8763 41.488H22.0262C21.6835 41.488 21.3549 41.6223 21.1126 41.8613C20.8702 42.1003 20.7341 42.4244 20.7341 42.7623C20.7341 43.1003 20.8702 43.4244 21.1126 43.6634C21.3549 43.9024 21.6835 44.0366 22.0262 44.0366H30.8763Z" stroke="#E71E5A" stroke-width="0.2" mask="url(#path-1-outside-1_1692_6859)"/>
<path d="M13.2063 44.0366H15.7197C16.0624 44.0366 16.391 43.9024 16.6333 43.6634C16.8756 43.4244 17.0118 43.1003 17.0118 42.7623C17.0118 42.4244 16.8756 42.1003 16.6333 41.8613C16.391 41.6223 16.0624 41.488 15.7197 41.488H13.2063C12.8636 41.488 12.5349 41.6223 12.2926 41.8613C12.0502 42.1003 11.9141 42.4244 11.9141 42.7623C11.9141 43.1003 12.0502 43.4244 12.2926 43.6634C12.5349 43.9024 12.8636 44.0366 13.2063 44.0366Z" stroke="#E71E5A" stroke-width="0.2" mask="url(#path-1-outside-1_1692_6859)"/>
<path d="M11.9141 53.3581C11.9141 53.696 12.0502 54.0202 12.2926 54.2592C12.5349 54.4981 12.8636 54.6324 13.2063 54.6324H24.3928C24.7355 54.6324 25.0641 54.4981 25.3064 54.2592C25.5487 54.0202 25.6849 53.696 25.6849 53.3581C25.6849 53.0201 25.5487 52.696 25.3064 52.457C25.0641 52.218 24.7355 52.0838 24.3928 52.0838H13.2063C12.8636 52.0838 12.5349 52.218 12.2926 52.457C12.0502 52.696 11.9141 53.0201 11.9141 53.3581Z" stroke="#E71E5A" stroke-width="0.2" mask="url(#path-1-outside-1_1692_6859)"/>
<path d="M38.5937 52.0838H30.6818C30.3391 52.0838 30.0104 52.218 29.7681 52.457C29.5258 52.696 29.3896 53.0201 29.3896 53.3581C29.3896 53.696 29.5258 54.0202 29.7681 54.2592C30.0104 54.4981 30.3391 54.6324 30.6818 54.6324H38.5937C38.9364 54.6324 39.2651 54.4981 39.5074 54.2592C39.7497 54.0202 39.8858 53.696 39.8858 53.3581C39.8858 53.0201 39.7497 52.696 39.5074 52.457C39.2651 52.218 38.9364 52.0838 38.5937 52.0838Z" stroke="#E71E5A" stroke-width="0.2" mask="url(#path-1-outside-1_1692_6859)"/>
<path d="M38.594 62.7489H22.009C21.6663 62.7489 21.3377 62.8832 21.0954 63.1222C20.8531 63.3611 20.717 63.6853 20.717 64.0232C20.717 64.3612 20.8531 64.6853 21.0954 64.9243C21.3377 65.1633 21.6663 65.2975 22.009 65.2975H38.594C38.9367 65.2975 39.2655 65.1633 39.5078 64.9243C39.7501 64.6853 39.8862 64.3612 39.8862 64.0232C39.8862 63.6853 39.7501 63.3611 39.5078 63.1222C39.2655 62.8832 38.9367 62.7489 38.594 62.7489Z" stroke="#E71E5A" stroke-width="0.2" mask="url(#path-1-outside-1_1692_6859)"/>
<path d="M13.2063 62.7489C12.8636 62.7489 12.5349 62.8832 12.2926 63.1222C12.0502 63.3611 11.9141 63.6853 11.9141 64.0232C11.9141 64.3612 12.0502 64.6853 12.2926 64.9243C12.5349 65.1633 12.8636 65.2975 13.2063 65.2975H15.7197C16.0624 65.2975 16.391 65.1633 16.6333 64.9243C16.8756 64.6853 17.0118 64.3612 17.0118 64.0232C17.0118 63.6853 16.8756 63.3611 16.6333 63.1222C16.391 62.8832 16.0624 62.7489 15.7197 62.7489H13.2063Z" stroke="#E71E5A" stroke-width="0.2" mask="url(#path-1-outside-1_1692_6859)"/>
<path d="M38.5894 83.4701H18.8892V75.8242C18.8845 74.1745 18.2167 72.5939 17.0322 71.4289C15.8477 70.264 14.2431 69.6098 12.5702 69.6098H5.0654V13.8721C5.06539 12.8937 5.45837 11.955 6.15826 11.2615C6.85815 10.568 7.80807 10.1761 8.80021 10.1714H13.8093V12.3884C13.8092 12.7233 13.9429 13.0448 14.1814 13.2833C14.4199 13.5218 14.7441 13.6581 15.0837 13.6627C15.4264 13.6627 15.755 13.5284 15.9974 13.2894C16.2397 13.0504 16.3758 12.7263 16.3758 12.3884V10.1714H24.6949V12.3884C24.6736 12.567 24.6908 12.7482 24.7455 12.9198C24.8003 13.0914 24.8914 13.2496 25.0126 13.384C25.1338 13.5185 25.2825 13.6261 25.449 13.6998C25.6154 13.7735 25.7957 13.8115 25.9781 13.8115C26.1605 13.8115 26.3409 13.7735 26.5074 13.6998C26.6738 13.6261 26.8225 13.5185 26.9437 13.384C27.0649 13.2496 27.1559 13.0914 27.2106 12.9198C27.2654 12.7482 27.2827 12.567 27.2614 12.3884V10.1714H35.6335V12.3884C35.6122 12.567 35.6296 12.7482 35.6843 12.9198C35.7391 13.0914 35.83 13.2496 35.9513 13.384C36.0725 13.5185 36.2212 13.6261 36.3876 13.6998C36.554 13.7735 36.7343 13.8115 36.9168 13.8115C37.0992 13.8115 37.2796 13.7735 37.446 13.6998C37.6124 13.6261 37.7611 13.5185 37.8824 13.384C38.0036 13.2496 38.0946 13.0914 38.1493 12.9198C38.2041 12.7482 38.2214 12.567 38.2001 12.3884V10.1714H46.5192V12.3884C46.5192 12.7263 46.6553 13.0504 46.8976 13.2894C47.1399 13.5284 47.4685 13.6627 47.8112 13.6627C48.1539 13.6627 48.4826 13.5284 48.7249 13.2894C48.9672 13.0504 49.1033 12.7263 49.1033 12.3884V10.1714H54.0948C55.0869 10.1761 56.0368 10.568 56.7367 11.2615C57.4366 11.955 57.8295 12.8937 57.8295 13.8721V24.5553C57.8295 24.8933 57.9656 25.2174 58.2079 25.4564C58.4502 25.6954 58.779 25.8297 59.1216 25.8297C59.4613 25.8251 59.7853 25.6888 60.0238 25.4503C60.2623 25.2118 60.396 24.8903 60.396 24.5553V13.8721C60.396 12.2224 59.7328 10.6399 58.5516 9.47171C57.3703 8.3035 55.7676 7.64489 54.0948 7.64026H49.1033V5.42334C49.1033 5.08538 48.9672 4.76125 48.7249 4.52227C48.4826 4.28329 48.1539 4.14902 47.8112 4.14902C47.4685 4.14902 47.1399 4.28329 46.8976 4.52227C46.6553 4.76125 46.5192 5.08538 46.5192 5.42334V7.64026H38.2001V5.42334C38.2214 5.24467 38.2041 5.06357 38.1493 4.89195C38.0946 4.72034 38.0036 4.5621 37.8824 4.42766C37.7611 4.29322 37.6124 4.1856 37.446 4.11192C37.2796 4.03823 37.0992 4.00015 36.9168 4.00015C36.7343 4.00015 36.554 4.03823 36.3876 4.11192C36.2212 4.1856 36.0725 4.29322 35.9513 4.42766C35.83 4.5621 35.7391 4.72034 35.6843 4.89195C35.6296 5.06357 35.6122 5.24467 35.6335 5.42334V7.64026H27.3145V5.42334C27.3358 5.24467 27.3186 5.06357 27.2638 4.89195C27.209 4.72034 27.118 4.5621 26.9967 4.42766C26.8755 4.29322 26.7268 4.1856 26.5604 4.11192C26.394 4.03823 26.2137 4.00015 26.0312 4.00015C25.8488 4.00015 25.6684 4.03823 25.502 4.11192C25.3356 4.1856 25.1869 4.29322 25.0657 4.42766C24.9444 4.5621 24.8535 4.72034 24.7987 4.89195C24.7439 5.06357 24.7266 5.24467 24.7479 5.42334V7.64026H16.429V5.42334C16.429 5.256 16.3955 5.0903 16.3305 4.93569C16.2656 4.78109 16.1705 4.6406 16.0505 4.52227C15.9305 4.40394 15.788 4.31007 15.6312 4.24603C15.4745 4.18199 15.3065 4.14902 15.1368 4.14902C14.7972 4.15361 14.4731 4.28989 14.2346 4.52837C13.9961 4.76686 13.8624 5.08838 13.8624 5.42334V7.64026H8.85325C7.18043 7.64489 5.57777 8.3035 4.39657 9.47171C3.21536 10.6399 2.552 12.2224 2.55201 13.8721V70.8667C2.52693 70.9758 2.52693 71.0892 2.55201 71.1983C2.54434 71.2387 2.54434 71.2802 2.55201 71.3205C2.61188 71.4511 2.69594 71.5695 2.79984 71.6697L16.6059 85.5124C16.7237 85.6367 16.8691 85.7323 17.0307 85.7917C17.1863 85.8615 17.3554 85.8972 17.5264 85.8965H38.5187C38.6998 85.9175 38.8834 85.9004 39.0574 85.8464C39.2314 85.7924 39.3919 85.7027 39.5282 85.5831C39.6646 85.4636 39.7737 85.3169 39.8484 85.1528C39.9232 84.9887 39.9618 84.8108 39.9618 84.6309C39.9618 84.451 39.9232 84.2731 39.8484 84.109C39.7737 83.9449 39.6646 83.7982 39.5282 83.6786C39.3919 83.5591 39.2314 83.4694 39.0574 83.4154C38.8834 83.3614 38.6998 83.3443 38.5187 83.3653L38.5894 83.4701ZM16.305 81.6372L6.85313 72.141H12.6234C13.6125 72.1456 14.5597 72.5351 15.2591 73.2249C15.9585 73.9146 16.3534 74.8488 16.3581 75.8242L16.305 81.6372Z" stroke="#E71E5A" stroke-width="0.2" mask="url(#path-1-outside-1_1692_6859)"/>
<path d="M38.5919 73.223H24.3256C23.983 73.223 23.6543 73.3573 23.412 73.5963C23.1697 73.8352 23.0336 74.1594 23.0336 74.4973C23.0336 74.8353 23.1697 75.1594 23.412 75.3984C23.6543 75.6374 23.983 75.7717 24.3256 75.7717H38.5919C38.9346 75.7717 39.2634 75.6374 39.5057 75.3984C39.748 75.1594 39.8841 74.8353 39.8841 74.4973C39.8841 74.1594 39.748 73.8352 39.5057 73.5963C39.2634 73.3573 38.9346 73.223 38.5919 73.223Z" stroke="#E71E5A" stroke-width="0.2" mask="url(#path-1-outside-1_1692_6859)"/>
<path d="M77.838 30.908H54.2082C51.6606 30.9127 49.2187 31.9128 47.4173 33.6894C45.6159 35.466 44.6018 37.8743 44.5971 40.3868V76.5037C44.5971 79.0192 45.6091 81.4319 47.411 83.2123C49.213 84.9927 51.6576 85.9952 54.2082 85.9999H77.838C80.3903 85.9953 82.8366 84.9933 84.6413 83.2134C86.4461 81.4335 87.4622 79.0208 87.4668 76.5037V40.3868C87.4622 37.8713 86.4455 35.4604 84.6403 33.6833C82.835 31.9061 80.3886 30.908 77.838 30.908ZM84.918 76.5037C84.918 78.3556 84.1721 80.1316 82.8443 81.441C81.5166 82.7505 79.7157 83.4862 77.838 83.4862H54.2082C52.3305 83.4862 50.5296 82.7505 49.2019 81.441C47.8741 80.1316 47.1282 78.3556 47.1282 76.5037V40.3868C47.1282 38.5349 47.8741 36.7589 49.2019 35.4494C50.5296 34.1399 52.3305 33.4043 54.2082 33.4043H77.838C79.7157 33.4043 81.5166 34.1399 82.8443 35.4494C84.1721 36.7589 84.918 38.5349 84.918 40.3868V76.5037Z" stroke="#E71E5A" stroke-width="0.2" mask="url(#path-1-outside-1_1692_6859)"/>
<path d="M66.0246 36.1823C65.855 36.1823 65.6869 36.2153 65.5302 36.2793C65.3734 36.3434 65.231 36.4372 65.111 36.5555C64.991 36.6739 64.8958 36.8143 64.8309 36.9689C64.7659 37.1236 64.7326 37.2893 64.7326 37.4566V79.4563C64.7372 79.7912 64.8754 80.1109 65.1172 80.3461C65.359 80.5813 65.685 80.7131 66.0246 80.7131C66.3626 80.7131 66.6869 80.5807 66.9258 80.345C67.1648 80.1093 67.2991 79.7896 67.2991 79.4563V37.4566C67.2991 37.1216 67.1654 36.8001 66.9269 36.5617C66.6884 36.3232 66.3643 36.1869 66.0246 36.1823Z" stroke="#E71E5A" stroke-width="0.2" mask="url(#path-1-outside-1_1692_6859)"/>
<path d="M56.1849 38.7135C55.1977 38.7135 54.2327 39.0023 53.4118 39.5432C52.591 40.0841 51.9512 40.8529 51.5734 41.7524C51.1956 42.6519 51.0968 43.6417 51.2894 44.5966C51.482 45.5515 51.9574 46.4286 52.6555 47.117C53.3535 47.8055 54.243 48.2743 55.2112 48.4643C56.1795 48.6542 57.183 48.5567 58.095 48.1841C59.0071 47.8115 59.7868 47.1806 60.3352 46.3711C60.8837 45.5616 61.1764 44.6098 61.1764 43.6362C61.1764 42.3306 60.6505 41.0785 59.7145 40.1554C58.7784 39.2322 57.5087 38.7135 56.1849 38.7135ZM56.1849 46.0277C55.7046 46.0312 55.2341 45.8938 54.833 45.6332C54.4319 45.3725 54.1182 45.0002 53.932 44.5635C53.7457 44.1269 53.6952 43.6455 53.7868 43.1804C53.8784 42.7154 54.1079 42.2876 54.4463 41.9514C54.7848 41.6152 55.2168 41.3857 55.6876 41.292C56.1585 41.1983 56.647 41.2446 57.0911 41.4251C57.5352 41.6056 57.915 41.9121 58.1822 42.3058C58.4495 42.6994 58.5921 43.1625 58.5921 43.6362C58.5921 44.2675 58.3391 44.8731 57.8882 45.3211C57.4372 45.7691 56.825 46.0231 56.1849 46.0277Z" stroke="#E71E5A" stroke-width="0.2" mask="url(#path-1-outside-1_1692_6859)"/>
<path d="M56.1849 53.5311C55.1977 53.5311 54.2327 53.8198 53.4118 54.3607C52.591 54.9016 51.9512 55.6705 51.5734 56.57C51.1956 57.4695 51.0968 58.4592 51.2894 59.4141C51.482 60.369 51.9574 61.2462 52.6555 61.9346C53.3535 62.6231 54.243 63.0919 55.2112 63.2818C56.1795 63.4718 57.183 63.3743 58.095 63.0017C59.0071 62.6291 59.7868 61.9982 60.3352 61.1887C60.8837 60.3791 61.1764 59.4274 61.1764 58.4538C61.1764 57.1482 60.6505 55.8961 59.7145 54.9729C58.7784 54.0498 57.5087 53.5311 56.1849 53.5311ZM56.1849 60.8278C55.7038 60.8313 55.2326 60.6935 54.8312 60.4321C54.4297 60.1706 54.1161 59.7973 53.9304 59.3596C53.7447 58.9219 53.6951 58.4396 53.7881 57.9741C53.8811 57.5086 54.1124 57.0808 54.4526 56.7453C54.7928 56.4098 55.2265 56.1817 55.6986 56.09C56.1706 55.9983 56.6596 56.0471 57.1034 56.2303C57.5472 56.4134 57.9258 56.7227 58.1909 57.1186C58.456 57.5146 58.5956 57.9793 58.5921 58.4538C58.5921 58.7655 58.5299 59.0743 58.4089 59.3623C58.2879 59.6503 58.1106 59.912 57.8871 60.1325C57.6636 60.3529 57.3982 60.5278 57.1061 60.6471C56.8141 60.7664 56.501 60.8278 56.1849 60.8278Z" stroke="#E71E5A" stroke-width="0.2" mask="url(#path-1-outside-1_1692_6859)"/>
<path d="M56.1849 68.3365C55.1977 68.3365 54.2327 68.6253 53.4118 69.1662C52.591 69.7071 51.9512 70.4759 51.5734 71.3754C51.1956 72.2749 51.0968 73.2647 51.2894 74.2196C51.482 75.1745 51.9574 76.0516 52.6555 76.74C53.3535 77.4285 54.243 77.8973 55.2112 78.0873C56.1795 78.2772 57.183 78.1797 58.095 77.8071C59.0071 77.4346 59.7868 76.8036 60.3352 75.9941C60.8837 75.1845 61.1764 74.2328 61.1764 73.2592C61.1764 71.9536 60.6505 70.7015 59.7145 69.7784C58.7784 68.8552 57.5087 68.3365 56.1849 68.3365ZM56.1849 75.6507C55.7084 75.6438 55.2446 75.4986 54.8512 75.2332C54.4579 74.9677 54.1526 74.5939 53.9735 74.1584C53.7943 73.7228 53.7494 73.2449 53.8441 72.7843C53.9388 72.3237 54.169 71.9007 54.506 71.5684C54.843 71.2361 55.2717 71.009 55.7387 70.9156C56.2058 70.8223 56.6904 70.8667 57.132 71.0433C57.5737 71.22 57.9528 71.5211 58.2219 71.909C58.491 72.2969 58.6383 72.7543 58.6453 73.2243C58.65 73.5442 58.5896 73.8619 58.4677 74.1584C58.3457 74.4549 58.1647 74.7243 57.9353 74.9505C57.7058 75.1768 57.4327 75.3553 57.132 75.4756C56.8314 75.5959 56.5093 75.6554 56.1849 75.6507Z" stroke="#E71E5A" stroke-width="0.2" mask="url(#path-1-outside-1_1692_6859)"/>
<path d="M75.864 38.7135C74.8767 38.7135 73.9117 39.0023 73.0909 39.5432C72.27 40.0841 71.6302 40.8529 71.2525 41.7524C70.8747 42.6519 70.7758 43.6417 70.9684 44.5966C71.161 45.5515 71.6365 46.4286 72.3345 47.117C73.0326 47.8055 73.922 48.2743 74.8903 48.4643C75.8585 48.6542 76.862 48.5567 77.7741 48.1841C78.6861 47.8115 79.4658 47.1806 80.0143 46.3711C80.5627 45.5616 80.8554 44.6098 80.8554 43.6362C80.8554 42.3306 80.3296 41.0785 79.3935 40.1554C78.4574 39.2322 77.1878 38.7135 75.864 38.7135ZM75.864 46.0277C75.3836 46.0312 74.9131 45.8938 74.512 45.6332C74.1109 45.3725 73.7973 45.0002 73.611 44.5635C73.4248 44.1269 73.3743 43.6455 73.4658 43.1804C73.5574 42.7154 73.787 42.2876 74.1254 41.9514C74.4638 41.6152 74.8958 41.3857 75.3667 41.292C75.8375 41.1983 76.326 41.2446 76.7701 41.4251C77.2143 41.6056 77.594 41.9121 77.8613 42.3058C78.1285 42.6994 78.2712 43.1625 78.2712 43.6362C78.2713 44.2675 78.0181 44.8731 77.5672 45.3211C77.1163 45.7691 76.504 46.0231 75.864 46.0277Z" stroke="#E71E5A" stroke-width="0.2" mask="url(#path-1-outside-1_1692_6859)"/>
<path d="M75.864 53.5311C74.8767 53.5311 73.9117 53.8198 73.0909 54.3607C72.27 54.9016 71.6302 55.6705 71.2525 56.57C70.8747 57.4695 70.7758 58.4592 70.9684 59.4141C71.161 60.369 71.6365 61.2462 72.3345 61.9346C73.0326 62.6231 73.922 63.0919 74.8903 63.2818C75.8585 63.4718 76.862 63.3743 77.7741 63.0017C78.6861 62.6291 79.4658 61.9982 80.0143 61.1887C80.5627 60.3791 80.8554 59.4274 80.8554 58.4538C80.8554 57.1482 80.3296 55.8961 79.3935 54.9729C78.4574 54.0498 77.1878 53.5311 75.864 53.5311ZM75.864 60.8278C75.3829 60.8313 74.9117 60.6935 74.5102 60.4321C74.1087 60.1706 73.7951 59.7973 73.6094 59.3596C73.4237 58.9219 73.3741 58.4396 73.4671 57.9741C73.5601 57.5086 73.7915 57.0808 74.1316 56.7453C74.4718 56.4098 74.9056 56.1817 75.3776 56.09C75.8496 55.9983 76.3386 56.0471 76.7824 56.2303C77.2263 56.4134 77.6048 56.7227 77.8699 57.1186C78.135 57.5146 78.2747 57.9793 78.2712 58.4538C78.2666 59.082 78.0115 59.6832 77.561 60.1274C77.1106 60.5717 76.501 60.8232 75.864 60.8278Z" stroke="#E71E5A" stroke-width="0.2" mask="url(#path-1-outside-1_1692_6859)"/>
<path d="M75.864 68.3365C74.8767 68.3365 73.9117 68.6253 73.0909 69.1662C72.27 69.7071 71.6302 70.4759 71.2525 71.3754C70.8747 72.2749 70.7758 73.2647 70.9684 74.2196C71.161 75.1745 71.6365 76.0516 72.3345 76.74C73.0326 77.4285 73.922 77.8973 74.8903 78.0873C75.8585 78.2772 76.862 78.1797 77.7741 77.8071C78.6861 77.4346 79.4658 76.8036 80.0143 75.9941C80.5627 75.1845 80.8554 74.2328 80.8554 73.2592C80.8554 71.9536 80.3296 70.7015 79.3935 69.7784C78.4574 68.8552 77.1878 68.3365 75.864 68.3365ZM75.864 75.6507C75.3836 75.6542 74.9131 75.5168 74.512 75.2562C74.1109 74.9955 73.7973 74.6232 73.611 74.1865C73.4248 73.7499 73.3743 73.2685 73.4658 72.8034C73.5574 72.3384 73.787 71.9106 74.1254 71.5744C74.4638 71.2382 74.8958 71.0087 75.3667 70.915C75.8375 70.8213 76.326 70.8676 76.7701 71.0481C77.2143 71.2286 77.594 71.5351 77.8613 71.9288C78.1285 72.3224 78.2712 72.7855 78.2712 73.2592C78.2713 73.8905 78.0181 74.4961 77.5672 74.9441C77.1163 75.3921 76.504 75.6461 75.864 75.6507Z" stroke="#E71E5A" stroke-width="0.2" mask="url(#path-1-outside-1_1692_6859)"/>
</svg>
