<svg width="90" height="90" viewBox="0 0 90 90" fill="none" xmlns="http://www.w3.org/2000/svg">
<mask id="path-1-outside-1_1692_6858" maskUnits="userSpaceOnUse" x="3" y="3" width="84" height="84" fill="black">
<rect fill="white" x="3" y="3" width="84" height="84"/>
<path d="M65.6374 57.214H37.0579C36.8831 57.1935 36.7059 57.2101 36.5379 57.263C36.37 57.3158 36.2151 57.4036 36.0835 57.5206C35.952 57.6376 35.8467 57.7812 35.7746 57.9418C35.7025 58.1024 35.6652 58.2765 35.6652 58.4526C35.6652 58.6286 35.7025 58.8027 35.7746 58.9633C35.8467 59.124 35.952 59.2675 36.0835 59.3845C36.2151 59.5015 36.37 59.5893 36.5379 59.6421C36.7059 59.695 36.8831 59.7116 37.0579 59.6911H65.6374C65.8123 59.7116 65.9895 59.695 66.1575 59.6421C66.3254 59.5893 66.4803 59.5015 66.6118 59.3845C66.7434 59.2675 66.8487 59.124 66.9208 58.9633C66.9929 58.8027 67.0302 58.6286 67.0302 58.4526C67.0302 58.2765 66.9929 58.1024 66.9208 57.9418C66.8487 57.7812 66.7434 57.6376 66.6118 57.5206C66.4803 57.4036 66.3254 57.3158 66.1575 57.263C65.9895 57.2101 65.8123 57.1935 65.6374 57.214Z"/>
<path d="M58.003 65.3799H37.0595C36.7288 65.3799 36.4116 65.5113 36.1777 65.7451C35.9438 65.979 35.8125 66.2962 35.8125 66.6269C35.8125 66.9577 35.9438 67.2749 36.1777 67.5088C36.4116 67.7427 36.7288 67.874 37.0595 67.874H58.003C58.3337 67.874 58.6509 67.7427 58.8848 67.5088C59.1187 67.2749 59.25 66.9577 59.25 66.6269C59.25 66.2962 59.1187 65.979 58.8848 65.7451C58.6509 65.5113 58.3337 65.3799 58.003 65.3799Z"/>
<path d="M82.276 16.6075H78.5348V5.24705C78.5349 4.91924 78.4058 4.60464 78.1756 4.37125C77.9455 4.13786 77.6326 4.00449 77.3049 4H12.0828C11.7521 4 11.4349 4.13138 11.201 4.36525C10.9671 4.59913 10.8358 4.9163 10.8358 5.24705V13.3616C8.93245 13.6548 7.19689 14.6195 5.94308 16.0812C4.68927 17.543 4 19.4052 4 21.331C4 23.2569 4.68927 25.1191 5.94308 26.5808C7.19689 28.0426 8.93245 29.0073 10.8358 29.3004V37.0392C8.93245 37.3323 7.19689 38.297 5.94308 39.7587C4.68927 41.2205 4 43.0827 4 45.0085C4 46.9343 4.68927 48.7966 5.94308 50.2583C7.19689 51.72 8.93245 52.6847 10.8358 52.9779V60.6995C8.93245 60.9927 7.19689 61.9574 5.94308 63.4191C4.68927 64.8809 4 66.7431 4 68.6689C4 70.5948 4.68927 72.457 5.94308 73.9187C7.19689 75.3805 8.93245 76.3452 10.8358 76.6383V84.7529C10.8358 85.0836 10.9671 85.4008 11.201 85.6347C11.4349 85.8686 11.7521 86 12.0828 86H77.3049C77.6326 85.9955 77.9455 85.8621 78.1756 85.6288C78.4058 85.3954 78.5349 85.0807 78.5348 84.7529V41.72H82.276C83.2623 41.7155 84.2069 41.3217 84.9043 40.6242C85.6017 39.9268 85.9955 38.9821 86 37.9958V20.3317C85.9955 19.3453 85.6017 18.4007 84.9043 17.7032C84.2069 17.0058 83.2623 16.6119 82.276 16.6075ZM6.56508 21.3396C6.56717 20.0748 6.99708 18.8479 7.78487 17.8585C8.57266 16.8691 9.67201 16.1753 10.9041 15.89V26.7721C9.67339 26.4902 8.57446 25.7997 7.78649 24.8131C6.99851 23.8266 6.56796 22.6022 6.56508 21.3396ZM6.56508 45C6.56796 43.7374 6.99851 42.513 7.78649 41.5264C8.57446 40.5399 9.67339 39.8493 10.9041 39.5675V50.4325C9.67339 50.1506 8.57446 49.4601 7.78649 48.4735C6.99851 47.487 6.56796 46.2626 6.56508 45ZM6.56508 68.6775C6.56717 67.4127 6.99708 66.1859 7.78487 65.1965C8.57266 64.2071 9.67201 63.5132 10.9041 63.2279V74.1783C9.66192 73.8939 8.5543 73.1932 7.76506 72.1927C6.97583 71.1921 6.55242 69.9518 6.56508 68.6775ZM13.3982 76.6383C15.2996 76.3448 17.0333 75.3811 18.2864 73.9212C19.5395 72.4613 20.2294 70.6014 20.2313 68.6775C20.2313 68.3467 20.0999 68.0295 19.8661 67.7957C19.6322 67.5618 19.315 67.4304 18.9842 67.4304C18.6535 67.4304 18.3363 67.5618 18.1025 67.7957C17.8686 68.0295 17.7372 68.3467 17.7372 68.6775C17.7499 69.9518 17.3265 71.1921 16.5372 72.1927C15.748 73.1932 14.6404 73.8939 13.3982 74.1783V52.9779C15.2995 52.6774 17.0316 51.7093 18.2838 50.2473C19.5361 48.7853 20.2265 46.925 20.2313 45C20.2313 44.6693 20.0999 44.352 19.8661 44.1182C19.6322 43.8843 19.315 43.7529 18.9842 43.7529C18.6535 43.7529 18.3363 43.8843 18.1025 44.1182C17.8686 44.352 17.7372 44.6693 17.7372 45C17.7343 46.2626 17.3038 47.487 16.5158 48.4735C15.7278 49.4601 14.6289 50.1506 13.3982 50.4325V29.3004C15.2981 29.0036 17.0299 28.039 18.2824 26.5798C19.5349 25.1206 20.2259 23.2626 20.2313 21.3396C20.2313 21.0088 20.0999 20.6916 19.8661 20.4577C19.6322 20.2239 19.315 20.0925 18.9842 20.0925C18.6535 20.0925 18.3363 20.2239 18.1025 20.4577C17.8686 20.6916 17.7372 21.0088 17.7372 21.3396C17.7343 22.6022 17.3038 23.8266 16.5158 24.8131C15.7278 25.7997 14.6289 26.4902 13.3982 26.7721V6.49415H24.2116V83.5229H13.3982V76.6383ZM76.1262 83.4716H26.6373V6.49415H76.0578V83.5229L76.1262 83.4716ZM83.4376 37.9446C83.4376 38.2724 83.3086 38.587 83.0784 38.8204C82.8482 39.0538 82.5354 39.1871 82.2076 39.1916H78.4665V19.0846H82.2076C82.5354 19.0891 82.8482 19.2224 83.0784 19.4558C83.3086 19.6892 83.4376 20.0039 83.4376 20.3317V37.9446Z"/>
<path d="M51.3377 48.6732C54.1664 48.6765 56.9325 47.8408 59.2861 46.2717C61.6397 44.7026 63.475 42.4706 64.5598 39.8582C65.6446 37.2457 65.9302 34.3702 65.3804 31.5954C64.8307 28.8206 63.4703 26.2712 61.4713 24.2697C59.4723 22.2683 56.9246 20.9048 54.1506 20.3517C51.3765 19.7986 48.5007 20.0807 45.8871 21.1625C43.2734 22.2442 41.0393 24.0769 39.4674 26.4287C37.8955 28.7804 37.0565 31.5457 37.0565 34.3744C37.061 38.1623 38.5666 41.7941 41.2434 44.4741C43.9201 47.1542 47.5499 48.6641 51.3377 48.6732ZM51.3377 22.5698C53.6731 22.5665 55.957 23.2559 57.9004 24.5509C59.8439 25.846 61.3595 27.6884 62.2556 29.8451C63.1516 32.0018 63.3878 34.3759 62.9343 36.6669C62.4807 38.9579 61.3579 41.0628 59.7077 42.7154C58.0575 44.368 55.9542 45.494 53.664 45.9509C51.3737 46.4077 48.9994 46.175 46.8415 45.282C44.6836 44.3891 42.839 42.8761 41.5412 40.9345C40.2434 38.9929 39.5506 36.7099 39.5506 34.3744C39.5551 31.248 40.7979 28.2507 43.0069 26.0383C45.216 23.826 48.2114 22.5789 51.3377 22.5698Z"/>
<path d="M45.1388 35.6191H50.1099V40.5903C50.0893 40.7652 50.106 40.9424 50.1589 41.1104C50.2117 41.2783 50.2995 41.4332 50.4165 41.5648C50.5335 41.6963 50.677 41.8016 50.8377 41.8737C50.9983 41.9458 51.1723 41.9831 51.3484 41.9831C51.5245 41.9831 51.6985 41.9458 51.8591 41.8737C52.0198 41.8016 52.1633 41.6963 52.2803 41.5648C52.3973 41.4332 52.4851 41.2783 52.538 41.1104C52.5908 40.9424 52.6075 40.7652 52.5869 40.5903V35.6191H57.558C57.8887 35.6191 58.2059 35.4877 58.4398 35.2538C58.6736 35.0199 58.805 34.7028 58.805 34.372C58.805 34.0413 58.6736 33.724 58.4398 33.4902C58.2059 33.2563 57.8887 33.1249 57.558 33.1249H52.5869V28.1708C52.6075 27.9959 52.5908 27.8187 52.538 27.6507C52.4851 27.4828 52.3973 27.3279 52.2803 27.1963C52.1633 27.0647 52.0198 26.9595 51.8591 26.8874C51.6985 26.8153 51.5245 26.7779 51.3484 26.7779C51.1723 26.7779 50.9983 26.8153 50.8377 26.8874C50.677 26.9595 50.5335 27.0647 50.4165 27.1963C50.2995 27.3279 50.2117 27.4828 50.1589 27.6507C50.106 27.8187 50.0893 27.9959 50.1099 28.1708V33.1762H45.1388C44.808 33.1762 44.4909 33.3075 44.257 33.5414C44.0232 33.7753 43.8918 34.0925 43.8918 34.4233C43.8918 34.754 44.0232 35.0712 44.257 35.3051C44.4909 35.5389 44.808 35.6703 45.1388 35.6703V35.6191Z"/>
</mask>
<path d="M65.6374 57.214H37.0579C36.8831 57.1935 36.7059 57.2101 36.5379 57.263C36.37 57.3158 36.2151 57.4036 36.0835 57.5206C35.952 57.6376 35.8467 57.7812 35.7746 57.9418C35.7025 58.1024 35.6652 58.2765 35.6652 58.4526C35.6652 58.6286 35.7025 58.8027 35.7746 58.9633C35.8467 59.124 35.952 59.2675 36.0835 59.3845C36.2151 59.5015 36.37 59.5893 36.5379 59.6421C36.7059 59.695 36.8831 59.7116 37.0579 59.6911H65.6374C65.8123 59.7116 65.9895 59.695 66.1575 59.6421C66.3254 59.5893 66.4803 59.5015 66.6118 59.3845C66.7434 59.2675 66.8487 59.124 66.9208 58.9633C66.9929 58.8027 67.0302 58.6286 67.0302 58.4526C67.0302 58.2765 66.9929 58.1024 66.9208 57.9418C66.8487 57.7812 66.7434 57.6376 66.6118 57.5206C66.4803 57.4036 66.3254 57.3158 66.1575 57.263C65.9895 57.2101 65.8123 57.1935 65.6374 57.214Z" fill="#E71E5A"/>
<path d="M58.003 65.3799H37.0595C36.7288 65.3799 36.4116 65.5113 36.1777 65.7451C35.9438 65.979 35.8125 66.2962 35.8125 66.6269C35.8125 66.9577 35.9438 67.2749 36.1777 67.5088C36.4116 67.7427 36.7288 67.874 37.0595 67.874H58.003C58.3337 67.874 58.6509 67.7427 58.8848 67.5088C59.1187 67.2749 59.25 66.9577 59.25 66.6269C59.25 66.2962 59.1187 65.979 58.8848 65.7451C58.6509 65.5113 58.3337 65.3799 58.003 65.3799Z" fill="#E71E5A"/>
<path d="M82.276 16.6075H78.5348V5.24705C78.5349 4.91924 78.4058 4.60464 78.1756 4.37125C77.9455 4.13786 77.6326 4.00449 77.3049 4H12.0828C11.7521 4 11.4349 4.13138 11.201 4.36525C10.9671 4.59913 10.8358 4.9163 10.8358 5.24705V13.3616C8.93245 13.6548 7.19689 14.6195 5.94308 16.0812C4.68927 17.543 4 19.4052 4 21.331C4 23.2569 4.68927 25.1191 5.94308 26.5808C7.19689 28.0426 8.93245 29.0073 10.8358 29.3004V37.0392C8.93245 37.3323 7.19689 38.297 5.94308 39.7587C4.68927 41.2205 4 43.0827 4 45.0085C4 46.9343 4.68927 48.7966 5.94308 50.2583C7.19689 51.72 8.93245 52.6847 10.8358 52.9779V60.6995C8.93245 60.9927 7.19689 61.9574 5.94308 63.4191C4.68927 64.8809 4 66.7431 4 68.6689C4 70.5948 4.68927 72.457 5.94308 73.9187C7.19689 75.3805 8.93245 76.3452 10.8358 76.6383V84.7529C10.8358 85.0836 10.9671 85.4008 11.201 85.6347C11.4349 85.8686 11.7521 86 12.0828 86H77.3049C77.6326 85.9955 77.9455 85.8621 78.1756 85.6288C78.4058 85.3954 78.5349 85.0807 78.5348 84.7529V41.72H82.276C83.2623 41.7155 84.2069 41.3217 84.9043 40.6242C85.6017 39.9268 85.9955 38.9821 86 37.9958V20.3317C85.9955 19.3453 85.6017 18.4007 84.9043 17.7032C84.2069 17.0058 83.2623 16.6119 82.276 16.6075ZM6.56508 21.3396C6.56717 20.0748 6.99708 18.8479 7.78487 17.8585C8.57266 16.8691 9.67201 16.1753 10.9041 15.89V26.7721C9.67339 26.4902 8.57446 25.7997 7.78649 24.8131C6.99851 23.8266 6.56796 22.6022 6.56508 21.3396ZM6.56508 45C6.56796 43.7374 6.99851 42.513 7.78649 41.5264C8.57446 40.5399 9.67339 39.8493 10.9041 39.5675V50.4325C9.67339 50.1506 8.57446 49.4601 7.78649 48.4735C6.99851 47.487 6.56796 46.2626 6.56508 45ZM6.56508 68.6775C6.56717 67.4127 6.99708 66.1859 7.78487 65.1965C8.57266 64.2071 9.67201 63.5132 10.9041 63.2279V74.1783C9.66192 73.8939 8.5543 73.1932 7.76506 72.1927C6.97583 71.1921 6.55242 69.9518 6.56508 68.6775ZM13.3982 76.6383C15.2996 76.3448 17.0333 75.3811 18.2864 73.9212C19.5395 72.4613 20.2294 70.6014 20.2313 68.6775C20.2313 68.3467 20.0999 68.0295 19.8661 67.7957C19.6322 67.5618 19.315 67.4304 18.9842 67.4304C18.6535 67.4304 18.3363 67.5618 18.1025 67.7957C17.8686 68.0295 17.7372 68.3467 17.7372 68.6775C17.7499 69.9518 17.3265 71.1921 16.5372 72.1927C15.748 73.1932 14.6404 73.8939 13.3982 74.1783V52.9779C15.2995 52.6774 17.0316 51.7093 18.2838 50.2473C19.5361 48.7853 20.2265 46.925 20.2313 45C20.2313 44.6693 20.0999 44.352 19.8661 44.1182C19.6322 43.8843 19.315 43.7529 18.9842 43.7529C18.6535 43.7529 18.3363 43.8843 18.1025 44.1182C17.8686 44.352 17.7372 44.6693 17.7372 45C17.7343 46.2626 17.3038 47.487 16.5158 48.4735C15.7278 49.4601 14.6289 50.1506 13.3982 50.4325V29.3004C15.2981 29.0036 17.0299 28.039 18.2824 26.5798C19.5349 25.1206 20.2259 23.2626 20.2313 21.3396C20.2313 21.0088 20.0999 20.6916 19.8661 20.4577C19.6322 20.2239 19.315 20.0925 18.9842 20.0925C18.6535 20.0925 18.3363 20.2239 18.1025 20.4577C17.8686 20.6916 17.7372 21.0088 17.7372 21.3396C17.7343 22.6022 17.3038 23.8266 16.5158 24.8131C15.7278 25.7997 14.6289 26.4902 13.3982 26.7721V6.49415H24.2116V83.5229H13.3982V76.6383ZM76.1262 83.4716H26.6373V6.49415H76.0578V83.5229L76.1262 83.4716ZM83.4376 37.9446C83.4376 38.2724 83.3086 38.587 83.0784 38.8204C82.8482 39.0538 82.5354 39.1871 82.2076 39.1916H78.4665V19.0846H82.2076C82.5354 19.0891 82.8482 19.2224 83.0784 19.4558C83.3086 19.6892 83.4376 20.0039 83.4376 20.3317V37.9446Z" fill="#E71E5A"/>
<path d="M51.3377 48.6732C54.1664 48.6765 56.9325 47.8408 59.2861 46.2717C61.6397 44.7026 63.475 42.4706 64.5598 39.8582C65.6446 37.2457 65.9302 34.3702 65.3804 31.5954C64.8307 28.8206 63.4703 26.2712 61.4713 24.2697C59.4723 22.2683 56.9246 20.9048 54.1506 20.3517C51.3765 19.7986 48.5007 20.0807 45.8871 21.1625C43.2734 22.2442 41.0393 24.0769 39.4674 26.4287C37.8955 28.7804 37.0565 31.5457 37.0565 34.3744C37.061 38.1623 38.5666 41.7941 41.2434 44.4741C43.9201 47.1542 47.5499 48.6641 51.3377 48.6732ZM51.3377 22.5698C53.6731 22.5665 55.957 23.2559 57.9004 24.5509C59.8439 25.846 61.3595 27.6884 62.2556 29.8451C63.1516 32.0018 63.3878 34.3759 62.9343 36.6669C62.4807 38.9579 61.3579 41.0628 59.7077 42.7154C58.0575 44.368 55.9542 45.494 53.664 45.9509C51.3737 46.4077 48.9994 46.175 46.8415 45.282C44.6836 44.3891 42.839 42.8761 41.5412 40.9345C40.2434 38.9929 39.5506 36.7099 39.5506 34.3744C39.5551 31.248 40.7979 28.2507 43.0069 26.0383C45.216 23.826 48.2114 22.5789 51.3377 22.5698Z" fill="#E71E5A"/>
<path d="M45.1388 35.6191H50.1099V40.5903C50.0893 40.7652 50.106 40.9424 50.1589 41.1104C50.2117 41.2783 50.2995 41.4332 50.4165 41.5648C50.5335 41.6963 50.677 41.8016 50.8377 41.8737C50.9983 41.9458 51.1723 41.9831 51.3484 41.9831C51.5245 41.9831 51.6985 41.9458 51.8591 41.8737C52.0198 41.8016 52.1633 41.6963 52.2803 41.5648C52.3973 41.4332 52.4851 41.2783 52.538 41.1104C52.5908 40.9424 52.6075 40.7652 52.5869 40.5903V35.6191H57.558C57.8887 35.6191 58.2059 35.4877 58.4398 35.2538C58.6736 35.0199 58.805 34.7028 58.805 34.372C58.805 34.0413 58.6736 33.724 58.4398 33.4902C58.2059 33.2563 57.8887 33.1249 57.558 33.1249H52.5869V28.1708C52.6075 27.9959 52.5908 27.8187 52.538 27.6507C52.4851 27.4828 52.3973 27.3279 52.2803 27.1963C52.1633 27.0647 52.0198 26.9595 51.8591 26.8874C51.6985 26.8153 51.5245 26.7779 51.3484 26.7779C51.1723 26.7779 50.9983 26.8153 50.8377 26.8874C50.677 26.9595 50.5335 27.0647 50.4165 27.1963C50.2995 27.3279 50.2117 27.4828 50.1589 27.6507C50.106 27.8187 50.0893 27.9959 50.1099 28.1708V33.1762H45.1388C44.808 33.1762 44.4909 33.3075 44.257 33.5414C44.0232 33.7753 43.8918 34.0925 43.8918 34.4233C43.8918 34.754 44.0232 35.0712 44.257 35.3051C44.4909 35.5389 44.808 35.6703 45.1388 35.6703V35.6191Z" fill="#E71E5A"/>
<path d="M65.6374 57.214H37.0579C36.8831 57.1935 36.7059 57.2101 36.5379 57.263C36.37 57.3158 36.2151 57.4036 36.0835 57.5206C35.952 57.6376 35.8467 57.7812 35.7746 57.9418C35.7025 58.1024 35.6652 58.2765 35.6652 58.4526C35.6652 58.6286 35.7025 58.8027 35.7746 58.9633C35.8467 59.124 35.952 59.2675 36.0835 59.3845C36.2151 59.5015 36.37 59.5893 36.5379 59.6421C36.7059 59.695 36.8831 59.7116 37.0579 59.6911H65.6374C65.8123 59.7116 65.9895 59.695 66.1575 59.6421C66.3254 59.5893 66.4803 59.5015 66.6118 59.3845C66.7434 59.2675 66.8487 59.124 66.9208 58.9633C66.9929 58.8027 67.0302 58.6286 67.0302 58.4526C67.0302 58.2765 66.9929 58.1024 66.9208 57.9418C66.8487 57.7812 66.7434 57.6376 66.6118 57.5206C66.4803 57.4036 66.3254 57.3158 66.1575 57.263C65.9895 57.2101 65.8123 57.1935 65.6374 57.214Z" stroke="white" stroke-width="0.1" mask="url(#path-1-outside-1_1692_6858)"/>
<path d="M58.003 65.3799H37.0595C36.7288 65.3799 36.4116 65.5113 36.1777 65.7451C35.9438 65.979 35.8125 66.2962 35.8125 66.6269C35.8125 66.9577 35.9438 67.2749 36.1777 67.5088C36.4116 67.7427 36.7288 67.874 37.0595 67.874H58.003C58.3337 67.874 58.6509 67.7427 58.8848 67.5088C59.1187 67.2749 59.25 66.9577 59.25 66.6269C59.25 66.2962 59.1187 65.979 58.8848 65.7451C58.6509 65.5113 58.3337 65.3799 58.003 65.3799Z" stroke="white" stroke-width="0.1" mask="url(#path-1-outside-1_1692_6858)"/>
<path d="M82.276 16.6075H78.5348V5.24705C78.5349 4.91924 78.4058 4.60464 78.1756 4.37125C77.9455 4.13786 77.6326 4.00449 77.3049 4H12.0828C11.7521 4 11.4349 4.13138 11.201 4.36525C10.9671 4.59913 10.8358 4.9163 10.8358 5.24705V13.3616C8.93245 13.6548 7.19689 14.6195 5.94308 16.0812C4.68927 17.543 4 19.4052 4 21.331C4 23.2569 4.68927 25.1191 5.94308 26.5808C7.19689 28.0426 8.93245 29.0073 10.8358 29.3004V37.0392C8.93245 37.3323 7.19689 38.297 5.94308 39.7587C4.68927 41.2205 4 43.0827 4 45.0085C4 46.9343 4.68927 48.7966 5.94308 50.2583C7.19689 51.72 8.93245 52.6847 10.8358 52.9779V60.6995C8.93245 60.9927 7.19689 61.9574 5.94308 63.4191C4.68927 64.8809 4 66.7431 4 68.6689C4 70.5948 4.68927 72.457 5.94308 73.9187C7.19689 75.3805 8.93245 76.3452 10.8358 76.6383V84.7529C10.8358 85.0836 10.9671 85.4008 11.201 85.6347C11.4349 85.8686 11.7521 86 12.0828 86H77.3049C77.6326 85.9955 77.9455 85.8621 78.1756 85.6288C78.4058 85.3954 78.5349 85.0807 78.5348 84.7529V41.72H82.276C83.2623 41.7155 84.2069 41.3217 84.9043 40.6242C85.6017 39.9268 85.9955 38.9821 86 37.9958V20.3317C85.9955 19.3453 85.6017 18.4007 84.9043 17.7032C84.2069 17.0058 83.2623 16.6119 82.276 16.6075ZM6.56508 21.3396C6.56717 20.0748 6.99708 18.8479 7.78487 17.8585C8.57266 16.8691 9.67201 16.1753 10.9041 15.89V26.7721C9.67339 26.4902 8.57446 25.7997 7.78649 24.8131C6.99851 23.8266 6.56796 22.6022 6.56508 21.3396ZM6.56508 45C6.56796 43.7374 6.99851 42.513 7.78649 41.5264C8.57446 40.5399 9.67339 39.8493 10.9041 39.5675V50.4325C9.67339 50.1506 8.57446 49.4601 7.78649 48.4735C6.99851 47.487 6.56796 46.2626 6.56508 45ZM6.56508 68.6775C6.56717 67.4127 6.99708 66.1859 7.78487 65.1965C8.57266 64.2071 9.67201 63.5132 10.9041 63.2279V74.1783C9.66192 73.8939 8.5543 73.1932 7.76506 72.1927C6.97583 71.1921 6.55242 69.9518 6.56508 68.6775ZM13.3982 76.6383C15.2996 76.3448 17.0333 75.3811 18.2864 73.9212C19.5395 72.4613 20.2294 70.6014 20.2313 68.6775C20.2313 68.3467 20.0999 68.0295 19.8661 67.7957C19.6322 67.5618 19.315 67.4304 18.9842 67.4304C18.6535 67.4304 18.3363 67.5618 18.1025 67.7957C17.8686 68.0295 17.7372 68.3467 17.7372 68.6775C17.7499 69.9518 17.3265 71.1921 16.5372 72.1927C15.748 73.1932 14.6404 73.8939 13.3982 74.1783V52.9779C15.2995 52.6774 17.0316 51.7093 18.2838 50.2473C19.5361 48.7853 20.2265 46.925 20.2313 45C20.2313 44.6693 20.0999 44.352 19.8661 44.1182C19.6322 43.8843 19.315 43.7529 18.9842 43.7529C18.6535 43.7529 18.3363 43.8843 18.1025 44.1182C17.8686 44.352 17.7372 44.6693 17.7372 45C17.7343 46.2626 17.3038 47.487 16.5158 48.4735C15.7278 49.4601 14.6289 50.1506 13.3982 50.4325V29.3004C15.2981 29.0036 17.0299 28.039 18.2824 26.5798C19.5349 25.1206 20.2259 23.2626 20.2313 21.3396C20.2313 21.0088 20.0999 20.6916 19.8661 20.4577C19.6322 20.2239 19.315 20.0925 18.9842 20.0925C18.6535 20.0925 18.3363 20.2239 18.1025 20.4577C17.8686 20.6916 17.7372 21.0088 17.7372 21.3396C17.7343 22.6022 17.3038 23.8266 16.5158 24.8131C15.7278 25.7997 14.6289 26.4902 13.3982 26.7721V6.49415H24.2116V83.5229H13.3982V76.6383ZM76.1262 83.4716H26.6373V6.49415H76.0578V83.5229L76.1262 83.4716ZM83.4376 37.9446C83.4376 38.2724 83.3086 38.587 83.0784 38.8204C82.8482 39.0538 82.5354 39.1871 82.2076 39.1916H78.4665V19.0846H82.2076C82.5354 19.0891 82.8482 19.2224 83.0784 19.4558C83.3086 19.6892 83.4376 20.0039 83.4376 20.3317V37.9446Z" stroke="white" stroke-width="0.1" mask="url(#path-1-outside-1_1692_6858)"/>
<path d="M51.3377 48.6732C54.1664 48.6765 56.9325 47.8408 59.2861 46.2717C61.6397 44.7026 63.475 42.4706 64.5598 39.8582C65.6446 37.2457 65.9302 34.3702 65.3804 31.5954C64.8307 28.8206 63.4703 26.2712 61.4713 24.2697C59.4723 22.2683 56.9246 20.9048 54.1506 20.3517C51.3765 19.7986 48.5007 20.0807 45.8871 21.1625C43.2734 22.2442 41.0393 24.0769 39.4674 26.4287C37.8955 28.7804 37.0565 31.5457 37.0565 34.3744C37.061 38.1623 38.5666 41.7941 41.2434 44.4741C43.9201 47.1542 47.5499 48.6641 51.3377 48.6732ZM51.3377 22.5698C53.6731 22.5665 55.957 23.2559 57.9004 24.5509C59.8439 25.846 61.3595 27.6884 62.2556 29.8451C63.1516 32.0018 63.3878 34.3759 62.9343 36.6669C62.4807 38.9579 61.3579 41.0628 59.7077 42.7154C58.0575 44.368 55.9542 45.494 53.664 45.9509C51.3737 46.4077 48.9994 46.175 46.8415 45.282C44.6836 44.3891 42.839 42.8761 41.5412 40.9345C40.2434 38.9929 39.5506 36.7099 39.5506 34.3744C39.5551 31.248 40.7979 28.2507 43.0069 26.0383C45.216 23.826 48.2114 22.5789 51.3377 22.5698Z" stroke="white" stroke-width="0.1" mask="url(#path-1-outside-1_1692_6858)"/>
<path d="M45.1388 35.6191H50.1099V40.5903C50.0893 40.7652 50.106 40.9424 50.1589 41.1104C50.2117 41.2783 50.2995 41.4332 50.4165 41.5648C50.5335 41.6963 50.677 41.8016 50.8377 41.8737C50.9983 41.9458 51.1723 41.9831 51.3484 41.9831C51.5245 41.9831 51.6985 41.9458 51.8591 41.8737C52.0198 41.8016 52.1633 41.6963 52.2803 41.5648C52.3973 41.4332 52.4851 41.2783 52.538 41.1104C52.5908 40.9424 52.6075 40.7652 52.5869 40.5903V35.6191H57.558C57.8887 35.6191 58.2059 35.4877 58.4398 35.2538C58.6736 35.0199 58.805 34.7028 58.805 34.372C58.805 34.0413 58.6736 33.724 58.4398 33.4902C58.2059 33.2563 57.8887 33.1249 57.558 33.1249H52.5869V28.1708C52.6075 27.9959 52.5908 27.8187 52.538 27.6507C52.4851 27.4828 52.3973 27.3279 52.2803 27.1963C52.1633 27.0647 52.0198 26.9595 51.8591 26.8874C51.6985 26.8153 51.5245 26.7779 51.3484 26.7779C51.1723 26.7779 50.9983 26.8153 50.8377 26.8874C50.677 26.9595 50.5335 27.0647 50.4165 27.1963C50.2995 27.3279 50.2117 27.4828 50.1589 27.6507C50.106 27.8187 50.0893 27.9959 50.1099 28.1708V33.1762H45.1388C44.808 33.1762 44.4909 33.3075 44.257 33.5414C44.0232 33.7753 43.8918 34.0925 43.8918 34.4233C43.8918 34.754 44.0232 35.0712 44.257 35.3051C44.4909 35.5389 44.808 35.6703 45.1388 35.6703V35.6191Z" stroke="white" stroke-width="0.1" mask="url(#path-1-outside-1_1692_6858)"/>
</svg>
