<svg width="32" height="32" viewBox="0 0 32 32" fill="none" xmlns="http://www.w3.org/2000/svg">
<path d="M2.873 13.0332C2.61521 13.2414 2.57502 13.6192 2.78324 13.877C2.99145 14.1348 3.36922 14.175 3.627 13.9668L2.873 13.0332ZM16.25 3L16.6359 2.54058C16.4161 2.35594 16.0963 2.35286 15.873 2.53324L16.25 3ZM24.85 5.5C24.85 5.16863 24.5814 4.9 24.25 4.9C23.9186 4.9 23.65 5.16863 23.65 5.5H24.85ZM5.85 16.5C5.85 16.1686 5.58137 15.9 5.25 15.9C4.91863 15.9 4.65 16.1686 4.65 16.5H5.85ZM5.25 29H4.65C4.65 29.3314 4.91863 29.6 5.25 29.6V29ZM27.25 29V29.6C27.5814 29.6 27.85 29.3314 27.85 29H27.25ZM27.25 12.24L27.6359 11.7806L27.6359 11.7806L27.25 12.24ZM28.3641 13.9594C28.6178 14.1726 28.9963 14.1396 29.2094 13.8859C29.4226 13.6322 29.3896 13.2537 29.1359 13.0406L28.3641 13.9594ZM11.65 29C11.65 29.3314 11.9186 29.6 12.25 29.6C12.5814 29.6 12.85 29.3314 12.85 29H11.65ZM12.25 16.5V15.9C11.9186 15.9 11.65 16.1686 11.65 16.5H12.25ZM20.25 16.5H20.85C20.85 16.1686 20.5814 15.9 20.25 15.9V16.5ZM19.65 29C19.65 29.3314 19.9186 29.6 20.25 29.6C20.5814 29.6 20.85 29.3314 20.85 29H19.65ZM3.627 13.9668L16.627 3.46676L15.873 2.53324L2.873 13.0332L3.627 13.9668ZM15.8641 3.45942L23.8641 10.1794L24.6359 9.26058L16.6359 2.54058L15.8641 3.45942ZM23.65 5.5V9.72H24.85V5.5H23.65ZM4.65 16.5V29H5.85V16.5H4.65ZM5.25 29.6H27.25V28.4H5.25V29.6ZM23.8641 10.1794L26.8641 12.6994L27.6359 11.7806L24.6359 9.26058L23.8641 10.1794ZM26.8641 12.6994L28.3641 13.9594L29.1359 13.0406L27.6359 11.7806L26.8641 12.6994ZM27.85 29V12.24H26.65V29H27.85ZM12.85 29V16.5H11.65V29H12.85ZM12.25 17.1H20.25V15.9H12.25V17.1ZM19.65 16.5V29H20.85V16.5H19.65Z" fill="#E71E5A"/>
</svg>
