<svg width="17" height="17" viewBox="0 0 17 17" fill="none" xmlns="http://www.w3.org/2000/svg">
<path d="M2.12098 5.78703C0.961118 5.78703 0 6.6926 0 7.78551V14.9505C0 16.0432 0.961071 16.9433 2.12098 16.9433H3.13928C4.29914 16.9433 5.25424 16.0433 5.25424 14.9505C5.25497 14.7465 5.16989 14.5505 5.01721 14.4057C4.86471 14.2608 4.65737 14.1791 4.44075 14.1784C4.2232 14.1776 4.01423 14.2586 3.86047 14.4037C3.70651 14.5486 3.62052 14.7455 3.62124 14.9504C3.62124 15.2184 3.42229 15.4104 3.13915 15.4104H2.12103C1.83808 15.4104 1.63292 15.2184 1.63292 14.9504V7.78547C1.63292 7.51749 1.83789 7.32555 2.12103 7.32555H3.13933C3.42229 7.32555 3.62143 7.51748 3.62143 7.78547C3.62234 7.98959 3.70889 8.18496 3.86248 8.32864C4.01626 8.47233 4.22432 8.55267 4.44075 8.55198C4.65629 8.5513 4.86273 8.47027 5.0152 8.32658C5.16752 8.18306 5.25352 7.98855 5.25425 7.78548C5.25425 6.69261 4.29915 5.787 3.13929 5.787L2.12098 5.78703Z" fill="#E71E5A"/>
<path d="M7.95877 0.00195312C7.77603 0.00950702 7.6013 0.0745693 7.46245 0.186674C7.3238 0.298949 7.22906 0.451737 7.19353 0.620838C6.50755 3.90719 6.75297 4.61692 3.86735 7.69482C3.73653 7.83422 3.66365 8.01379 3.66256 8.20005V14.8143C3.66256 16.0121 4.71127 17.0001 5.98228 17.0001H12.7669C13.4119 17.0001 13.9905 16.7019 14.3577 16.313C14.7246 15.9242 14.9265 15.4684 15.0566 15.0129L16.9425 8.40437C17.1389 7.71666 16.8113 7.04332 16.352 6.64436C15.8927 6.24539 15.2984 6.01413 14.6528 6.01413H11.2364C11.5001 4.94596 11.7604 3.88315 11.6582 3.13567C11.5203 2.12709 11.0675 1.37104 10.5073 0.887431C9.3871 -0.0797917 7.95877 0.00195312 7.95877 0.00195312ZM8.59134 1.73362C8.87666 1.77963 9.06705 1.73173 9.40484 2.02323C9.68998 2.26942 9.94178 2.62889 10.0374 3.32899C10.1332 4.02909 10.0394 5.07336 9.53124 6.54806C9.45125 6.78205 9.4948 7.038 9.64857 7.23682C9.80235 7.43545 10.0476 7.55305 10.3085 7.55288H14.6528C14.8414 7.55288 15.1047 7.65382 15.2433 7.77434C15.382 7.89468 15.39 7.93091 15.3697 8.00146L13.4778 14.61C13.3913 14.9129 13.263 15.1615 13.1404 15.2914C13.0178 15.4212 12.9558 15.4617 12.7669 15.4617H5.98226C5.58543 15.4617 5.29535 15.1872 5.29535 14.8145V8.41599C7.69288 5.77116 8.10159 4.17928 8.59134 1.73362Z" fill="#E71E5A"/>
</svg>
