<svg width="67" height="57" viewBox="0 0 67 57" fill="none" xmlns="http://www.w3.org/2000/svg">
<path d="M61.7461 14.4279C61.7406 14.5337 61.7352 14.6356 61.7242 14.7328C61.7001 14.9421 61.6572 15.1389 61.5838 15.3917L61.5433 15.5239C61.5168 15.6235 61.4895 15.7145 61.4708 15.7612C61.438 15.8413 61.3928 15.9276 61.3522 16.0085C61.3085 16.0972 61.2625 16.1835 61.2251 16.2668C59.7486 18.9403 56.8846 21.4248 54.3552 23.6192C54.0908 23.8479 53.831 24.0711 53.5799 24.2952C50.7003 26.8093 48.2301 28.8348 48.206 28.8527C47.5765 29.3669 47.2692 30.1751 47.3933 30.974C47.5173 31.7767 48.057 32.4496 48.8128 32.7514C48.8128 32.7514 50.1442 33.2788 52.6814 34.2939C53.0487 34.4417 53.4535 34.5926 53.8802 34.7513C55.1297 35.218 56.5469 35.7423 57.4079 36.3514L57.454 36.3833C57.9235 36.717 58.4094 37.0593 58.7471 37.3821L58.8657 37.4972C59.0061 37.6294 59.1387 37.7562 59.2494 37.8776C59.3844 38.0254 59.5435 38.2245 59.662 38.3949C59.9701 38.8383 60.1698 39.2179 60.3531 39.7079C60.4771 40.0447 60.5715 40.4376 60.6448 40.9385C60.6526 41.0536 60.6612 41.1509 60.6721 41.2403C60.6908 41.4496 60.6986 41.5196 60.6799 41.8245L60.6744 41.9241C60.6612 42.1901 60.6471 42.4647 60.5637 42.7797L60.5317 42.9058C60.4771 43.1243 60.4365 43.2721 60.4123 43.3429C60.3858 43.4153 60.3585 43.4876 60.3367 43.563C60.3211 43.6035 60.3016 43.6439 60.2829 43.6844C60.2236 43.8159 60.1667 43.945 60.1206 44.0671C60.0941 44.1286 60.0021 44.2849 59.9428 44.3876L59.8453 44.5517C59.765 44.691 59.6971 44.7882 59.5676 44.9547C59.5052 45.0332 59.3461 45.2378 59.2518 45.3374C59.1168 45.4805 58.9226 45.6687 58.6715 45.8943C58.4445 46.1051 58.1801 46.2825 57.794 46.4956C57.2894 46.7671 56.7629 46.9608 56.2286 47.0713C56.2068 47.0767 56.1881 47.0798 56.1662 47.0845C55.8722 47.1545 55.451 47.1926 55.0486 47.1864C54.3872 47.1794 53.6532 47.0627 52.5948 46.799C52.4786 46.7694 52.3632 46.7399 52.2469 46.7049C52.1658 46.6839 52.0824 46.6598 52.0013 46.6318C51.9685 46.6248 51.9334 46.6139 51.8983 46.5999C51.8094 46.5726 51.7205 46.5431 51.6284 46.5112C51.6261 46.5112 51.623 46.5112 51.6175 46.5081C51.3664 46.4225 51.1129 46.3253 50.8617 46.2203C50.7159 46.1588 50.57 46.0942 50.425 46.0266C50.2814 45.962 50.1387 45.892 49.9952 45.822C49.9874 45.8173 49.9819 45.8142 49.9765 45.8111C49.8361 45.7388 49.6957 45.6656 49.5553 45.5878C49.5498 45.5855 49.5444 45.5824 49.5389 45.5801C49.3962 45.5015 49.2558 45.4214 49.1131 45.3343C48.9992 45.2674 48.8884 45.2005 48.7753 45.1273C48.6217 45.0332 48.4673 44.9337 48.3136 44.8286C48.2489 44.7851 48.1841 44.74 48.1194 44.6941C48.011 44.621 47.9057 44.5432 47.7981 44.4646C47.6577 44.3627 47.5149 44.2554 47.3745 44.1449C47.231 44.0344 47.0883 43.9185 46.9448 43.8003C46.813 43.6922 46.6804 43.5794 46.5486 43.4635C46.5291 43.4479 46.508 43.4308 46.4885 43.4129C46.3512 43.2908 46.2132 43.1671 46.0782 43.0411C45.941 42.9143 45.8029 42.7852 45.668 42.6506C45.5276 42.5129 45.3872 42.3737 45.2499 42.2274C45.1095 42.0851 44.9715 41.9396 44.8342 41.7895C44.8233 41.7778 44.81 41.7654 44.7991 41.7514C44.672 41.6137 44.548 41.4714 44.4239 41.329C44.2726 41.1563 44.1213 40.979 43.9731 40.7954C43.8702 40.674 43.7703 40.5504 43.6736 40.4243C43.6409 40.3839 43.6089 40.3458 43.5761 40.303C43.4576 40.1521 43.339 39.9957 43.2197 39.8402C43.2173 39.8347 43.2119 39.8262 43.2033 39.816C43.0848 39.6574 42.9685 39.4956 42.8523 39.3314C42.8391 39.3174 42.8281 39.2988 42.8149 39.2801C42.6909 39.1051 42.5669 38.9246 42.4452 38.7441C42.3344 38.58 42.2237 38.4159 42.1184 38.2486C41.8353 37.8122 41.5568 37.3603 41.2869 36.8889C41.1817 36.7061 41.0795 36.5202 40.9742 36.332C40.8548 36.1196 40.7394 35.901 40.6232 35.6778C40.5093 35.46 40.3986 35.2359 40.2855 35.0127C40.1451 34.7334 40.0078 34.4441 39.8752 34.1508C39.7941 33.9735 39.713 33.7953 39.6319 33.6156C39.908 33.1279 40.1833 32.6355 40.4555 32.1423C40.8096 31.5154 41.1629 30.883 41.5163 30.2474C43.4763 26.7315 45.3521 23.3687 47.2092 20.3405C47.7091 19.5276 48.2029 18.7412 48.6997 17.9789L49.2667 17.1038C51.5614 13.5691 53.3724 10.7781 55.4183 9.89756C55.9939 9.64942 56.7411 9.51796 57.3619 9.54985C58.3447 9.60119 59.233 9.92712 60.0052 10.5136C60.2205 10.6785 60.3991 10.8473 60.6229 11.0955C60.761 11.2487 60.8686 11.3864 60.963 11.528C61.2087 11.8998 61.4115 12.3043 61.5113 12.6022C61.6244 12.9554 61.6891 13.2408 61.7297 13.5536C61.7539 13.7364 61.7679 13.9059 61.7648 14.1727C61.757 14.2583 61.7515 14.3446 61.7461 14.4279ZM66.2839 12.9631C66.2059 12.3665 66.0811 11.822 65.8791 11.195C65.5928 10.3114 65.1334 9.52029 64.7988 9.0139C64.5805 8.68019 64.3324 8.36282 64.0407 8.03922C63.625 7.57328 63.2389 7.21624 62.7959 6.87631C61.2734 5.7165 59.5271 5.07787 57.6053 4.97597C56.2793 4.90907 54.8193 5.16966 53.5994 5.69394C50.2736 7.12367 48.1272 10.4296 45.4122 14.6161L44.8475 15.4835C44.8342 15.5021 44.8233 15.5208 44.8124 15.5402C44.3132 16.3049 43.8164 17.0936 43.325 17.9042C41.7378 20.4852 40.1583 23.2746 38.5282 26.1901C38.2147 26.7478 37.8996 27.3125 37.5837 27.8812C37.4402 27.3771 37.3053 26.8629 37.1781 26.3386C37.1188 26.1045 37.0627 25.8704 37.0112 25.6331C36.9543 25.3935 36.9005 25.1508 36.849 24.9089C36.7764 24.5643 36.7031 24.2197 36.636 23.8697C36.5658 23.5196 36.5011 23.1642 36.4387 22.8087C36.4091 22.629 36.3771 22.4485 36.3467 22.268C36.3069 22.0176 36.2663 21.7648 36.2281 21.5088C36.1423 20.9371 36.0636 20.3521 35.9934 19.7602C36.0121 19.7509 36.0316 19.7423 36.0503 19.7322C36.6906 19.3837 37.2663 18.9193 37.7615 18.353C40.1661 15.5994 40.2176 10.649 39.9064 7.27224C41.2877 6.46637 42.088 4.8624 41.783 3.20164C41.393 1.08039 39.3526 -0.323671 37.2265 0.0644867C35.0995 0.453422 33.6909 2.48756 34.0809 4.60881C34.3586 6.11866 35.4739 7.26135 36.8599 7.65651C37.1196 10.6715 37.0291 14.543 35.4528 16.3484C35.197 16.6417 34.9053 16.8782 34.5855 17.0516C34.3281 17.1917 34.0037 17.3083 33.7151 17.3643C33.0053 17.502 32.1809 17.3667 31.6162 17.019C29.5018 15.7176 28.0276 11.8967 27.2102 8.93066C28.2312 8.22591 28.9012 7.05133 28.9012 5.71961C28.9012 3.56257 27.1486 1.8147 24.9866 1.8147C22.8245 1.8147 21.0719 3.56257 21.0719 5.71961C21.0719 7.60595 22.4143 9.18036 24.1988 9.5444C25.0646 12.7936 26.839 17.6662 30.0087 19.6171C30.44 19.8823 30.9197 20.0861 31.4244 20.23C31.4509 20.4548 31.479 20.6789 31.507 20.9029C31.5554 21.2661 31.6037 21.6302 31.6583 21.9911C31.6903 22.2035 31.7231 22.4135 31.7551 22.6228C31.7636 22.6749 31.7714 22.7285 31.7824 22.7791C31.8143 22.9977 31.8526 23.2132 31.89 23.4279C31.9009 23.5064 31.9149 23.5842 31.9305 23.6628C31.9602 23.8323 31.9898 24.0019 32.0226 24.1707C32.0522 24.3325 32.0819 24.4943 32.1146 24.6538C32.3658 25.959 32.6598 27.2324 32.9913 28.4739C33.0482 28.6863 33.1075 28.8963 33.1668 29.1063C33.1722 29.1328 33.1808 29.1577 33.1886 29.1841C33.2424 29.3723 33.297 29.5614 33.3532 29.7465C33.4452 30.067 33.5427 30.382 33.6426 30.6971C33.6964 30.8697 33.7525 31.0417 33.8095 31.2112C33.8313 31.2812 33.8555 31.3512 33.8773 31.4189C33.9389 31.6017 34.0013 31.7845 34.0637 31.965C34.0661 31.9704 34.0661 31.9767 34.0684 31.9813C34.1472 32.2053 34.2283 32.4286 34.3086 32.6519C34.3843 32.8642 34.4631 33.0742 34.5442 33.2843C34.2579 33.7829 33.9717 34.2799 33.6855 34.7754C28.6048 43.5444 23.1903 51.5697 18.1666 52.3452C17.8265 52.3989 17.4833 52.4292 17.2135 52.4207C16.7978 52.4121 16.3984 52.3476 15.9882 52.2215C15.6426 52.1134 15.3049 51.9687 15.0351 51.81C14.7434 51.6397 14.5164 51.4787 14.3198 51.3029C13.8745 50.9069 13.5235 50.4713 13.2482 49.9673C12.9565 49.4321 12.7997 48.8938 12.7272 48.1696C12.6975 47.6469 12.735 47.1739 12.8434 46.7189C12.8972 46.484 12.9861 46.2343 13.0969 45.9324C14.9298 40.909 22.0586 36.7543 22.1288 36.7139C22.915 36.262 23.3603 35.3923 23.266 34.4907C23.1708 33.5915 22.5531 32.8292 21.6889 32.5523C21.6296 32.5305 15.6692 30.5975 9.53088 27.682C9.37957 27.6089 9.21499 27.5311 9.04496 27.4533C8.55359 27.2239 7.99748 26.9656 7.5412 26.7097C7.1442 26.4919 6.88525 26.2959 6.7394 26.1722L6.60759 26.0586C6.48279 25.9559 6.35878 25.8517 6.28079 25.7762C6.22931 25.7241 6.16769 25.6526 6.08892 25.5608L5.98674 25.4418C5.87287 25.3095 5.74339 25.1625 5.65994 25.0435C5.54918 24.8902 5.44701 24.7183 5.3113 24.4889C5.24656 24.3761 5.18728 24.2648 5.13658 24.1606C5.03363 23.9475 4.93925 23.7087 4.8363 23.3851C4.8207 23.3236 4.80432 23.2637 4.78794 23.2046L4.7661 23.1346C4.75518 23.0895 4.74504 23.0374 4.73412 22.9891C4.71775 22.9222 4.70449 22.8577 4.69045 22.8009C4.66081 22.6795 4.63663 22.4641 4.62571 22.3622L4.61011 22.2167C4.60699 22.1903 4.60153 22.1623 4.60153 22.1553L4.59919 22.1257C4.59919 22.023 4.59607 21.918 4.59061 21.8324L4.59373 21.7725C4.59373 21.7002 4.59607 21.6271 4.59373 21.5571C4.59607 21.5034 4.60153 21.4419 4.60699 21.382C4.61245 21.3097 4.61479 21.2397 4.62025 21.1806C4.62337 21.1479 4.62571 21.1184 4.63117 21.0865L4.64755 20.9573C4.65067 20.9324 4.65301 20.9083 4.65301 20.9029C4.67173 20.8165 4.68811 20.731 4.70137 20.6415L4.731 20.5069C4.7505 20.4237 4.77156 20.3405 4.78794 20.2541C4.80432 20.1896 4.8285 20.1219 4.84722 20.0573C4.90104 19.8932 4.94705 19.7641 4.99307 19.6513C5.128 19.3168 5.25514 19.0617 5.41191 18.8166C5.85181 18.1243 6.13493 17.8342 6.63957 17.4032C6.94765 17.1419 7.29005 16.9155 7.71981 16.6923C7.91948 16.5872 8.15971 16.4877 8.43503 16.3936C8.81253 16.2637 9.137 16.189 9.48252 16.1485C10.0332 16.0809 10.5565 16.0809 10.9886 16.14C11.2717 16.1812 11.4909 16.224 11.6797 16.2753L11.7522 16.2932C11.8068 16.3103 11.863 16.3236 11.9199 16.3422L12.0439 16.3827C12.0603 16.3881 12.0767 16.3936 12.093 16.399C12.1032 16.4045 12.1141 16.4068 12.1227 16.4099C12.1874 16.434 12.2678 16.4636 12.3247 16.4822V16.4853C13.4291 16.851 15.0569 18.2324 16.3633 19.344C16.7954 19.7073 17.2002 20.0542 17.6019 20.3778C22.2505 24.1357 25.7462 27.857 25.8032 27.9162C26.6666 28.8418 28.1189 28.894 29.0478 28.029C29.9736 27.1679 30.0251 25.7195 29.1609 24.793C29.0104 24.6312 25.414 20.8033 20.4932 16.8214C20.1344 16.5305 19.7484 16.2045 19.3404 15.8576C17.6565 14.4279 15.7503 12.8076 13.8121 12.1503L13.7934 12.1448C13.7879 12.1425 13.7824 12.1425 13.777 12.1402C13.7122 12.1122 13.6498 12.0912 13.5828 12.067C13.5235 12.0453 13.4588 12.0266 13.3886 12.0056C13.245 11.9566 13.0992 11.9161 12.9565 11.8765L12.8941 11.8594C12.5111 11.7543 12.1118 11.6742 11.6282 11.6065C10.7999 11.4914 9.89512 11.4883 8.94201 11.6011C8.26734 11.6797 7.63324 11.8275 6.94765 12.0616C6.44536 12.2343 6.00546 12.4202 5.5952 12.6326C4.8636 13.0153 4.22949 13.4353 3.66246 13.9199C2.89264 14.571 2.26945 15.2089 1.53239 16.3663C1.22431 16.851 0.970818 17.3519 0.730591 17.9493C0.647135 18.1593 0.568359 18.3802 0.479443 18.6525C0.417827 18.8407 0.342171 19.0749 0.287573 19.344L0.271974 19.4109C0.255595 19.484 0.236876 19.5572 0.220497 19.635C0.204118 19.7073 0.190858 19.7827 0.179939 19.8559L0.16668 19.9204C0.123002 20.1188 0.101943 20.2915 0.0855637 20.4323L0.0777641 20.5069C0.0582651 20.6446 0.0426659 20.7846 0.0372062 20.9107L0.0262867 21.0483C0.0153673 21.2125 0.00210798 21.3984 0.00444786 21.5975L0.00210798 21.6597C-0.00101186 21.778 -0.00101186 21.897 0.00444786 22.0176C0.0075677 22.0852 0.00990758 22.1553 0.00990758 22.2245V22.2548C0.0153673 22.4757 0.0372062 22.6554 0.0528054 22.776L0.0613849 22.8491C0.0964831 23.1642 0.139381 23.5064 0.225956 23.8697L0.253255 23.9856C0.274314 24.082 0.296153 24.1816 0.317992 24.2703C0.336711 24.3434 0.35543 24.408 0.374149 24.4725C0.379609 24.4943 0.388188 24.5184 0.393648 24.5425C0.406907 24.5939 0.420167 24.6429 0.436546 24.6903C0.614377 25.2644 0.795327 25.7327 1.00592 26.1636C1.10887 26.3713 1.22197 26.5837 1.3491 26.7984C1.53551 27.1142 1.70554 27.3997 1.92627 27.7085C2.12126 27.9807 2.33653 28.2335 2.5206 28.4443L2.59859 28.5385C2.72261 28.6808 2.87704 28.8589 3.07125 29.0495C3.2678 29.2409 3.46825 29.4105 3.64608 29.5583L3.75917 29.6555C4.20219 30.0328 4.72321 30.3882 5.3035 30.7111C5.90562 31.044 6.54285 31.3404 7.10442 31.6017C7.26354 31.6772 7.41485 31.7472 7.55524 31.8149C10.6704 33.2952 13.6935 34.5172 16.0123 35.3923C13.3854 37.4739 10.1439 40.6336 8.7829 44.365C8.63158 44.7804 8.48651 45.1896 8.37576 45.6633C8.16205 46.5625 8.08405 47.5154 8.14645 48.4955C8.14879 48.5196 8.15113 48.5406 8.15113 48.5655C8.28138 49.9253 8.62144 51.0687 9.22045 52.1624C9.74381 53.1231 10.4349 53.985 11.2663 54.7224C11.6875 55.0965 12.157 55.4334 12.7053 55.7562C13.2801 56.093 13.9447 56.3808 14.6248 56.5932C15.4453 56.8468 16.2877 56.9837 17.1355 56.9977C17.1807 57 17.2267 57 17.2728 57C17.8967 57 18.4794 56.93 18.8686 56.8709C25.2549 55.883 30.7083 48.7374 36.0963 39.7429C36.3576 39.2988 36.6251 38.8515 36.8895 38.3995C37.0135 38.6251 37.1383 38.8468 37.2647 39.0677C37.3458 39.2124 37.4324 39.3579 37.5158 39.5002C37.5244 39.5166 37.5346 39.5306 37.5431 39.5438C37.6508 39.7289 37.7615 39.9125 37.8746 40.093C38.0501 40.3784 38.2287 40.6561 38.4097 40.93C38.4955 41.0645 38.5852 41.1968 38.6741 41.329C38.7653 41.4636 38.8574 41.595 38.9494 41.7273C42.453 46.729 46.9073 50.1081 51.4857 51.2438C52.4895 51.4911 53.6907 51.7501 54.9947 51.7634C55.1406 51.7665 55.3075 51.7634 55.4885 51.7579C55.5345 51.7579 55.5805 51.7556 55.6265 51.7525C55.6912 51.7501 55.7583 51.7478 55.8262 51.7424C55.9042 51.7369 55.9853 51.7315 56.0664 51.7229C56.1148 51.7206 56.1639 51.7159 56.2146 51.7097C56.2583 51.7043 56.3012 51.6988 56.3472 51.6934C56.4954 51.6778 56.6498 51.6529 56.8035 51.6265C56.9275 51.6047 57.0546 51.5806 57.181 51.551C57.6645 51.4491 58.145 51.3114 58.6145 51.1387C58.847 51.0532 59.0786 50.959 59.3087 50.8533C59.538 50.7482 59.765 50.6355 59.9888 50.5149C60.4365 50.2722 61.1088 49.8794 61.7734 49.2734C62.1103 48.9661 62.3778 48.7048 62.5939 48.4761C62.8045 48.2528 63.0042 48.0055 63.1874 47.7713C63.3793 47.5232 63.5899 47.2408 63.8216 46.8371L63.8972 46.7134C64.0485 46.4544 64.2591 46.0997 64.4104 45.7006C64.4291 45.6524 64.451 45.6096 64.4697 45.563C64.5399 45.4074 64.6319 45.2028 64.7099 44.9578C64.802 44.7159 64.88 44.4273 64.9829 44.029L65.0016 43.9567C65.2068 43.178 65.2419 42.5401 65.2606 42.1574L65.266 42.0773C65.2988 41.4714 65.277 41.1672 65.2419 40.8008C65.2341 40.723 65.2255 40.639 65.2177 40.5325C65.2146 40.4803 65.2091 40.4321 65.2013 40.3808C65.0796 39.5033 64.9072 38.7823 64.6538 38.1055C64.3379 37.2631 63.9651 36.5498 63.4308 35.7773C63.2904 35.5805 63.0042 35.1877 62.6446 34.798C62.4262 34.5553 62.2078 34.3476 62.0323 34.1811L61.927 34.0816C61.3413 33.5215 60.6877 33.0579 60.1074 32.6495L60.0614 32.6168C58.712 31.6608 56.9977 31.023 55.483 30.4598C55.0977 30.3175 54.7249 30.1774 54.3903 30.0452C54.2819 30.0024 54.1766 29.9596 54.0744 29.9192C54.838 29.2673 55.7022 28.5276 56.6038 27.738C56.8549 27.5202 57.1084 27.3001 57.3674 27.0737C60.0699 24.7308 63.4277 21.8184 65.2902 18.3942C65.3175 18.3484 65.3394 18.3001 65.3604 18.2511C65.3877 18.192 65.4197 18.1298 65.4524 18.0652C65.5304 17.9143 65.6248 17.7261 65.7114 17.5191C65.8331 17.2259 65.9087 16.9669 65.9625 16.7763L65.9898 16.679C66.1357 16.1781 66.2301 15.7261 66.2839 15.2571C66.3057 15.0883 66.3159 14.9047 66.3299 14.7219C66.3354 14.6434 66.3377 14.5632 66.3463 14.4847C66.3486 14.4395 66.351 14.3929 66.3541 14.3446C66.365 13.8437 66.3463 13.4322 66.2839 12.9631Z" fill="#E71B5A"/>
</svg>
