<svg width="143" height="33" viewBox="0 0 143 33" fill="none" xmlns="http://www.w3.org/2000/svg">
<path d="M49.566 10.4H56.55C56.922 10.4 57.186 10.544 57.342 10.832C57.498 11.12 57.468 11.414 57.252 11.714L50.106 21.884H56.928C57.072 21.884 57.198 21.938 57.306 22.046C57.426 22.154 57.486 22.286 57.486 22.442C57.486 22.598 57.426 22.73 57.306 22.838C57.198 22.946 57.072 23 56.928 23H49.602C49.23 23 48.966 22.856 48.81 22.568C48.654 22.28 48.684 21.986 48.9 21.686L56.064 11.498H49.566C49.41 11.498 49.278 11.444 49.17 11.336C49.062 11.228 49.008 11.096 49.008 10.94C49.008 10.796 49.062 10.67 49.17 10.562C49.278 10.454 49.41 10.4 49.566 10.4ZM63.9549 13.55C64.3989 13.55 64.8189 13.622 65.2149 13.766C65.6229 13.898 66.0009 14.108 66.3489 14.396C66.6969 14.684 66.9729 15.098 67.1769 15.638C67.3929 16.166 67.5009 16.784 67.5009 17.492V22.46C67.5009 22.628 67.4409 22.778 67.3209 22.91C67.2009 23.03 67.0569 23.09 66.8889 23.09C66.7209 23.09 66.5769 23.03 66.4569 22.91C66.3369 22.778 66.2769 22.628 66.2769 22.46V17.492C66.2769 16.556 66.0369 15.848 65.5569 15.368C65.0769 14.888 64.4469 14.648 63.6669 14.648C62.7909 14.648 62.0769 14.936 61.5249 15.512C60.9849 16.052 60.6489 16.682 60.5169 17.402V22.46C60.5169 22.628 60.4569 22.778 60.3369 22.91C60.2169 23.03 60.0729 23.09 59.9049 23.09C59.7369 23.09 59.5929 23.03 59.4729 22.91C59.3529 22.778 59.2929 22.628 59.2929 22.46V10.76C59.2809 10.508 59.3769 10.334 59.5809 10.238C59.7969 10.13 60.0069 10.13 60.2109 10.238C60.4269 10.334 60.5289 10.508 60.5169 10.76V15.836C60.6129 15.392 60.9669 14.906 61.5789 14.378C62.2029 13.826 62.9949 13.55 63.9549 13.55ZM73.21 23.144C72.766 23.144 72.34 23.078 71.932 22.946C71.536 22.802 71.164 22.586 70.816 22.298C70.468 22.01 70.186 21.602 69.97 21.074C69.766 20.534 69.664 19.91 69.664 19.202V14.234C69.664 14.066 69.724 13.922 69.844 13.802C69.964 13.67 70.108 13.604 70.276 13.604C70.444 13.604 70.588 13.67 70.708 13.802C70.828 13.922 70.888 14.066 70.888 14.234V19.202C70.888 20.138 71.128 20.846 71.608 21.326C72.088 21.806 72.718 22.046 73.498 22.046C74.362 22.046 75.076 21.764 75.64 21.2C76.18 20.636 76.516 20 76.648 19.292V14.234C76.648 14.066 76.708 13.922 76.828 13.802C76.948 13.67 77.092 13.604 77.26 13.604C77.428 13.604 77.572 13.67 77.692 13.802C77.812 13.922 77.872 14.066 77.872 14.234V22.478C77.872 22.646 77.812 22.796 77.692 22.928C77.572 23.048 77.428 23.108 77.26 23.108C77.092 23.108 76.948 23.048 76.828 22.928C76.708 22.796 76.648 22.646 76.648 22.478V20.858C76.552 21.29 76.198 21.782 75.586 22.334C74.95 22.874 74.158 23.144 73.21 23.144ZM84.5531 13.55C84.7811 13.55 84.9611 13.604 85.0931 13.712C85.2251 13.82 85.2911 13.964 85.2911 14.144C85.2911 14.54 85.0151 14.738 84.4631 14.738C83.6111 14.738 82.8911 15.014 82.3031 15.566C81.7151 16.094 81.3671 16.706 81.2591 17.402V22.46C81.2591 22.628 81.1991 22.778 81.0791 22.91C80.9591 23.03 80.8151 23.09 80.6471 23.09C80.4791 23.09 80.3351 23.03 80.2151 22.91C80.0951 22.778 80.0351 22.628 80.0351 22.46V14.216C80.0351 14.048 80.0951 13.904 80.2151 13.784C80.3351 13.652 80.4791 13.586 80.6471 13.586C80.8151 13.586 80.9591 13.652 81.0791 13.784C81.1991 13.904 81.2591 14.048 81.2591 14.216V15.836C81.3311 15.416 81.6791 14.93 82.3031 14.378C82.9271 13.826 83.6771 13.55 84.5531 13.55ZM89.8193 13.532C90.9473 13.532 91.9793 13.946 92.9153 14.774C93.8513 15.602 94.3193 16.712 94.3193 18.104C94.3193 18.572 94.0553 18.806 93.5273 18.806H86.5073C86.5793 19.85 86.9513 20.654 87.6233 21.218C88.2953 21.77 89.0873 22.046 89.9993 22.046C90.8873 22.046 91.6433 21.788 92.2673 21.272C92.5073 21.092 92.6873 21.002 92.8073 21.002C92.9513 21.002 93.0653 21.05 93.1493 21.146C93.2453 21.23 93.2933 21.344 93.2933 21.488C93.2933 21.656 93.1793 21.848 92.9513 22.064C92.1953 22.748 91.1993 23.09 89.9633 23.09C88.7153 23.09 87.6173 22.676 86.6693 21.848C85.7213 21.008 85.2473 19.832 85.2473 18.32C85.2473 17.552 85.3853 16.856 85.6613 16.232C85.9493 15.596 86.3153 15.092 86.7593 14.72C87.2153 14.336 87.7073 14.042 88.2353 13.838C88.7633 13.634 89.2913 13.532 89.8193 13.532ZM92.0333 15.458C91.3613 14.894 90.6233 14.612 89.8193 14.612C89.0153 14.612 88.2773 14.894 87.6053 15.458C86.9453 16.01 86.5793 16.796 86.5073 17.816H93.1313C93.0593 16.796 92.6933 16.01 92.0333 15.458ZM99.6471 17.906L103.733 22.136C103.913 22.328 103.955 22.538 103.859 22.766C103.775 22.982 103.613 23.09 103.373 23.09C103.205 23.09 103.067 23.036 102.959 22.928L98.8731 18.68L97.3431 20.228V22.46C97.3431 22.628 97.2831 22.778 97.1631 22.91C97.0431 23.03 96.8991 23.09 96.7311 23.09C96.5631 23.09 96.4191 23.03 96.2991 22.91C96.1791 22.778 96.1191 22.628 96.1191 22.46V10.76C96.1071 10.508 96.2031 10.334 96.4071 10.238C96.6231 10.13 96.8331 10.13 97.0371 10.238C97.2531 10.334 97.3551 10.508 97.3431 10.76V18.716L102.149 13.766C102.329 13.586 102.539 13.544 102.779 13.64C103.019 13.736 103.139 13.904 103.139 14.144C103.139 14.288 103.085 14.42 102.977 14.54L99.6471 17.906ZM115.784 10.778L120.734 22.19C120.77 22.274 120.788 22.376 120.788 22.496C120.788 22.652 120.728 22.79 120.608 22.91C120.5 23.03 120.362 23.09 120.194 23.09C119.906 23.09 119.702 22.958 119.582 22.694L118.196 19.472H112.13L110.744 22.694C110.636 22.958 110.432 23.09 110.132 23.09C109.964 23.09 109.82 23.03 109.7 22.91C109.592 22.79 109.538 22.652 109.538 22.496C109.538 22.4 109.562 22.298 109.61 22.19L114.56 10.778C114.692 10.466 114.896 10.31 115.172 10.31C115.448 10.31 115.652 10.466 115.784 10.778ZM115.172 12.416L112.58 18.446H117.764L115.172 12.416ZM127.094 13.532C128.222 13.532 129.248 13.958 130.172 14.81C131.096 15.662 131.558 16.832 131.558 18.32C131.558 19.82 131.096 20.996 130.172 21.848C129.248 22.7 128.222 23.126 127.094 23.126C126.338 23.126 125.654 22.928 125.042 22.532C124.442 22.136 124.01 21.614 123.746 20.966V22.478C123.746 22.55 123.74 22.598 123.728 22.622V25.88C123.74 26.132 123.638 26.306 123.422 26.402C123.218 26.51 123.008 26.51 122.792 26.402C122.588 26.306 122.492 26.132 122.504 25.88V14.216C122.504 14.048 122.564 13.904 122.684 13.784C122.804 13.652 122.954 13.586 123.134 13.586C123.302 13.586 123.446 13.652 123.566 13.784C123.686 13.904 123.746 14.048 123.746 14.216V15.53C124.034 14.906 124.478 14.42 125.078 14.072C125.69 13.712 126.362 13.532 127.094 13.532ZM124.682 21.074C125.342 21.722 126.104 22.046 126.968 22.046C127.832 22.046 128.606 21.722 129.29 21.074C129.986 20.414 130.334 19.496 130.334 18.32C130.334 17.144 129.986 16.232 129.29 15.584C128.606 14.936 127.832 14.612 126.968 14.612C126.104 14.612 125.336 14.93 124.664 15.566C124.004 16.19 123.674 17.108 123.674 18.32C123.674 19.484 124.01 20.402 124.682 21.074ZM137.588 13.532C138.716 13.532 139.742 13.958 140.666 14.81C141.59 15.662 142.052 16.832 142.052 18.32C142.052 19.82 141.59 20.996 140.666 21.848C139.742 22.7 138.716 23.126 137.588 23.126C136.832 23.126 136.148 22.928 135.536 22.532C134.936 22.136 134.504 21.614 134.24 20.966V22.478C134.24 22.55 134.234 22.598 134.222 22.622V25.88C134.234 26.132 134.132 26.306 133.916 26.402C133.712 26.51 133.502 26.51 133.286 26.402C133.082 26.306 132.986 26.132 132.998 25.88V14.216C132.998 14.048 133.058 13.904 133.178 13.784C133.298 13.652 133.448 13.586 133.628 13.586C133.796 13.586 133.94 13.652 134.06 13.784C134.18 13.904 134.24 14.048 134.24 14.216V15.53C134.528 14.906 134.972 14.42 135.572 14.072C136.184 13.712 136.856 13.532 137.588 13.532ZM135.176 21.074C135.836 21.722 136.598 22.046 137.462 22.046C138.326 22.046 139.1 21.722 139.784 21.074C140.48 20.414 140.828 19.496 140.828 18.32C140.828 17.144 140.48 16.232 139.784 15.584C139.1 14.936 138.326 14.612 137.462 14.612C136.598 14.612 135.83 14.93 135.158 15.566C134.498 16.19 134.168 17.108 134.168 18.32C134.168 19.484 134.504 20.402 135.176 21.074Z" fill="#E71E5A"/>
<path d="M36.4193 8.35298C36.4161 8.41423 36.4129 8.47323 36.4064 8.52952C36.3922 8.65066 36.3668 8.7646 36.3236 8.91096L36.2997 8.98752C36.284 9.04517 36.2679 9.09786 36.2569 9.12488C36.2376 9.17126 36.2109 9.22125 36.187 9.26809C36.1612 9.31943 36.1341 9.36942 36.112 9.4176C35.2411 10.9654 33.5519 12.4039 32.06 13.6743C31.904 13.8067 31.7508 13.9359 31.6027 14.0656C29.9042 15.5211 28.4473 16.6939 28.433 16.7042C28.0618 17.0019 27.8805 17.4698 27.9537 17.9323C28.0268 18.3971 28.3452 18.7866 28.7909 18.9613C28.7909 18.9613 29.5762 19.2667 31.0727 19.8544C31.2894 19.94 31.5282 20.0273 31.7798 20.1192C32.5168 20.3894 33.3527 20.6929 33.8606 21.0456L33.8877 21.064C34.1646 21.2572 34.4512 21.4554 34.6504 21.6423L34.7204 21.7089C34.8032 21.7855 34.8814 21.8589 34.9467 21.9291C35.0263 22.0147 35.1201 22.13 35.1901 22.2286C35.3718 22.4853 35.4896 22.7051 35.5977 22.9888C35.6708 23.1838 35.7265 23.4112 35.7697 23.7012C35.7743 23.7679 35.7794 23.8242 35.7858 23.876C35.7969 23.9971 35.8015 24.0377 35.7904 24.2142L35.7872 24.2718C35.7794 24.4259 35.7711 24.5848 35.7219 24.7672L35.703 24.8402C35.6708 24.9667 35.6469 25.0523 35.6326 25.0933C35.617 25.1351 35.6009 25.177 35.588 25.2207C35.5788 25.2441 35.5673 25.2675 35.5563 25.291C35.5213 25.3671 35.4877 25.4418 35.4606 25.5125C35.4449 25.5481 35.3906 25.6386 35.3557 25.6981L35.2982 25.7931C35.2508 25.8737 35.2108 25.93 35.1344 26.0264C35.0976 26.0719 35.0038 26.1903 34.9481 26.248C34.8685 26.3308 34.754 26.4398 34.6058 26.5704C34.4719 26.6924 34.316 26.7951 34.0883 26.9185C33.7906 27.0757 33.4801 27.1878 33.165 27.2518C33.1521 27.2549 33.1411 27.2567 33.1282 27.2594C32.9547 27.3 32.7063 27.322 32.4689 27.3184C32.0788 27.3144 31.6459 27.2468 31.0217 27.0942C30.9531 27.077 30.885 27.0599 30.8165 27.0397C30.7686 27.0275 30.7194 27.0135 30.6716 26.9973C30.6522 26.9933 30.6315 26.987 30.6108 26.9789C30.5584 26.9631 30.506 26.946 30.4517 26.9275C30.4503 26.9275 30.4485 26.9275 30.4452 26.9257C30.2971 26.8762 30.1476 26.8199 29.9995 26.7591C29.9134 26.7235 29.8274 26.6861 29.7418 26.647C29.6572 26.6096 29.573 26.5691 29.4883 26.5285C29.4837 26.5258 29.4805 26.524 29.4773 26.5222C29.3945 26.4803 29.3117 26.438 29.2289 26.393C29.2257 26.3916 29.2224 26.3898 29.2192 26.3885C29.135 26.343 29.0522 26.2966 28.968 26.2462C28.9009 26.2074 28.8356 26.1687 28.7688 26.1264C28.6782 26.0719 28.5871 26.0142 28.4965 25.9534C28.4583 25.9282 28.4201 25.9021 28.382 25.8755C28.318 25.8332 28.2559 25.7881 28.1924 25.7427C28.1096 25.6837 28.0254 25.6215 27.9426 25.5576C27.858 25.4936 27.7738 25.4265 27.6891 25.3581C27.6114 25.2955 27.5332 25.2302 27.4554 25.1631C27.4439 25.1541 27.4315 25.1442 27.42 25.1338C27.339 25.0631 27.2576 24.9915 27.178 24.9185C27.0971 24.8451 27.0156 24.7704 26.9361 24.6925C26.8532 24.6127 26.7704 24.5321 26.6895 24.4475C26.6067 24.3651 26.5252 24.2808 26.4443 24.1939C26.4378 24.1872 26.43 24.18 26.4236 24.1719C26.3486 24.0921 26.2754 24.0097 26.2023 23.9273C26.113 23.8273 26.0238 23.7247 25.9364 23.6184C25.8757 23.5481 25.8168 23.4765 25.7597 23.4036C25.7404 23.3801 25.7216 23.3581 25.7022 23.3333C25.6323 23.2459 25.5624 23.1554 25.492 23.0654C25.4906 23.0622 25.4874 23.0572 25.4823 23.0514C25.4124 22.9595 25.3439 22.8659 25.2753 22.7708C25.2675 22.7627 25.2611 22.7519 25.2532 22.7411C25.1801 22.6398 25.1069 22.5353 25.0352 22.4308C24.9698 22.3358 24.9045 22.2408 24.8424 22.1439C24.6754 21.8913 24.5112 21.6297 24.352 21.3567C24.2899 21.2509 24.2296 21.1433 24.1675 21.0343C24.0972 20.9113 24.0291 20.7848 23.9605 20.6556C23.8934 20.5295 23.828 20.3998 23.7613 20.2705C23.6785 20.1088 23.5976 19.9413 23.5193 19.7715C23.4715 19.6688 23.4237 19.5657 23.3758 19.4617C23.5387 19.1793 23.7011 18.8942 23.8616 18.6087C24.0705 18.2457 24.2789 17.8796 24.4873 17.5117C25.6433 15.4761 26.7497 13.5293 27.8451 11.7761C28.14 11.3055 28.4312 10.8502 28.7242 10.4088L29.0587 9.90218C30.4121 7.8558 31.4803 6.23996 32.687 5.73017C33.0265 5.5865 33.4672 5.5104 33.8334 5.52886C34.4131 5.55858 34.937 5.74728 35.3925 6.08684C35.5195 6.18231 35.6248 6.28004 35.7568 6.4237C35.8383 6.51242 35.9018 6.59213 35.9574 6.67409C36.1023 6.88936 36.2219 7.12354 36.2808 7.29602C36.3475 7.50048 36.3857 7.66575 36.4096 7.84679C36.4239 7.95263 36.4322 8.0508 36.4303 8.20527C36.4257 8.25481 36.4225 8.3048 36.4193 8.35298V8.35298ZM39.0958 7.50498C39.0498 7.15957 38.9762 6.84432 38.857 6.48134C38.6882 5.96975 38.4172 5.51175 38.2199 5.21857C38.0911 5.02537 37.9448 4.84163 37.7727 4.65429C37.5275 4.38453 37.2998 4.17782 37.0385 3.98102C36.1405 3.30955 35.1105 2.93982 33.9769 2.88082C33.1949 2.84209 32.3337 2.99296 31.6142 3.29649C29.6526 4.12423 28.3866 6.0382 26.7852 8.46197L26.4521 8.9641C26.4443 8.97491 26.4378 8.98572 26.4314 8.99698C26.137 9.43967 25.8439 9.89632 25.5541 10.3656C24.6179 11.8598 23.6863 13.4748 22.7249 15.1627C22.5399 15.4856 22.3541 15.8125 22.1678 16.1417C22.0831 15.8499 22.0035 15.5522 21.9285 15.2487C21.8936 15.1131 21.8604 14.9776 21.8301 14.8402C21.7965 14.7015 21.7648 14.561 21.7344 14.421C21.6916 14.2214 21.6484 14.0219 21.6088 13.8193C21.5674 13.6166 21.5292 13.4108 21.4924 13.205C21.4749 13.101 21.4561 12.9965 21.4381 12.892C21.4147 12.747 21.3907 12.6007 21.3682 12.4525C21.3176 12.1215 21.2711 11.7828 21.2297 11.4401C21.2408 11.4347 21.2523 11.4298 21.2633 11.4239C21.641 11.2221 21.9805 10.9533 22.2726 10.6254C23.6909 9.03121 23.7213 6.1652 23.5377 4.21025C24.3525 3.74369 24.8245 2.81507 24.6446 1.85358C24.4146 0.625487 23.2111 -0.187389 21.9571 0.0373344C20.7025 0.262508 19.8717 1.44016 20.1017 2.66826C20.2655 3.54238 20.9233 4.20394 21.7408 4.43272C21.894 6.17826 21.8407 8.41963 20.9109 9.46489C20.76 9.63467 20.588 9.77157 20.3994 9.872C20.2475 9.95306 20.0562 10.0206 19.886 10.053C19.4673 10.1328 18.9811 10.0544 18.648 9.85309C17.4008 9.09966 16.5314 6.88756 16.0492 5.17038C16.6514 4.76237 17.0466 4.08235 17.0466 3.31135C17.0466 2.06254 16.0129 1.05061 14.7377 1.05061C13.4624 1.05061 12.4287 2.06254 12.4287 3.31135C12.4287 4.40344 13.2205 5.31495 14.273 5.52571C14.7837 7.40681 15.8303 10.2278 17.6999 11.3572C17.9543 11.5108 18.2372 11.6288 18.5348 11.7121C18.5505 11.8423 18.567 11.972 18.5836 12.1017C18.6121 12.312 18.6406 12.5227 18.6728 12.7317C18.6917 12.8546 18.711 12.9762 18.7299 13.0974C18.7349 13.1276 18.7395 13.1586 18.746 13.1879C18.7648 13.3145 18.7874 13.4392 18.8095 13.5635C18.8159 13.609 18.8242 13.654 18.8334 13.6995C18.8509 13.7977 18.8684 13.8958 18.8877 13.9936C18.9052 14.0872 18.9226 14.1809 18.942 14.2732C19.0901 15.0289 19.2635 15.7661 19.459 16.4849C19.4926 16.6078 19.5276 16.7294 19.5626 16.851C19.5658 16.8663 19.5708 16.8807 19.5754 16.8961C19.6072 17.005 19.6394 17.1145 19.6725 17.2217C19.7268 17.4072 19.7843 17.5896 19.8432 17.772C19.8749 17.872 19.908 17.9715 19.9416 18.0697C19.9545 18.1102 19.9688 18.1507 19.9816 18.1899C20.018 18.2957 20.0548 18.4016 20.0916 18.506C20.093 18.5092 20.093 18.5128 20.0944 18.5155C20.1408 18.6452 20.1887 18.7745 20.236 18.9037C20.2807 19.0266 20.3271 19.1482 20.375 19.2698C20.2061 19.5585 20.0373 19.8463 19.8685 20.1331C16.8718 25.2099 13.6782 29.8561 10.7151 30.3051C10.5145 30.3362 10.3121 30.3538 10.1529 30.3488C9.90772 30.3439 9.67218 30.3065 9.4302 30.2335C9.2264 30.1709 9.0272 30.0872 8.86803 29.9953C8.69598 29.8967 8.56211 29.8034 8.44618 29.7017C8.18349 29.4724 7.97648 29.2202 7.81408 28.9284C7.64203 28.6186 7.54956 28.3069 7.50678 27.8877C7.48929 27.585 7.51138 27.3112 7.57532 27.0478C7.60706 26.9118 7.65951 26.7672 7.72483 26.5925C8.80593 23.6841 13.0107 21.2788 13.0521 21.2554C13.5158 20.9938 13.7785 20.4903 13.7228 19.9683C13.6667 19.4477 13.3023 19.0064 12.7926 18.8461C12.7577 18.8334 9.24204 17.7143 5.62154 16.0264C5.53229 15.9841 5.43522 15.9391 5.33493 15.894C5.04511 15.7612 4.7171 15.6117 4.44798 15.4635C4.21382 15.3374 4.06109 15.2239 3.97506 15.1523L3.89731 15.0866C3.82371 15.0271 3.75056 14.9668 3.70456 14.9231C3.67419 14.8929 3.63785 14.8515 3.59139 14.7983L3.53112 14.7294C3.46396 14.6529 3.38759 14.5678 3.33836 14.4989C3.27304 14.4101 3.21277 14.3106 3.13273 14.1778C3.09454 14.1125 3.05958 14.0481 3.02968 13.9877C2.96895 13.8643 2.91329 13.7261 2.85256 13.5387C2.84336 13.5031 2.8337 13.4685 2.82404 13.4342L2.81116 13.3937C2.80472 13.3676 2.79874 13.3374 2.7923 13.3095C2.78264 13.2708 2.77482 13.2334 2.76654 13.2005C2.74905 13.1303 2.73479 13.0055 2.72835 12.9465L2.71915 12.8623C2.71731 12.847 2.71409 12.8308 2.71409 12.8267L2.71271 12.8096C2.71271 12.7502 2.71087 12.6894 2.70765 12.6398L2.70949 12.6052C2.70949 12.5633 2.71087 12.5209 2.70949 12.4804C2.71087 12.4493 2.71409 12.4138 2.71731 12.3791C2.72053 12.3372 2.72191 12.2967 2.72513 12.2624C2.72697 12.2435 2.72835 12.2264 2.73157 12.2079L2.74123 12.1332C2.74307 12.1188 2.74445 12.1048 2.74445 12.1017C2.7555 12.0517 2.76516 12.0021 2.77298 11.9504L2.79046 11.8724C2.80196 11.8243 2.81438 11.7761 2.82404 11.7261C2.8337 11.6887 2.84796 11.6495 2.859 11.6121C2.89075 11.5171 2.91789 11.4424 2.94503 11.3771C3.02462 11.1834 3.0996 11.0357 3.19207 10.8938C3.45153 10.493 3.61853 10.3251 3.91617 10.0756C4.09789 9.92424 4.29985 9.79319 4.55333 9.66394C4.6711 9.60315 4.81279 9.5455 4.97518 9.49101C5.19784 9.4158 5.38922 9.37257 5.59301 9.34915C5.9178 9.30997 6.22649 9.30997 6.48135 9.3442C6.64834 9.36806 6.77761 9.39283 6.88894 9.42256L6.93173 9.43291C6.96393 9.44282 6.99705 9.45048 7.03064 9.46129L7.10378 9.4847C7.11344 9.48786 7.1231 9.49101 7.13276 9.49416C7.13874 9.49731 7.14519 9.49867 7.15025 9.50047C7.18843 9.51443 7.23581 9.53154 7.2694 9.54235V9.54415C7.92081 9.75581 8.88091 10.5556 9.65148 11.1992C9.90634 11.4095 10.1451 11.6103 10.382 11.7977C13.1238 13.9733 15.1857 16.1278 15.2193 16.162C15.7286 16.6979 16.5852 16.7281 17.1331 16.2273C17.6792 15.7288 17.7095 14.8902 17.1998 14.3539C17.111 14.2602 14.9898 12.044 12.0874 9.7387C11.8758 9.57027 11.648 9.38157 11.4074 9.18072C10.4142 8.35298 9.28989 7.41491 8.14669 7.03437L8.13565 7.03122C8.13243 7.02987 8.12921 7.02987 8.12599 7.02851C8.0878 7.0123 8.051 7.00014 8.01144 6.98618C7.97648 6.97357 7.93829 6.96276 7.89689 6.9506C7.81224 6.92223 7.72621 6.89881 7.64203 6.87585L7.60522 6.86594C7.37935 6.80514 7.14381 6.75876 6.85858 6.71958C6.37002 6.65293 5.83638 6.65112 5.27421 6.71642C4.87627 6.76191 4.50226 6.84748 4.09789 6.98303C3.80162 7.08301 3.54216 7.19064 3.30018 7.31358C2.86866 7.53515 2.49465 7.77834 2.16021 8.05891C1.70615 8.43585 1.33858 8.80513 0.903839 9.47525C0.722124 9.75581 0.572611 10.0458 0.43092 10.3917C0.381695 10.5133 0.335232 10.6412 0.282787 10.7988C0.246444 10.9078 0.20182 11.0434 0.169618 11.1992L0.160417 11.2379C0.150756 11.2802 0.139715 11.3226 0.130054 11.3676C0.120393 11.4095 0.112573 11.4532 0.106132 11.4955L0.0983115 11.5329C0.0725493 11.6477 0.0601283 11.7477 0.0504675 11.8292L0.0458671 11.8724C0.0343661 11.9522 0.0251654 12.0332 0.0219451 12.1062L0.0155045 12.1859C0.009064 12.2809 0.00124334 12.3885 0.00262346 12.5038L0.00124334 12.5399C-0.000596816 12.6083 -0.000596816 12.6772 0.00262346 12.747C0.00446361 12.7862 0.00584373 12.8267 0.00584373 12.8668V12.8844C0.009064 13.0123 0.0219451 13.1163 0.0311459 13.1861L0.0362063 13.2284C0.056908 13.4108 0.0822102 13.609 0.133274 13.8193L0.149376 13.8864C0.161797 13.9422 0.174678 13.9999 0.187559 14.0512C0.1986 14.0936 0.209641 14.1309 0.220682 14.1683C0.223902 14.1809 0.228963 14.1949 0.232183 14.2088C0.240003 14.2386 0.247824 14.2669 0.257485 14.2944C0.362374 14.6268 0.469103 14.8979 0.593313 15.1474C0.654038 15.2676 0.720744 15.3905 0.79573 15.5148C0.90568 15.6977 1.00597 15.863 1.13616 16.0417C1.25117 16.1994 1.37814 16.3457 1.48671 16.4678L1.53271 16.5223C1.60586 16.6047 1.69695 16.7078 1.8115 16.8181C1.92743 16.9289 2.04566 17.0271 2.15054 17.1127L2.21725 17.169C2.47855 17.3874 2.78586 17.5932 3.12813 17.7801C3.48328 17.9728 3.85913 18.1444 4.19036 18.2957C4.2842 18.3394 4.37345 18.38 4.45626 18.4191C6.29365 19.2761 8.07676 19.9836 9.44446 20.4903C7.89505 21.6954 5.98313 23.5247 5.18036 25.685C5.09111 25.9255 5.00555 26.1624 4.94022 26.4366C4.81417 26.9572 4.76816 27.5089 4.80497 28.0764C4.80635 28.0903 4.80773 28.1025 4.80773 28.1169C4.88455 28.9041 5.08513 29.5661 5.43844 30.1993C5.74713 30.7555 6.15472 31.2545 6.64512 31.6814C6.89354 31.898 7.17049 32.093 7.4939 32.2799C7.83294 32.4749 8.2249 32.6415 8.62605 32.7645C9.11001 32.9113 9.60685 32.9905 10.1069 32.9987C10.1336 33 10.1607 33 10.1879 33C10.5559 33 10.8996 32.9595 11.1291 32.9252C14.8959 32.3533 18.1125 28.2164 21.2905 23.0091C21.4446 22.7519 21.6024 22.493 21.7583 22.2313C21.8315 22.3619 21.9051 22.4903 21.9796 22.6182C22.0274 22.7019 22.0785 22.7861 22.1277 22.8686C22.1328 22.878 22.1388 22.8861 22.1438 22.8938C22.2073 23.001 22.2726 23.1072 22.3393 23.2117C22.4429 23.377 22.5482 23.5378 22.6549 23.6963C22.7055 23.7742 22.7584 23.8508 22.8109 23.9273C22.8647 24.0052 22.919 24.0813 22.9733 24.1579C25.0398 27.0536 27.6671 29.0099 30.3675 29.6674C30.9596 29.8106 31.668 29.9606 32.4372 29.9683C32.5232 29.9701 32.6217 29.9683 32.7284 29.9651C32.7555 29.9651 32.7827 29.9638 32.8098 29.962C32.848 29.9606 32.8876 29.9593 32.9276 29.9561C32.9736 29.953 33.0214 29.9498 33.0693 29.9448C33.0978 29.9435 33.1268 29.9408 33.1567 29.9372C33.1825 29.934 33.2078 29.9309 33.2349 29.9277C33.3223 29.9187 33.4134 29.9043 33.504 29.889C33.5772 29.8764 33.6522 29.8624 33.7267 29.8453C34.0119 29.7863 34.2953 29.7066 34.5722 29.6066C34.7093 29.5571 34.846 29.5026 34.9817 29.4414C35.1169 29.3806 35.2508 29.3153 35.3828 29.2455C35.6469 29.105 36.0434 28.8775 36.4354 28.5267C36.6341 28.3488 36.7919 28.1975 36.9194 28.0651C37.0436 27.9359 37.1613 27.7926 37.2694 27.6571C37.3826 27.5134 37.5068 27.35 37.6435 27.1162L37.6881 27.0446C37.7773 26.8947 37.9015 26.6893 37.9908 26.4583C38.0018 26.4303 38.0147 26.4056 38.0257 26.3786C38.0672 26.2885 38.1214 26.17 38.1674 26.0282C38.2217 25.8881 38.2677 25.721 38.3285 25.4905L38.3395 25.4486C38.4605 24.9978 38.4812 24.6285 38.4922 24.4069L38.4954 24.3606C38.5148 24.0097 38.5019 23.8336 38.4812 23.6215C38.4766 23.5765 38.4715 23.5279 38.4669 23.4662C38.4651 23.436 38.4619 23.4081 38.4573 23.3783C38.3855 22.8704 38.2838 22.4529 38.1343 22.0611C37.948 21.5734 37.7281 21.1604 37.413 20.7132C37.3302 20.5993 37.1613 20.3718 36.9493 20.1462C36.8204 20.0057 36.6916 19.8855 36.5881 19.7891L36.526 19.7314C36.1805 19.4072 35.795 19.1388 35.4528 18.9024L35.4256 18.8834C34.6297 18.33 33.6186 17.9607 32.7252 17.6346C32.4979 17.5522 32.278 17.4712 32.0807 17.3946C32.0167 17.3698 31.9546 17.3451 31.8944 17.3216C32.3447 16.9442 32.8545 16.516 33.3863 16.0589C33.5344 15.9328 33.6839 15.8053 33.8366 15.6743C35.4307 14.3178 37.4111 12.6317 38.5097 10.6493C38.5258 10.6227 38.5387 10.5948 38.5511 10.5664C38.5672 10.5322 38.5861 10.4962 38.6054 10.4588C38.6514 10.3714 38.7071 10.2625 38.7581 10.1427C38.8299 9.97288 38.8745 9.82291 38.9063 9.71258L38.9224 9.65629C39.0084 9.36626 39.0641 9.10461 39.0958 8.83305C39.1087 8.73533 39.1147 8.62905 39.1229 8.52321C39.1262 8.47773 39.1275 8.43134 39.1326 8.38586C39.134 8.35974 39.1354 8.33272 39.1372 8.3048C39.1436 8.01477 39.1326 7.77654 39.0958 7.50498" fill="#E71B5A"/>
</svg>
