<svg width="37" height="46" viewBox="0 0 37 46" fill="none" xmlns="http://www.w3.org/2000/svg">
<path d="M16.835 45.381C15.0232 45.381 13.048 44.5681 10.9646 42.9648C9.13195 41.5541 7.27796 39.5626 5.60235 37.2049C2.14687 32.3419 0 26.7808 0 22.6907C0 19.7265 1.2962 17.2082 2.33768 15.1843C3.04724 13.8055 3.66006 12.6145 3.66006 11.7115C3.66006 9.87745 1.1928 7.25532 0.242289 6.39977C0.088307 6.26132 0 6.06341 0 5.85618C0 3.74437 1.43908 1.94585 3.49942 1.48213C3.71597 1.43331 3.94361 1.48568 4.11712 1.62501C4.44683 1.88816 6.76143 3.77011 8.0137 5.60102C8.59323 4.38026 9.49538 2.68203 10.4273 1.71465C10.6465 1.43953 11.8797 0 13.6635 0C15.1559 0 16.3615 0.554688 16.9717 1.52206C17.4425 2.26845 17.4807 3.18258 17.076 4.03147C16.9353 4.32701 16.6544 4.57374 16.2293 4.94693C15.2739 5.78518 13.6751 7.18787 13.1599 9.66489C13.0778 10.0603 12.6899 10.315 12.2946 10.2324C11.8987 10.1499 11.6445 9.76207 11.7266 9.36669C12.3416 6.41042 14.2422 4.74236 15.2637 3.84643C15.4576 3.67647 15.6968 3.46658 15.7656 3.37916C15.9435 2.99044 15.9329 2.61902 15.7336 2.30307C15.4021 1.77767 14.6282 1.46393 13.6635 1.46393C12.4729 1.46393 11.5721 2.62612 11.5633 2.6381C11.5451 2.66117 11.5233 2.68691 11.5025 2.70821C10.1557 4.08428 8.74455 7.55885 8.73035 7.5939C8.61054 7.89166 8.30968 8.07582 7.99018 8.04919C7.67023 8.02257 7.40531 7.79004 7.33653 7.47631C7.08359 6.3199 4.95581 4.22229 3.49143 3.00375C2.37762 3.38759 1.59528 4.37627 1.47902 5.55088C2.39315 6.4224 5.12399 9.23312 5.12399 11.7115C5.12399 12.9691 4.43573 14.3061 3.6392 15.8539C2.6199 17.8357 1.46393 20.081 1.46393 22.6907C1.46393 26.4351 3.55666 31.7992 6.7956 36.3569C10.1095 41.0203 13.9564 43.9171 16.835 43.9171C21.0129 43.9171 23.8716 39.9096 25.5343 36.5477C27.4908 32.5922 28.546 27.9643 28.546 25.6186C28.546 21.0116 27.1615 17.9 27.1478 17.869C26.9809 17.5006 27.1442 17.0671 27.5125 16.9002C27.8809 16.7334 28.3144 16.8971 28.4813 17.2654C28.5434 17.403 30.01 20.6987 30.01 25.6186C30.01 28.1302 28.9015 33.0412 26.8465 37.197C25 40.9307 21.7642 45.381 16.835 45.381Z" fill="#E71B5A"/>
<path d="M10.9799 16.1034C10.9226 16.1034 10.8641 16.0963 10.8059 16.0821C10.4132 15.9863 10.1722 15.5904 10.2681 15.1977C11.0416 12.0271 13.7755 10.2934 16.1873 8.76378C17.7812 7.75336 19.2882 6.79707 19.9206 5.61004L20.5099 2.77891C20.5924 2.38308 20.9802 2.12881 21.3756 2.21135C21.7714 2.29389 22.0257 2.68173 21.9432 3.07755L21.3335 6.00498C21.3206 6.06622 21.3002 6.12524 21.2727 6.18115C20.4846 7.772 18.7779 8.85431 16.9714 10.0001C14.6865 11.4489 12.324 12.9475 11.6903 15.5447C11.6087 15.8789 11.3096 16.1034 10.9799 16.1034Z" fill="#E71B5A"/>
<path d="M23.4224 7.31964C23.2214 7.31964 23.0266 7.23666 22.8868 7.08667C22.7178 6.90518 22.6521 6.65047 22.7124 6.40996L23.4442 3.48255C23.5422 3.09028 23.9398 2.85198 24.3321 2.94961C24.7239 3.04768 24.9622 3.44527 24.8646 3.8371L24.4022 5.68532C25.8218 5.46477 28.297 5.12397 30.0099 5.12397C30.4141 5.12397 30.7421 5.45146 30.7421 5.85572C30.7421 6.25997 30.4141 6.5879 30.0099 6.5879C27.6629 6.5879 23.5906 7.301 23.5498 7.30855C23.5072 7.31565 23.4646 7.31964 23.4224 7.31964Z" fill="#E71B5A"/>
<path d="M16.8343 17.5673C16.7101 17.5673 16.5841 17.5358 16.4687 17.4687C16.119 17.2664 15.9992 16.8187 16.2011 16.469C19.4889 10.7779 22.2419 9.9312 29.9024 8.79165C30.3031 8.73263 30.6745 9.0082 30.7339 9.40758C30.7934 9.80784 30.5178 10.1801 30.118 10.2396C22.9479 11.3064 20.5335 11.897 17.4689 17.2012C17.3331 17.4359 17.0873 17.5673 16.8343 17.5673Z" fill="#E71B5A"/>
<path d="M30.0089 10.2475C29.676 10.2475 29.3752 10.0194 29.2966 9.68175C29.2048 9.28814 29.4497 8.89454 29.8433 8.80268C30.3723 8.67976 30.7415 8.22048 30.7415 7.68576C30.7415 7.15104 30.3723 6.69176 29.8433 6.56884C29.4497 6.47699 29.2048 6.08338 29.2966 5.68977C29.3885 5.29617 29.7817 5.05122 30.1753 5.14307C31.3707 5.42131 32.2054 6.46678 32.2054 7.68576C32.2054 8.90474 31.3707 9.95022 30.1753 10.2284C30.1198 10.2413 30.0639 10.2475 30.0089 10.2475Z" fill="#E71B5A"/>
<path d="M24.1539 4.39185C23.7816 4.39185 23.463 4.10873 23.4262 3.73065C23.3898 3.35613 23.1258 3.04417 22.7694 2.95409C22.4158 2.86445 22.0417 3.01222 21.8384 3.32107C21.6161 3.65877 21.1622 3.7524 20.8245 3.53008C20.4868 3.30776 20.3936 2.85336 20.6159 2.51566C21.1622 1.68629 22.1717 1.29224 23.1289 1.53497C24.0821 1.77593 24.7872 2.60175 24.8835 3.58865C24.9225 3.99114 24.6283 4.3488 24.2258 4.3883C24.2014 4.39051 24.1775 4.39185 24.1539 4.39185Z" fill="#E71B5A"/>
<path d="M34.0323 19.3993C33.4901 19.3993 32.9522 19.2249 32.4978 18.8841C32.4681 18.8619 32.4402 18.8375 32.4144 18.8109C32.3882 18.7843 29.7209 16.1027 27.0819 16.1027C24.6035 16.1027 23.3992 18.5149 23.349 18.6174C23.1724 18.9799 22.7349 19.1322 22.3719 18.9569C22.0089 18.7811 21.8558 18.3463 22.0298 17.9828C22.0955 17.8462 23.6717 14.6387 27.0819 14.6387C30.1606 14.6387 33.0033 17.3345 33.4137 17.7401C33.7435 17.9669 34.1655 17.9975 34.5262 17.8169C34.8222 17.6691 35.0299 17.4024 35.1035 17.0909C34.2862 16.2203 33.5149 15.4916 32.7526 14.8695C32.4978 14.6614 32.4131 14.3095 32.5449 14.0086C32.6345 13.8045 32.8089 13.6576 33.0139 13.599C33.7794 13.3284 34.4024 12.9525 34.7153 12.7453C34.7197 12.6632 34.7086 12.5873 34.6682 12.5358C34.5347 12.3654 34.1198 12.2793 33.8353 12.262C31.5815 13.3399 29.9055 12.9441 29.8336 12.9263C29.8061 12.9192 29.779 12.9112 29.7524 12.901C29.7306 12.893 29.7089 12.8837 29.688 12.874C27.6929 11.8986 25.5891 11.5076 23.2563 11.6798C22.8529 11.7096 22.5024 11.4069 22.4726 11.004C22.4429 10.6006 22.7455 10.2501 23.1485 10.2199C25.7133 10.0308 28.0355 10.4551 30.2436 11.5161C30.5183 11.5622 31.7168 11.6927 33.3396 10.8749C33.4342 10.8274 33.5376 10.8003 33.6432 10.7968C33.7945 10.7919 35.1426 10.7692 35.8202 11.6323C36.0731 11.9549 36.3234 12.5185 36.0816 13.3745C36.0385 13.5272 35.9467 13.6612 35.8207 13.7575C35.7923 13.7792 35.3148 14.1395 34.5799 14.5136C35.1728 15.0537 35.7754 15.6572 36.4033 16.3392C36.528 16.4741 36.5972 16.6512 36.5972 16.8349C36.5972 17.8116 36.0545 18.6893 35.1812 19.1264C34.8156 19.3092 34.4224 19.3993 34.0323 19.3993Z" fill="#E71B5A"/>
<path d="M14.371 5.45779C13.4125 5.45779 12.4323 5.10634 11.6983 4.54012C10.5441 3.64952 10.1856 2.38616 10.7851 1.32205C10.9834 0.969715 11.4298 0.844578 11.7817 1.04293C12.1341 1.24129 12.2588 1.6877 12.0604 2.04004C11.7312 2.62534 12.3231 3.17293 12.5925 3.38105C13.4423 4.03691 14.8316 4.28807 15.594 3.55012C15.8842 3.26878 16.3479 3.27677 16.6288 3.56698C16.9102 3.85763 16.9026 4.32047 16.612 4.6018C15.9934 5.20086 15.1902 5.45735 14.371 5.45779Z" fill="#E71B5A"/>
<path d="M1.46522 27.9862C1.21538 27.9862 0.972208 27.8584 0.835089 27.6281C0.628745 27.2807 0.743232 26.8316 1.09069 26.6253C3.71459 25.0655 5.84282 22.8805 7.41681 20.1314C7.61783 19.7804 8.06513 19.6584 8.41569 19.8599C8.7667 20.0604 8.88829 20.5073 8.68727 20.8587C6.98637 23.8296 4.68241 26.193 1.83841 27.8837C1.72126 27.9534 1.59257 27.9862 1.46522 27.9862Z" fill="#E71B5A"/>
<path d="M16.8361 41.5383C16.6386 41.5383 16.4478 41.4318 16.3497 41.2445C14.5321 37.7846 13.8075 34.7684 14.1332 32.0234C14.423 29.581 15.4782 27.6627 16.4984 25.8082C17.3464 24.2671 18.1474 22.8111 18.4935 21.1165C18.5543 20.8196 18.8445 20.6279 19.1414 20.6891C19.4387 20.7495 19.6299 21.0397 19.5691 21.337C19.1893 23.1941 18.3107 24.7925 17.4604 26.3372C15.4347 30.0203 13.5213 33.4989 17.3216 40.7342C17.4627 41.0022 17.3593 41.3342 17.0908 41.4753C17.0096 41.5179 16.9222 41.5383 16.8361 41.5383Z" fill="#E71B5A"/>
<path d="M12.4441 39.3426C12.272 39.3426 12.102 39.2614 11.9951 39.1101C11.8202 38.8625 11.8793 38.5199 12.1269 38.3451C13.0006 37.7283 13.7505 36.0229 14.0838 33.8947C14.1308 33.5952 14.4113 33.3902 14.7113 33.4368C15.0108 33.4838 15.2154 33.7652 15.1688 34.0642C14.7796 36.5488 13.9014 38.436 12.7601 39.2419C12.6642 39.3102 12.5538 39.3426 12.4441 39.3426Z" fill="#E71B5A"/>
<path d="M18.2987 37.147C18.186 37.147 18.0724 37.1124 17.9744 37.0405C15.8692 35.4962 14.4594 33.2397 14.2952 31.151C14.2712 30.8493 14.4971 30.5848 14.7993 30.5608C15.1028 30.5369 15.366 30.7627 15.3895 31.0654C15.5297 32.8444 16.7687 34.7947 18.6236 36.1552C18.8681 36.3345 18.9213 36.6779 18.742 36.9224C18.6342 37.0689 18.4678 37.147 18.2987 37.147Z" fill="#E71B5A"/>
<path d="M24.8866 32.0234C24.678 32.0234 24.4788 31.9036 24.3869 31.7017C23.5748 29.92 22.457 29.0485 21.3765 28.2058C19.9774 27.1155 18.5307 25.9879 17.9658 23.0858C17.9077 22.788 18.1021 22.5 18.3998 22.4419C18.6976 22.3838 18.9856 22.5786 19.0433 22.8759C19.5301 25.3751 20.6985 26.2852 22.0515 27.3396C23.1812 28.2209 24.4623 29.2193 25.3858 31.2464C25.5114 31.5224 25.3898 31.8477 25.1138 31.9737C25.0401 32.0074 24.9629 32.0234 24.8866 32.0234Z" fill="#E71B5A"/>
<path d="M25.6179 27.6316C25.5208 27.6316 25.4231 27.6058 25.3339 27.5517C23.7835 26.6123 23.0832 26.5479 22.0231 26.4494C21.3491 26.3868 20.5104 26.3096 19.2834 25.9875C18.9901 25.9102 18.8148 25.6103 18.8916 25.317C18.9688 25.0236 19.2688 24.8488 19.5621 24.9251C20.7016 25.2242 21.4578 25.2943 22.1243 25.3564C23.2483 25.4603 24.1363 25.5424 25.9028 26.6132C26.1624 26.7702 26.245 27.1075 26.0879 27.3671C25.9849 27.5375 25.8034 27.6316 25.6179 27.6316Z" fill="#E71B5A"/>
<path d="M21.959 32.7545C21.766 32.7545 21.5792 32.6529 21.4784 32.4723C20.9672 31.5524 20.8652 29.9979 20.7751 28.6268C20.7467 28.1906 20.7196 27.7783 20.6815 27.4513C20.6464 27.15 20.8621 26.8775 21.1629 26.8424C21.4642 26.8069 21.7367 27.023 21.7718 27.3244C21.813 27.6789 21.841 28.1045 21.8707 28.5549C21.9493 29.749 22.0469 31.2342 22.4383 31.9389C22.5856 32.2043 22.4902 32.5384 22.2253 32.6857C22.1405 32.7323 22.0491 32.7545 21.959 32.7545Z" fill="#E71B5A"/>
<path d="M8.05177 32.7552C7.99941 32.7552 7.94571 32.7472 7.89291 32.7313C7.6027 32.6438 7.43851 32.3376 7.52593 32.047C8.85762 27.6374 11.4003 26.6998 13.86 25.7932C15.1993 25.2993 16.4644 24.8329 17.5862 23.8185C17.8112 23.6153 18.1582 23.6326 18.3614 23.8576C18.5647 24.0825 18.5474 24.4296 18.3224 24.6332C17.043 25.7897 15.6182 26.3151 14.2399 26.8232C11.8307 27.7115 9.75045 28.4783 8.57717 32.3647C8.50528 32.6017 8.2874 32.7552 8.05177 32.7552Z" fill="#E71B5A"/>
<path d="M11.7126 31.2908C11.6944 31.2908 11.6757 31.2899 11.6571 31.2881C11.3558 31.2579 11.1357 30.989 11.1659 30.6873C11.2772 29.5699 11.6846 27.4883 13.1592 26.1002C13.3797 25.8925 13.7272 25.9027 13.9348 26.1233C14.143 26.3447 14.1323 26.6922 13.9118 26.8994C12.6972 28.0425 12.3547 29.8317 12.2579 30.7964C12.23 31.0795 11.9912 31.2908 11.7126 31.2908Z" fill="#E71B5A"/>
<path d="M6.58758 29.8271C6.49928 29.8271 6.41008 29.8058 6.3271 29.7614C6.06041 29.6167 5.96101 29.2835 6.10523 29.0172C7.08503 27.2041 9.09522 27.0514 10.4251 26.9507C10.8463 26.9183 11.3703 26.8784 11.5185 26.787C11.7764 26.6276 12.1145 26.708 12.2738 26.9658C12.4331 27.2236 12.3532 27.5622 12.0954 27.7215C11.72 27.9527 11.1853 27.9935 10.5081 28.045C9.28647 28.1377 7.76618 28.2535 7.07083 29.5395C6.97143 29.7232 6.78283 29.8271 6.58758 29.8271Z" fill="#E71B5A"/>
</svg>
