<svg width="90" height="90" viewBox="0 0 90 90" fill="none" xmlns="http://www.w3.org/2000/svg">
<path d="M68.95 8.29043H68.8551C67.3884 8.19113 65.9168 8.18616 64.4494 8.27388C63.5956 8.32767 62.8614 7.65326 62.8104 6.76786C62.7585 5.88245 63.4089 5.12117 64.2627 5.06822C65.8547 4.97306 67.4506 4.97719 69.0426 5.08228C69.8965 5.10876 70.5676 5.84853 70.542 6.73394C70.5165 7.61852 69.8039 8.31525 68.95 8.28877L68.95 8.29043Z" fill="#E71E5A"/>
<path d="M45 84.998C44.1461 84.998 43.4543 84.2806 43.4543 83.3952V12.6506C43.4543 12.0639 43.7631 11.5244 44.2594 11.2431C47.0667 9.64026 50.0105 8.30874 53.0525 7.2663C53.4467 7.11735 53.8816 7.14135 54.2583 7.33084C54.6349 7.52117 54.9206 7.86126 55.0507 8.27417C55.1808 8.68708 55.1441 9.13723 54.9485 9.52118C54.7522 9.90513 54.4147 10.1906 54.0125 10.3114C51.4389 11.1927 48.9413 12.2957 46.5456 13.6097V80.8166C52.758 77.62 59.5977 75.9544 66.533 75.951C73.4675 75.9477 80.3096 77.6051 86.5242 80.7959V13.6165C84.1958 12.362 81.7754 11.2979 79.2855 10.4364C78.4748 10.1592 78.0335 9.25312 78.3 8.41239C78.5674 7.57083 79.4412 7.11325 80.2519 7.39046C83.2037 8.41404 86.0645 9.70158 88.8009 11.2374C89.3036 11.5171 89.6164 12.0607 89.6156 12.6516V83.3961C89.6156 83.958 89.3316 84.4776 88.8671 84.7673C88.4035 85.0569 87.8265 85.0734 87.3477 84.8119C73.6765 77.3017 59.6751 77.3017 45.7122 84.8119C45.4928 84.9319 45.2482 84.9964 45 84.998Z" fill="#E71E5A"/>
<path d="M1.93011 85C1.07625 85 0.384401 84.2826 0.384401 83.3971V12.6568C0.383603 12.0668 0.696407 11.524 1.19756 11.2443C16.1176 2.92237 31.1071 2.92237 45.7421 11.2443C46.2377 11.5257 46.5457 12.0644 46.5457 12.6502V83.3969C46.5457 83.9562 46.264 84.4759 45.802 84.7663C45.3408 85.0568 44.7662 85.0766 44.2874 84.8185C30.3322 77.3083 16.3247 77.3066 2.65185 84.8185C2.42922 84.9393 2.18148 85.0016 1.93011 85ZM23.3577 75.9557C30.3202 76.0219 37.1829 77.6826 43.4551 80.8196V13.6127C30.3146 6.43934 16.8653 6.44506 3.47635 13.6227V80.7914C9.67194 77.6586 16.4655 76.0069 23.3577 75.9557Z" fill="#E71E5A"/>
<path d="M77.4643 27.4506H55.8202C54.9663 27.4506 54.2745 26.7332 54.2745 25.8478C54.2745 24.9623 54.9663 24.2449 55.8202 24.2449H77.4643C78.3181 24.2449 79.0108 24.9623 79.0108 25.8478C79.0108 26.7332 78.3181 27.4506 77.4643 27.4506Z" fill="#E71E5A"/>
<path d="M77.4643 40.1907H55.8202C54.9663 40.1907 54.2745 39.4733 54.2745 38.5879C54.2745 37.7025 54.9663 36.9842 55.8202 36.9842H77.4643C78.3181 36.9842 79.0108 37.7025 79.0108 38.5879C79.0108 39.4733 78.3181 40.1907 77.4643 40.1907Z" fill="#E71E5A"/>
<path d="M77.4643 52.9328H55.8202C54.9663 52.9328 54.2745 52.2153 54.2745 51.3299C54.2745 50.4445 54.9663 49.7271 55.8202 49.7271H77.4643C78.3181 49.7271 79.0108 50.4445 79.0108 51.3299C79.0108 52.2153 78.3181 52.9328 77.4643 52.9328Z" fill="#E71E5A"/>
<path d="M77.4643 65.6751H55.8202C54.9663 65.6751 54.2745 64.9576 54.2745 64.0722C54.2745 63.1868 54.9663 62.4686 55.8202 62.4686H77.4643C78.3181 62.4686 79.0108 63.1868 79.0108 64.0722C79.0108 64.9576 78.3181 65.6751 77.4643 65.6751Z" fill="#E71E5A"/>
<path d="M34.1829 27.4506H12.5388C11.6849 27.4506 10.9923 26.7332 10.9923 25.8478C10.9923 24.9623 11.6849 24.2449 12.5388 24.2449H34.1829C35.0367 24.2449 35.7286 24.9623 35.7286 25.8478C35.7286 26.7332 35.0367 27.4506 34.1829 27.4506Z" fill="#E71E5A"/>
<path d="M34.1829 40.1907H12.5388C11.6849 40.1907 10.9923 39.4733 10.9923 38.5879C10.9923 37.7025 11.6849 36.9842 12.5388 36.9842H34.1829C35.0367 36.9842 35.7286 37.7025 35.7286 38.5879C35.7286 39.4733 35.0367 40.1907 34.1829 40.1907Z" fill="#E71E5A"/>
<path d="M34.1829 52.9328H12.5388C11.6849 52.9328 10.9923 52.2153 10.9923 51.3299C10.9923 50.4445 11.6849 49.7271 12.5388 49.7271H34.1829C35.0367 49.7271 35.7286 50.4445 35.7286 51.3299C35.7286 52.2153 35.0367 52.9328 34.1829 52.9328Z" fill="#E71E5A"/>
<path d="M34.1829 65.6751H12.5388C11.6849 65.6751 10.9923 64.9576 10.9923 64.0722C10.9923 63.1868 11.6849 62.4686 12.5388 62.4686H34.1829C35.0367 62.4686 35.7286 63.1868 35.7286 64.0722C35.7286 64.9576 35.0367 65.6751 34.1829 65.6751Z" fill="#E71E5A"/>
</svg>
