<svg width="90" height="90" viewBox="0 0 90 90" fill="none" xmlns="http://www.w3.org/2000/svg">
<path d="M56.3804 24.3623L36.0037 36.1446M56.3804 65.6376L36.0037 53.8554M80.3358 18.8691C78.7129 24.935 72.4873 28.5348 66.4306 26.9094C60.3739 25.2841 56.7795 19.0491 58.4024 12.9832C60.0253 6.91736 66.2509 3.3176 72.3076 4.94294C78.3644 6.56829 81.9587 12.8033 80.3358 18.8691ZM80.3358 71.1309C78.7129 65.065 72.4873 61.4652 66.4306 63.0906C60.3739 64.7159 56.7795 70.9509 58.4024 77.0168C60.0253 83.0826 66.2509 86.6824 72.3076 85.057C78.3644 83.4317 81.9587 77.1967 80.3358 71.1309ZM31.9816 43.0333C31.9816 49.3132 26.8985 54.404 20.6281 54.404C14.3577 54.404 9.27454 49.3132 9.27454 43.0333C9.27454 36.7535 14.3577 31.6627 20.6281 31.6627C26.8985 31.6627 31.9816 36.7535 31.9816 43.0333Z" stroke="#E71E5A" stroke-width="3" stroke-linecap="round"/>
</svg>
