<svg width="33" height="35" viewBox="0 0 33 35" fill="none" xmlns="http://www.w3.org/2000/svg">
<path d="M8.91876 1.11489C8.91876 0.650551 9.3368 0 10.0337 0C10.7305 0 12.8207 1.11489 12.8207 1.11489C12.8207 1.11489 10.7305 2.23012 10.0337 2.23012C9.3368 2.23012 8.91876 1.5789 8.91876 1.11489Z" fill="#5B6373"/>
<path d="M6.68939 1.11498C6.68939 0.650635 6.27135 7.70884e-05 5.5745 7.70884e-05C4.87765 7.70884e-05 2.78745 1.11498 2.78745 1.11498C2.78745 1.11498 4.87765 2.23022 5.5745 2.23022C6.27135 2.23022 6.68939 1.57899 6.68939 1.11498Z" fill="#5B6373"/>
<path d="M7.80424 20.6251C5.3825 20.6251 3.35076 17.9181 1.7651 12.5789C0.533282 8.42988 0 4.0869 0 2.78749C0 2.13018 0.371405 0.977443 2.85735 0.640508C2.86817 0.639157 2.87932 0.637805 2.89047 0.637129C2.93373 0.634087 3.96312 0.557373 5.01718 0.557373C5.32505 0.557373 5.57446 0.807117 5.57446 1.11499C5.57446 1.42286 5.32505 1.6726 5.01718 1.6726C4.07633 1.6726 3.12602 1.73783 2.99017 1.74796C2.52819 1.81184 1.11523 2.06733 1.11523 2.78749C1.11523 4.11022 1.6894 8.40757 2.83403 12.2619C4.22199 16.936 5.98709 19.5102 7.80424 19.5102C9.62139 19.5102 11.3865 16.936 12.7744 12.2619C13.9191 8.40757 14.4932 4.11022 14.4932 2.78749C14.4932 2.06733 13.0803 1.81184 12.6183 1.74796C12.4825 1.73783 11.5321 1.6726 10.5913 1.6726C10.2834 1.6726 10.034 1.42286 10.034 1.11499C10.034 0.807117 10.2834 0.557373 10.5913 0.557373C11.6454 0.557373 12.6747 0.634087 12.718 0.637129C12.7292 0.637805 12.7403 0.639157 12.7511 0.640508C15.2371 0.977443 15.6085 2.13018 15.6085 2.78749C15.6085 4.0869 15.0752 8.42988 13.8434 12.5789C12.2577 17.9181 10.226 20.6251 7.80424 20.6251Z" fill="#5B6373"/>
<path d="M13.0996 31.216C9.87216 31.216 7.24664 28.5901 7.24664 25.3631V20.0674C7.24664 19.7596 7.49605 19.5098 7.80392 19.5098C8.11179 19.5098 8.3612 19.7596 8.3612 20.0674V25.3631C8.3612 27.9754 10.4869 30.1011 13.0996 30.1011C15.7122 30.1011 17.8379 27.9754 17.8379 25.3631V18.9525C17.8379 15.8789 20.3384 13.3784 23.4121 13.3784C26.4857 13.3784 28.9865 15.8789 28.9865 18.9525V28.7074C28.9865 29.0153 28.7368 29.265 28.4289 29.265C28.121 29.265 27.8716 29.0153 27.8716 28.7074V18.9525C27.8716 16.4936 25.871 14.4933 23.4121 14.4933C20.9531 14.4933 18.9525 16.4936 18.9525 18.9525V25.3631C18.9525 28.5901 16.327 31.216 13.0996 31.216Z" fill="#5B6373"/>
<path d="M28.4292 29.265C27.9682 29.265 27.5931 29.6402 27.5931 30.1015C27.5931 30.5624 27.9682 30.9375 28.4292 30.9375C28.8901 30.9375 29.2653 30.5624 29.2653 30.1015C29.2653 29.6402 28.8901 29.265 28.4292 29.265ZM28.4292 32.0524C27.3535 32.0524 26.4782 31.1772 26.4782 30.1015C26.4782 29.0254 27.3535 28.1501 28.4292 28.1501C29.5049 28.1501 30.3802 29.0254 30.3802 30.1015C30.3802 31.1772 29.5049 32.0524 28.4292 32.0524Z" fill="#5B6373"/>
<path d="M28.4291 27.3144C26.8921 27.3144 25.6421 28.5644 25.6421 30.1014C25.6421 31.6384 26.8921 32.8885 28.4291 32.8885C29.9661 32.8885 31.2162 31.6384 31.2162 30.1014C31.2162 28.5644 29.9661 27.3144 28.4291 27.3144ZM28.4291 34.0034C26.2777 34.0034 24.5272 32.2528 24.5272 30.1014C24.5272 27.95 26.2777 26.1995 28.4291 26.1995C30.5808 26.1995 32.331 27.95 32.331 30.1014C32.331 32.2528 30.5808 34.0034 28.4291 34.0034Z" fill="#5B6373"/>
<path d="M7.80442 18.3952C7.00483 18.3952 4.29583 18.2235 3.01399 16.0164C2.85921 15.7504 2.94978 15.4091 3.21609 15.2543C3.48205 15.0999 3.82338 15.1904 3.97816 15.4567C4.96092 17.1488 7.15522 17.2803 7.80442 17.2803C8.45362 17.2803 10.6479 17.1488 11.6307 15.4567C11.7855 15.1904 12.1264 15.0999 12.3927 15.2543C12.6591 15.4091 12.7496 15.7504 12.5948 16.0164C11.313 18.2235 8.604 18.3952 7.80442 18.3952Z" fill="#5B6373"/>
</svg>
