<svg width="31" height="28" viewBox="0 0 31 28" fill="none" xmlns="http://www.w3.org/2000/svg">
<path d="M10.5003 10C9.33049 10 8.52387 10.4453 8.03492 11.3605C7.68511 12.0155 7.5002 12.9282 7.5002 14.0001C7.5002 18.3069 14.1693 22.1985 15.5004 22.9321C16.8311 22.1985 23.5002 18.3069 23.5002 14.0001C23.5002 12.9282 23.3153 12.0155 22.9655 11.3605C22.4765 10.4453 21.6702 10 20.5001 10C17.755 10 15.9563 13.2083 15.9384 13.2405C15.8505 13.4005 15.6825 13.4999 15.5004 13.4999H15.4998C15.3173 13.4996 15.1493 13.4002 15.0617 13.2402C15.0441 13.2083 13.2454 10 10.5003 10ZM15.5004 24C15.4218 24 15.3433 23.9815 15.2715 23.9445C14.9132 23.7605 6.50018 19.3688 6.50018 14.0001C6.50018 12.747 6.71995 11.7003 7.15312 10.8897C7.81303 9.65324 8.97068 9 10.5003 9C12.9811 9 14.7298 10.9879 15.5004 12.0749C16.2709 10.9879 18.0197 9 20.5001 9C22.03 9 23.1874 9.65324 23.8476 10.8897C24.2808 11.7003 24.5002 12.747 24.5002 14.0001C24.5002 19.3688 16.0872 23.7605 15.7292 23.9445C15.6574 23.9815 15.5789 24 15.5004 24Z" fill="#5B6373"/>
<path d="M16.5388 10.0008C16.3221 10.0008 16.1223 9.8583 16.0589 9.64004C15.9616 9.30418 15.8025 8.95376 15.6343 8.58212C15.322 7.89402 14.9989 7.18197 14.9989 6.41566C14.9989 5.25225 15.5879 4.50049 16.4991 4.50049C17.1105 4.50049 17.5434 5.1213 17.8159 5.58812C17.955 5.82668 17.8744 6.13284 17.6361 6.27228C17.3975 6.41141 17.0914 6.33108 16.9523 6.09222C16.6825 5.62995 16.517 5.52143 16.4785 5.50081C16.062 5.5187 15.9989 6.07918 15.9989 6.41566C15.9989 6.96553 16.2642 7.55027 16.5448 8.16926C16.7204 8.55636 16.9019 8.95679 17.0192 9.36147C17.0962 9.6267 16.9435 9.90376 16.6782 9.98076C16.6318 9.9944 16.5849 10.0008 16.5388 10.0008Z" fill="#5B6373"/>
<path d="M14.4592 10.0008C14.4131 10.0008 14.3661 9.9944 14.3197 9.98076C14.0545 9.90376 13.9017 9.6267 13.9787 9.36147C14.096 8.95679 14.2776 8.55636 14.4531 8.16926C14.7338 7.55027 14.999 6.96553 14.999 6.41566C14.999 6.07918 14.936 5.5187 14.5195 5.50081C14.481 5.52143 14.3155 5.62995 14.0457 6.09222C13.9066 6.33108 13.6004 6.41141 13.3618 6.27228C13.1236 6.13284 13.0429 5.82668 13.1821 5.58812C13.4546 5.1213 13.8875 4.50049 14.4989 4.50049C15.4101 4.50049 15.9991 5.25225 15.9991 6.41566C15.9991 7.18197 15.6762 7.89402 15.364 8.58212C15.1955 8.95376 15.0363 9.30418 14.939 9.64004C14.8757 9.8583 14.6759 10.0008 14.4592 10.0008Z" fill="#5B6373"/>
<path d="M18.4577 8.79022C18.2303 8.79022 18.0245 8.6338 17.9711 8.40282C17.842 7.84476 17.4892 7.13696 17.139 6.45977C17.1378 6.45795 17.1369 6.45583 17.136 6.45371C17.0708 6.32337 17.0093 6.2006 16.9426 6.07662C16.9417 6.0745 16.9405 6.07268 16.9396 6.07056C16.3709 4.97687 15.998 4.21542 15.998 3.62523C15.998 2.35421 16.601 1.5 17.4982 1.5C17.862 1.5 18.2391 1.7713 18.8505 2.30511L18.8584 2.31208C19.0664 2.49396 19.0876 2.80981 18.906 3.01746C18.7244 3.22571 18.4086 3.24692 18.2006 3.06505L18.1927 3.05838C18.053 2.93622 17.6398 2.5755 17.4655 2.50214C17.1257 2.54215 16.9981 3.20327 16.9981 3.62523C16.9981 4.01475 17.4755 4.93383 17.8253 5.60617C17.8975 5.74106 17.9642 5.87443 18.0287 6.00357C18.4076 6.73623 18.7902 7.50768 18.9454 8.1776C19.0075 8.44647 18.8399 8.71504 18.5707 8.77718C18.5328 8.78597 18.4949 8.79022 18.4577 8.79022Z" fill="#5B6373"/>
<path d="M12.5407 8.79022C12.5034 8.79022 12.4655 8.78597 12.4276 8.77718C12.1587 8.71504 11.9908 8.44647 12.0529 8.1776C12.2081 7.50768 12.5907 6.73623 12.9696 6.00357C13.0342 5.87443 13.1009 5.74106 13.173 5.60617C13.5228 4.93383 14.0003 4.01475 14.0003 3.62523C14.0003 3.20327 13.8726 2.54215 13.5328 2.50214C13.3585 2.5755 12.9454 2.93622 12.8056 3.05838L12.7977 3.06505C12.5898 3.24692 12.2739 3.22571 12.0923 3.01746C11.9108 2.80981 11.932 2.49396 12.1399 2.31208L12.1478 2.30511C12.7592 1.7713 13.1363 1.5 13.5001 1.5C14.3974 1.5 15.0003 2.35421 15.0003 3.62523C15.0003 4.21542 14.6274 4.97687 14.0588 6.07056C14.0579 6.07268 14.0566 6.0745 14.0557 6.07662C13.989 6.2006 13.9275 6.32337 13.8623 6.45371C13.8614 6.45583 13.8605 6.45795 13.8593 6.45977C13.5092 7.13696 13.1563 7.84476 13.0275 8.40282C12.9739 8.6338 12.768 8.79022 12.5407 8.79022Z" fill="#5B6373"/>
<path d="M24.9986 11.0002C24.7873 11.0002 24.5912 10.8653 24.523 10.6534C23.8388 8.53336 22.7075 6.7052 21.7988 5.23593C21.0158 3.97098 20.4987 3.13526 20.4987 2.4999C20.4987 0.526534 21.4417 0 21.9988 0C22.211 0 22.857 0 24.2565 2.06339C25.1814 3.42717 26.1423 5.2911 26.9619 7.31206C27.0659 7.5679 26.9425 7.85951 26.6867 7.96318C26.4309 8.06715 26.1393 7.94378 26.0353 7.68794C25.0598 5.28353 24.135 3.69028 23.5308 2.77696C22.6745 1.4829 22.1474 1.06974 21.9873 1.00396C21.8588 1.04549 21.4987 1.36832 21.4987 2.4999C21.4987 2.85062 22.0837 3.79577 22.649 4.71001C23.5372 6.14502 24.7534 8.1108 25.4745 10.3467C25.5594 10.6092 25.4151 10.8911 25.1523 10.976C25.1013 10.9923 25.0495 11.0002 24.9986 11.0002Z" fill="#5B6373"/>
<path d="M5.99891 11.0002C5.94799 11.0002 5.89615 10.9923 5.84523 10.976C5.58241 10.8911 5.43812 10.6092 5.523 10.3467C6.24414 8.1108 7.4603 6.14502 8.34847 4.71001C8.91411 3.79577 9.49884 2.85062 9.49884 2.4999C9.49884 1.36832 9.13873 1.04549 9.0105 1.00396C8.85015 1.06974 8.32301 1.4829 7.46667 2.77696C6.86253 3.69028 5.93768 5.28353 4.96221 7.68794C4.85824 7.94378 4.56663 8.06715 4.31079 7.96318C4.05494 7.85951 3.93157 7.5679 4.03554 7.31206C4.85551 5.2911 5.81613 3.42717 6.74097 2.06339C8.14052 0 8.78649 0 8.99868 0C9.55583 0 10.4989 0.526534 10.4989 2.4999C10.4989 3.13526 9.98173 3.97098 9.19875 5.23593C8.28996 6.7052 7.15869 8.53336 6.47483 10.6534C6.40632 10.8653 6.21019 11.0002 5.99891 11.0002Z" fill="#5B6373"/>
<path d="M20.5004 27.9997C20.2242 27.9997 20.0005 27.776 20.0005 27.4999C20.0005 27.1522 19.4913 26.3031 19.0823 25.6205C18.7004 24.9839 18.3057 24.3252 18.0396 23.6938C17.9323 23.4395 18.0517 23.146 18.3063 23.039C18.561 22.9314 18.8541 23.0512 18.9611 23.3058C19.1997 23.8717 19.5761 24.4995 19.9399 25.1067C20.5089 26.0558 21.0002 26.8754 21.0002 27.4999C21.0002 27.776 20.7765 27.9997 20.5004 27.9997Z" fill="#5B6373"/>
<path d="M10.5 28.0001C10.2239 28.0001 10.0002 27.7764 10.0002 27.5002C10.0002 26.8758 10.4916 26.0561 11.0605 25.107C11.4246 24.4999 11.8008 23.8721 12.0393 23.3061C12.1466 23.0515 12.4398 22.9321 12.6941 23.0394C12.9487 23.1464 13.0681 23.4398 12.9608 23.6942C12.6947 24.3256 12.3 24.9843 11.9181 25.6208C11.5092 26.3035 10.9999 27.1525 10.9999 27.5002C10.9999 27.7764 10.7762 28.0001 10.5 28.0001Z" fill="#5B6373"/>
<path d="M28.9969 27.9999C28.7711 27.9999 28.5662 27.8459 28.511 27.6165C28.4901 27.5292 27.9972 25.4652 27.9972 24.5C27.9972 24.1035 28.2142 23.5406 28.5428 22.6888C29.1221 21.1865 29.9972 18.9164 29.9972 16.4999C29.9972 15.5347 29.7435 14.6465 29.5395 13.933C29.3828 13.3843 29.2473 12.9105 29.2473 12.4998C29.2473 12.441 29.2476 12.3679 29.2482 12.2831C29.2509 11.8011 29.2561 10.9029 29.194 10.0723C29.1139 9.00594 28.9648 8.62521 28.8981 8.50457C27.9875 8.58884 27.4973 9.82984 27.4973 10.9999C27.4973 11.497 27.4576 15.3422 27.4558 15.5056C27.4549 15.6059 27.4237 15.7039 27.3661 15.786C26.5683 16.9327 24.4973 20.1947 24.4973 21.5006C24.4973 21.7767 24.2736 22.0004 23.9974 22.0004C23.7213 22.0004 23.4973 21.7767 23.4973 21.5006C23.4973 19.7655 25.8953 16.1628 26.4573 15.3422C26.4649 14.6047 26.4973 11.4361 26.4973 10.9999C26.4973 9.26087 27.3561 7.5 28.9972 7.5C29.1473 7.5 29.3689 7.54335 29.5741 7.74947C30.0682 8.2466 30.2634 9.56188 30.2482 12.2888C30.2476 12.3713 30.2473 12.4425 30.2473 12.4998C30.2473 12.7702 30.3649 13.1818 30.501 13.658C30.722 14.4316 30.9973 15.3944 30.9973 16.4999C30.9973 19.1025 30.0818 21.4772 29.4759 23.0486C29.2406 23.6588 28.9972 24.2897 28.9972 24.5C28.9972 25.2027 29.3482 26.8196 29.4834 27.3834C29.548 27.6519 29.3825 27.9217 29.1139 27.986C29.0748 27.9954 29.0354 27.9999 28.9969 27.9999Z" fill="#5B6373"/>
<path d="M2.00035 27.9999C1.96185 27.9999 1.92244 27.9954 1.88334 27.986C1.61477 27.9217 1.44926 27.6519 1.51383 27.3834C1.64902 26.8196 2.00005 25.2027 2.00005 24.5C2.00005 24.2897 1.75663 23.6588 1.5214 23.0486C0.91545 21.4772 0 19.1025 0 16.4999C0 15.3944 0.274938 14.4316 0.496222 13.658C0.632327 13.1818 0.749941 12.7702 0.749941 12.4998C0.749941 12.4425 0.749638 12.3713 0.749032 12.2888C0.733572 9.56188 0.929091 8.2466 1.42289 7.74947C1.62841 7.54335 1.85 7.5 2.00005 7.5C3.64119 7.5 4.49995 9.26087 4.49995 10.9999C4.49995 11.4361 4.53239 14.6047 4.53966 15.3422C5.10196 16.1628 7.50002 19.7655 7.50002 21.5006C7.50002 21.7767 7.27601 22.0004 6.99985 22.0004C6.7237 22.0004 6.5 21.7767 6.5 21.5006C6.5 20.1935 4.42902 16.9324 3.63088 15.786C3.57359 15.7039 3.54237 15.6059 3.54146 15.5056C3.53964 15.3422 3.49993 11.497 3.49993 10.9999C3.49993 9.82984 3.00977 8.58884 2.09917 8.50457C2.03248 8.62521 1.88334 9.00594 1.80331 10.0723C1.74117 10.9029 1.74633 11.8011 1.74905 12.2831C1.74966 12.3679 1.74996 12.441 1.74996 12.4998C1.74996 12.9105 1.61447 13.3843 1.45775 13.933C1.25374 14.6465 1.00002 15.5347 1.00002 16.4999C1.00002 18.9164 1.87516 21.1865 2.45444 22.6888C2.78303 23.5406 2.99976 24.1035 2.99976 24.5C2.99976 25.4652 2.50718 27.5292 2.48626 27.6165C2.43109 27.8459 2.22618 27.9999 2.00035 27.9999Z" fill="#5B6373"/>
<path d="M21.0067 8.50015C20.8042 8.50015 20.6136 8.37648 20.5384 8.1755C20.1956 7.25915 19.6372 6.18547 19.1443 5.2385C18.4135 3.8335 18 3.01384 18 2.50004C18 1.34148 18.6308 0.5 19.5002 0.5C20.4817 0.5 21.2832 1.73737 21.4338 1.98563C21.5775 2.22146 21.5024 2.52914 21.2662 2.67252C21.0304 2.8159 20.723 2.74102 20.5796 2.50549C20.2889 2.02989 19.7739 1.50002 19.5002 1.50002C19.1871 1.50002 19 2.00867 19 2.50004C19 2.79438 19.572 3.89382 20.0316 4.77713C20.5375 5.74957 21.111 6.85205 21.4751 7.82478C21.5718 8.08365 21.4405 8.37163 21.1819 8.46863C21.1241 8.49015 21.0649 8.50015 21.0067 8.50015Z" fill="#5B6373"/>
<path d="M9.99098 8.50015C9.93278 8.50015 9.87367 8.49015 9.81577 8.46863C9.5572 8.37163 9.42595 8.08365 9.52264 7.82478C9.8867 6.85205 10.4602 5.74957 10.9661 4.77713C11.4257 3.89382 11.9977 2.79438 11.9977 2.50004C11.9977 2.00867 11.8107 1.50002 11.4975 1.50002C11.1959 1.50002 10.6679 2.09415 10.4184 2.50489C10.275 2.74102 9.96733 2.8159 9.7315 2.67252C9.49536 2.52914 9.42019 2.22146 9.56387 1.98563C9.71453 1.73737 10.516 0.5 11.4975 0.5C12.3669 0.5 12.9977 1.34148 12.9977 2.50004C12.9977 3.01384 12.5843 3.8335 11.8534 5.2385C11.3605 6.18547 10.8022 7.25915 10.4593 8.1755C10.3841 8.37617 10.1935 8.50015 9.99098 8.50015Z" fill="#5B6373"/>
</svg>
