<svg width="35" height="35" viewBox="0 0 35 35" fill="none" xmlns="http://www.w3.org/2000/svg">
<path d="M5.01724 6.68931H11.7062V1.11489H5.01724V6.68931ZM12.2639 7.80419H4.45962C4.15175 7.80419 3.90234 7.55445 3.90234 7.24658V0.557269C3.90234 0.2494 4.15175 0 4.45962 0H12.2639C12.5717 0 12.8211 0.2494 12.8211 0.557269V7.24658C12.8211 7.55445 12.5717 7.80419 12.2639 7.80419Z" fill="#5B6373"/>
<path d="M12.2634 5.5746H4.45919C4.15166 5.5746 3.90192 5.32486 3.90192 5.01733C3.90192 4.70912 4.15166 4.45972 4.45919 4.45972H12.2634C12.5713 4.45972 12.8207 4.70912 12.8207 5.01733C12.8207 5.32486 12.5713 5.5746 12.2634 5.5746Z" fill="#5B6373"/>
<path d="M14.4933 34.5605H2.22978C1.00033 34.5605 0 33.5602 0 32.3308V16.4138C0 14.3242 0.901985 12.3364 2.47446 10.9599L3.88843 9.72306C4.25139 9.40505 4.45957 8.94646 4.45957 8.46454V7.24658C4.45957 6.93871 4.70897 6.68896 5.01684 6.68896C5.32472 6.68896 5.57446 6.93871 5.57446 7.24658V8.46454C5.57446 9.26818 5.22739 10.0326 4.62246 10.5618L3.20848 11.7987C1.87798 12.9636 1.11489 14.6456 1.11489 16.4138V32.3308C1.11489 32.9458 1.61506 33.4456 2.22978 33.4456H14.4933C15.108 33.4456 15.6081 32.9458 15.6081 32.3308V16.4138C15.6081 14.6456 14.8451 12.9636 13.5142 11.7984L12.1006 10.5618C11.4957 10.0326 11.1486 9.26818 11.1486 8.46454V7.24658C11.1486 6.93871 11.3983 6.68896 11.7062 6.68896C12.0141 6.68896 12.2635 6.93871 12.2635 7.24658V8.46454C12.2635 8.94646 12.4716 9.40505 12.8349 9.72306L14.2486 10.9596C15.8211 12.3364 16.723 14.3242 16.723 16.4138V32.3308C16.723 33.5602 15.7227 34.5605 14.4933 34.5605Z" fill="#5B6373"/>
<path d="M13.3784 31.7737H2.2298C1.92192 31.7737 1.67218 31.5243 1.67218 31.2164C1.67218 30.9082 1.92192 30.6588 2.2298 30.6588H12.8208V17.838H2.2298C1.92192 17.838 1.67218 17.588 1.67218 17.2804C1.67218 16.9726 1.92192 16.7231 2.2298 16.7231H13.3784C13.6863 16.7231 13.9357 16.9726 13.9357 17.2804V31.2164C13.9357 31.5243 13.6863 31.7737 13.3784 31.7737Z" fill="#5B6373"/>
<path d="M13.3784 20.6251H2.2298C1.92192 20.6251 1.67218 20.3757 1.67218 20.0679C1.67218 19.7597 1.92192 19.5103 2.2298 19.5103H13.3784C13.6863 19.5103 13.9357 19.7597 13.9357 20.0679C13.9357 20.3757 13.6863 20.6251 13.3784 20.6251Z" fill="#5B6373"/>
<path d="M6.17693 14.4929C5.02081 14.4929 4.43413 14.3426 3.86671 14.1969C3.65989 14.1439 3.46421 14.0935 3.24049 14.0509C2.93803 13.9935 2.73932 13.7018 2.7971 13.3994C2.85422 13.0969 3.14654 12.8985 3.44867 12.9556C3.7072 13.005 3.92923 13.0621 4.14383 13.1172C4.66731 13.2513 5.16173 13.3781 6.17693 13.3781C7.19381 13.3781 7.68857 13.2513 8.21273 13.1172C8.78048 12.9712 9.36716 12.8208 10.524 12.8208C11.6814 12.8208 12.2688 12.9712 12.8365 13.1168C13.0488 13.1712 13.2495 13.2226 13.4807 13.2655C13.7831 13.3223 13.9829 13.6133 13.9264 13.9161C13.8696 14.2185 13.5783 14.4183 13.2762 14.3615C13.0086 14.3118 12.7804 14.2533 12.5598 14.1966C12.0359 14.0627 11.5408 13.9357 10.524 13.9357C9.50808 13.9357 9.01333 14.0627 8.48985 14.1969C7.92175 14.3426 7.3344 14.4929 6.17693 14.4929Z" fill="#5B6373"/>
<path d="M28.9866 15.0504C28.3718 15.0504 27.8717 15.5506 27.8717 16.1657V19.51C27.8717 20.1247 28.3718 20.6249 28.9866 20.6249C29.6013 20.6249 30.1015 20.1247 30.1015 19.51V16.1657C30.1015 15.5506 29.6013 15.0504 28.9866 15.0504ZM28.9866 21.7398C27.7571 21.7398 26.7568 20.7395 26.7568 19.51V16.1657C26.7568 14.9359 27.7571 13.9355 28.9866 13.9355C30.216 13.9355 31.2163 14.9359 31.2163 16.1657V19.51C31.2163 20.7395 30.216 21.7398 28.9866 21.7398Z" fill="#5B6373"/>
<path d="M30.659 18.3952H27.3143C27.0064 18.3952 26.757 18.1454 26.757 17.8379C26.757 17.5297 27.0064 17.2803 27.3143 17.2803H30.659C30.9668 17.2803 31.2162 17.5297 31.2162 17.8379C31.2162 18.1454 30.9668 18.3952 30.659 18.3952Z" fill="#5B6373"/>
<path d="M22.2974 15.0504C21.6827 15.0504 21.1825 15.5506 21.1825 16.1657V19.51C21.1825 20.1247 21.6827 20.6249 22.2974 20.6249C22.9121 20.6249 23.4123 20.1247 23.4123 19.51V16.1657C23.4123 15.5506 22.9121 15.0504 22.2974 15.0504ZM22.2974 21.7398C21.068 21.7398 20.0676 20.7395 20.0676 19.51V16.1657C20.0676 14.9359 21.068 13.9355 22.2974 13.9355C23.5269 13.9355 24.5272 14.9359 24.5272 16.1657V19.51C24.5272 20.7395 23.5269 21.7398 22.2974 21.7398Z" fill="#5B6373"/>
<path d="M23.9696 18.3952H20.6249C20.317 18.3952 20.0676 18.1454 20.0676 17.8379C20.0676 17.5297 20.317 17.2803 20.6249 17.2803H23.9696C24.2774 17.2803 24.5269 17.5297 24.5269 17.8379C24.5269 18.1454 24.2774 18.3952 23.9696 18.3952Z" fill="#5B6373"/>
<path d="M22.2974 25.0841C21.6827 25.0841 21.1825 25.5843 21.1825 26.199V29.5437C21.1825 30.1584 21.6827 30.6586 22.2974 30.6586C22.9121 30.6586 23.4123 30.1584 23.4123 29.5437V26.199C23.4123 25.5843 22.9121 25.0841 22.2974 25.0841ZM22.2974 31.7735C21.068 31.7735 20.0676 30.7731 20.0676 29.5437V26.199C20.0676 24.9696 21.068 23.9692 22.2974 23.9692C23.5269 23.9692 24.5272 24.9696 24.5272 26.199V29.5437C24.5272 30.7731 23.5269 31.7735 22.2974 31.7735Z" fill="#5B6373"/>
<path d="M23.9696 28.4294H20.6249C20.317 28.4294 20.0676 28.1796 20.0676 27.8721C20.0676 27.5639 20.317 27.3145 20.6249 27.3145H23.9696C24.2774 27.3145 24.5269 27.5639 24.5269 27.8721C24.5269 28.1796 24.2774 28.4294 23.9696 28.4294Z" fill="#5B6373"/>
<path d="M28.9866 25.0841C28.3718 25.0841 27.8717 25.5843 27.8717 26.199V29.5437C27.8717 30.1584 28.3718 30.6586 28.9866 30.6586C29.6013 30.6586 30.1015 30.1584 30.1015 29.5437V26.199C30.1015 25.5843 29.6013 25.0841 28.9866 25.0841ZM28.9866 31.7735C27.7571 31.7735 26.7568 30.7731 26.7568 29.5437V26.199C26.7568 24.9696 27.7571 23.9692 28.9866 23.9692C30.216 23.9692 31.2163 24.9696 31.2163 26.199V29.5437C31.2163 30.7731 30.216 31.7735 28.9866 31.7735Z" fill="#5B6373"/>
<path d="M30.659 28.4294H27.3143C27.0064 28.4294 26.757 28.1796 26.757 27.8721C26.757 27.5639 27.0064 27.3145 27.3143 27.3145H30.659C30.9668 27.3145 31.2162 27.5639 31.2162 27.8721C31.2162 28.1796 30.9668 28.4294 30.659 28.4294Z" fill="#5B6373"/>
<path d="M32.3307 34.5605H18.3948C18.0872 34.5605 17.8375 34.311 17.8375 34.0032C17.8375 33.695 18.0872 33.4456 18.3948 33.4456H32.3307C32.9455 33.4456 33.4456 32.9457 33.4456 32.3307V13.3779C33.4456 12.7635 32.9455 12.263 32.3307 12.263H17.2802C16.972 12.263 16.7226 12.0136 16.7226 11.7057C16.7226 11.3978 16.972 11.1484 17.2802 11.1484H32.3307C33.5602 11.1484 34.5605 12.1488 34.5605 13.3779V32.3307C34.5605 33.5601 33.5602 34.5605 32.3307 34.5605Z" fill="#5B6373"/>
</svg>
