<svg width="35" height="26" viewBox="0 0 35 26" fill="none" xmlns="http://www.w3.org/2000/svg">
<path d="M17.2804 25.6417C17.2016 25.6417 17.1226 25.6248 17.0492 25.5917C16.9708 25.5559 15.1013 24.6982 12.6866 23.0791C10.4528 21.5813 7.3234 19.1244 5.10038 15.9261C4.92464 15.6733 4.98716 15.3262 5.23995 15.1502C5.4924 14.9748 5.83981 15.0369 6.01554 15.2897C9.67586 20.5553 15.9958 23.8364 17.2804 24.466C18.5649 23.8364 24.8849 20.5549 28.5462 15.2897C28.722 15.0369 29.0694 14.9748 29.3222 15.1502C29.5749 15.3262 29.6375 15.6733 29.4617 15.9261C27.2377 19.1244 24.1079 21.5813 21.8741 23.0791C19.4595 24.6982 17.5899 25.5559 17.5115 25.5917C17.4382 25.6248 17.3591 25.6417 17.2804 25.6417Z" fill="#5B6373"/>
<path d="M30.8209 12.8211C30.7527 12.8211 30.6831 12.8086 30.6158 12.7819C30.3296 12.6683 30.1893 12.3446 30.3029 12.0584C30.9091 10.5288 31.2163 8.96206 31.2163 7.40243C31.2163 3.40686 29.3877 1.11489 26.1995 1.11489C22.8102 1.11489 20.0515 3.07567 17.7653 7.10909C17.6663 7.28347 17.4811 7.39162 17.2804 7.39162C17.0796 7.39162 16.8944 7.28347 16.7954 7.10909C14.5095 3.07567 11.7509 1.11489 8.36159 1.11489C5.17338 1.11489 3.34475 3.40686 3.34475 7.40243C3.34475 8.96037 3.65228 10.5268 4.25924 12.0584C4.37279 12.3446 4.23254 12.6683 3.94629 12.7819C3.66039 12.8955 3.3363 12.7552 3.22275 12.469C2.56375 10.8063 2.22986 9.10164 2.22986 7.40243C2.22986 2.76746 4.52216 0 8.36159 0C10.637 0 12.7062 0.80229 14.5116 2.38389C15.5085 3.25749 16.4196 4.36191 17.2804 5.74276C18.1415 4.36191 19.0526 3.25749 20.0495 2.38389C21.8548 0.80229 23.9241 0 26.1995 0C30.0389 0 32.3312 2.76746 32.3312 7.40243C32.3312 9.10333 31.9973 10.8079 31.3393 12.469C31.2525 12.6876 31.0426 12.8211 30.8209 12.8211Z" fill="#5B6373"/>
<path d="M13.3787 20.6251C13.3659 20.6251 13.3533 20.6244 13.3402 20.6238C13.0752 20.6055 12.8599 20.4031 12.8258 20.1395L11.5335 10.2346L10.5744 14.071C10.5126 14.319 10.2895 14.493 10.0337 14.493H0.557277C0.249406 14.493 0 14.2436 0 13.9358C0 13.6279 0.249406 13.3785 0.557277 13.3785H9.59841L11.1651 7.11158C11.2304 6.85136 11.4703 6.67529 11.7383 6.69016C12.0056 6.7057 12.2243 6.90881 12.2587 7.17444L13.5717 17.2399L14.5128 13.7888C14.5791 13.5468 14.7994 13.3785 15.0505 13.3785H15.745L16.7443 9.88073C16.8156 9.63099 17.0492 9.4637 17.3094 9.47722C17.5686 9.49074 17.7842 9.681 17.8291 9.93683L18.9258 16.15L20.6321 5.48605C20.6747 5.21873 20.9034 5.02069 21.1741 5.01664C21.4452 5.0136 21.6794 5.20386 21.7301 5.46983L23.651 15.5559L24.5857 13.6867C24.6804 13.4975 24.8733 13.3785 25.0845 13.3785H34.0033C34.3112 13.3785 34.5606 13.6279 34.5606 13.9358C34.5606 14.2436 34.3112 14.493 34.0033 14.493H25.4289L23.9109 17.5299C23.8037 17.7438 23.5722 17.8654 23.3357 17.8323C23.0988 17.7999 22.9092 17.6194 22.8646 17.3845L21.2302 8.80403L19.503 19.5981C19.4601 19.8671 19.2293 20.0655 18.9572 20.0675H18.9525C18.6825 20.0678 18.451 19.8735 18.4036 19.6069L17.1519 12.5127L16.7014 14.0889C16.6331 14.3281 16.4145 14.493 16.1654 14.493H15.4763L13.916 20.2142C13.8498 20.4582 13.6284 20.6251 13.3787 20.6251Z" fill="#5B6373"/>
</svg>
