<svg width="24" height="25" viewBox="0 0 24 25" fill="none" xmlns="http://www.w3.org/2000/svg">
<path d="M14.25 21.4999L10.0594 15.2186C10.0264 15.1663 9.98079 15.1232 9.92669 15.0934C9.87259 15.0635 9.8118 15.0479 9.75 15.0479C9.6882 15.0479 9.62741 15.0635 9.57331 15.0934C9.51921 15.1232 9.47356 15.1663 9.44062 15.2186L7.48125 18.1624C7.4464 18.2141 7.3992 18.2563 7.34391 18.2852C7.28863 18.3141 7.22702 18.3287 7.16465 18.3278C7.10228 18.3269 7.04113 18.3104 6.98673 18.2799C6.93234 18.2494 6.88642 18.2057 6.85312 18.153L5.94375 16.7374C5.90857 16.6852 5.8611 16.6424 5.80552 16.6128C5.74994 16.5833 5.68795 16.5678 5.625 16.5678C5.56205 16.5678 5.50006 16.5833 5.44448 16.6128C5.3889 16.6424 5.34143 16.6852 5.30625 16.7374L2.25 21.4999H14.25Z" stroke="#4065AE" stroke-width="2" stroke-linecap="round" stroke-linejoin="round"/>
<path d="M14.25 3.5V8.75H19.5" stroke="#4065AE" stroke-width="2" stroke-linecap="round" stroke-linejoin="round"/>
<path d="M18 21.5H18.75C18.9489 21.5 19.1397 21.421 19.2803 21.2803C19.421 21.1397 19.5 20.9489 19.5 20.75V8.75L14.25 3.5H5.25C5.05109 3.5 4.86032 3.57902 4.71967 3.71967C4.57902 3.86032 4.5 4.05109 4.5 4.25V13.25" stroke="#4065AE" stroke-width="2" stroke-linecap="round" stroke-linejoin="round"/>
</svg>
