<svg width="17" height="33" viewBox="0 0 17 33" fill="none" xmlns="http://www.w3.org/2000/svg">
<path fill-rule="evenodd" clip-rule="evenodd" d="M0.35665 0.861542C0.469418 0.746939 0.603382 0.656013 0.750868 0.593974C0.898354 0.531934 1.05647 0.5 1.21615 0.5C1.37583 0.5 1.53394 0.531934 1.68142 0.593974C1.82891 0.656013 1.96287 0.746939 2.07564 0.861542L16.6434 15.629C16.7564 15.7434 16.8461 15.8792 16.9073 16.0287C16.9685 16.1782 17 16.3385 17 16.5003C17 16.6622 16.9685 16.8225 16.9073 16.972C16.8461 17.1215 16.7564 17.2573 16.6434 17.3716L2.07564 32.1391C1.84769 32.3702 1.53852 32.5 1.21615 32.5C0.893772 32.5 0.584603 32.3702 0.35665 32.1391C0.128698 31.908 0.000635598 31.5946 0.000635598 31.2678C0.000635598 30.941 0.128698 30.6276 0.35665 30.3965L14.0673 16.5003L0.35665 2.60411C0.243597 2.48979 0.153901 2.35399 0.0927012 2.20448C0.0315012 2.05497 0 1.89469 0 1.73282C0 1.57096 0.0315012 1.41068 0.0927012 1.26117C0.153901 1.11166 0.243597 0.975857 0.35665 0.861542Z" fill="white"/>
</svg>
