<svg width="16" height="16" viewBox="0 0 16 16" fill="none" xmlns="http://www.w3.org/2000/svg">
<path d="M15 14.1176H1C0.447715 14.1176 0 14.539 0 15.0588C0 15.5786 0.447715 16 1 16H15C15.5523 16 16 15.5786 16 15.0588C16 14.539 15.5523 14.1176 15 14.1176Z" fill="#5B6373"/>
<path d="M0 13.1765V15.0588C0 15.5786 0.447715 16 1 16C1.55228 16 2 15.5786 2 15.0588V13.1765C2 12.6567 1.55228 12.2353 1 12.2353C0.447715 12.2353 0 12.6567 0 13.1765Z" fill="#5B6373"/>
<path d="M14 13.1765V15.0588C14 15.5786 14.4477 16 15 16C15.5523 16 16 15.5786 16 15.0588V13.1765C16 12.6567 15.5523 12.2353 15 12.2353C14.4477 12.2353 14 12.6567 14 13.1765Z" fill="#5B6373"/>
<path d="M8.00142 11.2941C7.7941 11.2956 7.59142 11.2364 7.42142 11.1247L3.42142 8.47059C3.20583 8.32665 3.05956 8.10823 3.01459 7.86309C2.96961 7.61794 3.02959 7.366 3.18142 7.16236C3.2572 7.06057 3.35366 6.97391 3.46522 6.9074C3.57678 6.84088 3.70124 6.79582 3.8314 6.77482C3.96156 6.75382 4.09486 6.75729 4.22359 6.78504C4.35232 6.81278 4.47393 6.86425 4.58142 6.93647L8.00142 9.18589L11.4014 6.77647C11.6136 6.6267 11.8803 6.5624 12.1428 6.5977C12.4054 6.633 12.6423 6.76502 12.8014 6.96471C12.9605 7.1644 13.0289 7.41541 12.9914 7.66252C12.9539 7.90962 12.8136 8.13259 12.6014 8.28236L8.60142 11.1059C8.42832 11.2281 8.21779 11.2941 8.00142 11.2941Z" fill="#5B6373"/>
<path d="M8 9.41177C7.73478 9.41177 7.48043 9.3126 7.29289 9.1361C7.10536 8.9596 7 8.7202 7 8.47059V0.941176C7 0.691561 7.10536 0.452169 7.29289 0.275664C7.48043 0.0991593 7.73478 0 8 0C8.26522 0 8.51957 0.0991593 8.70711 0.275664C8.89464 0.452169 9 0.691561 9 0.941176V8.47059C9 8.7202 8.89464 8.9596 8.70711 9.1361C8.51957 9.3126 8.26522 9.41177 8 9.41177Z" fill="#5B6373"/>
</svg>
