<svg width="86" height="84" viewBox="0 0 86 84" fill="none" xmlns="http://www.w3.org/2000/svg">
<path d="M41.0245 17.2626L41.0246 17.2623H41.0188H17.8522C17.6651 17.241 17.4754 17.2588 17.2957 17.3146C17.115 17.3706 16.9483 17.4638 16.8067 17.588C16.6651 17.7122 16.5517 17.8646 16.4741 18.0352C16.3964 18.2058 16.3562 18.3908 16.3562 18.5778C16.3562 18.7649 16.3964 18.9499 16.4741 19.1205C16.5517 19.2911 16.6651 19.4435 16.8067 19.5677C16.9483 19.6919 17.115 19.7851 17.2957 19.8412C17.4754 19.8969 17.6651 19.9147 17.8522 19.8934H41.0188V19.8938L41.0245 19.8931C41.3509 19.8552 41.6519 19.7005 41.8705 19.4581C42.089 19.2157 42.2099 18.9025 42.2099 18.5778C42.2099 18.2532 42.089 17.94 41.8705 17.6976C41.6519 17.4552 41.3509 17.3005 41.0245 17.2626Z" fill="white" stroke="white" stroke-width="0.1"/>
<path d="M18.6668 29.164H18.6668V29.1647C18.6668 29.5162 18.8084 29.8531 19.0601 30.1014C19.3119 30.3497 19.6531 30.4891 20.0089 30.4891H36.5939C36.9496 30.4891 37.291 30.3497 37.5427 30.1014C37.7945 29.8531 37.9361 29.5162 37.9361 29.1647L37.9361 29.164C37.9312 28.8157 37.7875 28.4835 37.5362 28.2391C37.285 27.9947 36.9464 27.8579 36.5939 27.8579H20.0089C20.0089 27.8579 20.0089 27.8579 20.0089 27.8579C19.6563 27.8579 19.3178 27.9947 19.0665 28.2391C18.8153 28.4835 18.6716 28.8158 18.6668 29.164Z" fill="white" stroke="white" stroke-width="0.1"/>
<path d="M9.86407 29.164H9.86406V29.1647C9.86406 29.5162 10.0056 29.8531 10.2574 30.1014C10.5091 30.3497 10.8505 30.4891 11.2062 30.4891H13.7196V30.4891L13.7203 30.4891C14.0728 30.4843 14.4095 30.3428 14.6573 30.0951C14.9051 29.8473 15.044 29.5131 15.044 29.1647C15.044 28.8179 14.9043 28.4855 14.6558 28.2404C14.4074 27.9954 14.0707 27.8579 13.7196 27.8579H11.2062C11.2062 27.8579 11.2062 27.8579 11.2062 27.8579C10.8537 27.8579 10.5151 27.9947 10.2639 28.2391C10.0127 28.4835 9.86891 28.8157 9.86407 29.164Z" fill="white" stroke="white" stroke-width="0.1"/>
<path d="M28.8765 41.0865C29.2322 41.0865 29.5735 40.9471 29.8253 40.6989C30.077 40.4506 30.2186 40.1136 30.2186 39.7622C30.2186 39.4107 30.077 39.0738 29.8253 38.8255C29.5735 38.5772 29.2322 38.4379 28.8765 38.4379H20.0264C19.6707 38.4379 19.3295 38.5772 19.0777 38.8255C18.8259 39.0738 18.6844 39.4107 18.6844 39.7622C18.6844 40.1136 18.8259 40.4506 19.0777 40.6989C19.3295 40.9471 19.6707 41.0865 20.0264 41.0865H28.8765Z" fill="white" stroke="white" stroke-width="0.1"/>
<path d="M11.2062 41.0865H13.7196C14.0754 41.0865 14.4166 40.9471 14.6684 40.6989C14.9201 40.4506 15.0617 40.1136 15.0617 39.7622C15.0617 39.4107 14.9201 39.0738 14.6684 38.8255C14.4166 38.5772 14.0754 38.4379 13.7196 38.4379H11.2062C10.8505 38.4379 10.5091 38.5772 10.2574 38.8255C10.0056 39.0738 9.86406 39.4107 9.86406 39.7622C9.86406 40.1136 10.0056 40.4506 10.2574 40.6989C10.5091 40.9471 10.8505 41.0865 11.2062 41.0865Z" fill="white" stroke="white" stroke-width="0.1"/>
<path d="M9.86406 50.3579C9.86406 50.7094 10.0056 51.0463 10.2574 51.2946C10.5091 51.5429 10.8505 51.6823 11.2062 51.6823H22.3927C22.7485 51.6823 23.0897 51.5429 23.3415 51.2946C23.5933 51.0463 23.7348 50.7094 23.7348 50.3579C23.7348 50.0065 23.5933 49.6696 23.3415 49.4213C23.0897 49.173 22.7485 49.0336 22.3927 49.0336H11.2062C10.8505 49.0336 10.5091 49.173 10.2574 49.4213C10.0056 49.6696 9.86406 50.0065 9.86406 50.3579Z" fill="white" stroke="white" stroke-width="0.1"/>
<path d="M36.5928 49.0336H28.6809C28.3251 49.0336 27.9839 49.173 27.7321 49.4213C27.4803 49.6696 27.3387 50.0065 27.3387 50.3579C27.3387 50.7094 27.4803 51.0463 27.7321 51.2946C27.9839 51.5429 28.3251 51.6823 28.6809 51.6823H36.5928C36.9485 51.6823 37.2899 51.5429 37.5416 51.2946C37.7934 51.0463 37.9349 50.7094 37.9349 50.3579C37.9349 50.0065 37.7934 49.6696 37.5416 49.4213C37.2899 49.173 36.9485 49.0336 36.5928 49.0336Z" fill="white" stroke="white" stroke-width="0.1"/>
<path d="M36.5939 59.6988H20.0089C19.6531 59.6988 19.3119 59.8381 19.0601 60.0864C18.8084 60.3347 18.6668 60.6716 18.6668 61.0231C18.6668 61.3745 18.8084 61.7114 19.0601 61.9597C19.3119 62.208 19.6531 62.3474 20.0089 62.3474H36.5939C36.9496 62.3474 37.291 62.208 37.5427 61.9597C37.7945 61.7114 37.9361 61.3745 37.9361 61.0231C37.9361 60.6716 37.7945 60.3347 37.5427 60.0864C37.291 59.8381 36.9496 59.6988 36.5939 59.6988Z" fill="white" stroke="white" stroke-width="0.1"/>
<path d="M11.2062 59.6988C10.8505 59.6988 10.5091 59.8381 10.2574 60.0864C10.0056 60.3347 9.86406 60.6716 9.86406 61.0231C9.86406 61.3745 10.0056 61.7114 10.2574 61.9597C10.5091 62.208 10.8505 62.3474 11.2062 62.3474H13.7196C14.0754 62.3474 14.4166 62.208 14.6684 61.9597C14.9201 61.7114 15.0617 61.3745 15.0617 61.0231C15.0617 60.6716 14.9201 60.3347 14.6684 60.0864C14.4166 59.8381 14.0754 59.6988 13.7196 59.6988H11.2062Z" fill="white" stroke="white" stroke-width="0.1"/>
<mask id="path-10-outside-1_1374_1326" maskUnits="userSpaceOnUse" x="-0.466797" y="0" width="59" height="84" fill="black">
<rect fill="white" x="-0.466797" width="59" height="84"/>
<path d="M36.5894 80.4699H16.8892V72.8241C16.8845 71.1743 16.2167 69.5937 15.0322 68.4288C13.8477 67.2638 12.2431 66.6097 10.5702 66.6097H3.0654V10.872C3.06539 9.89352 3.45837 8.95486 4.15826 8.26134C4.85815 7.56782 5.80807 7.1759 6.80021 7.17128H11.8093V9.3882C11.8092 9.72317 11.9429 10.0447 12.1814 10.2832C12.4199 10.5217 12.7441 10.6579 13.0837 10.6625C13.4264 10.6625 13.755 10.5283 13.9974 10.2893C14.2397 10.0503 14.3758 9.72617 14.3758 9.3882V7.17128H22.6949V9.3882C22.6736 9.56688 22.6908 9.74801 22.7455 9.91962C22.8003 10.0912 22.8914 10.2494 23.0126 10.3839C23.1338 10.5183 23.2825 10.6259 23.449 10.6996C23.6154 10.7733 23.7957 10.8114 23.9781 10.8114C24.1605 10.8114 24.3409 10.7733 24.5074 10.6996C24.6738 10.6259 24.8225 10.5183 24.9437 10.3839C25.0649 10.2494 25.1559 10.0912 25.2106 9.91962C25.2654 9.74801 25.2827 9.56688 25.2614 9.3882V7.17128H33.6335V9.3882C33.6122 9.56688 33.6296 9.74801 33.6843 9.91962C33.7391 10.0912 33.83 10.2494 33.9513 10.3839C34.0725 10.5183 34.2212 10.6259 34.3876 10.6996C34.554 10.7733 34.7343 10.8114 34.9168 10.8114C35.0992 10.8114 35.2796 10.7733 35.446 10.6996C35.6124 10.6259 35.7611 10.5183 35.8824 10.3839C36.0036 10.2494 36.0946 10.0912 36.1493 9.91962C36.2041 9.74801 36.2214 9.56688 36.2001 9.3882V7.17128H44.5192V9.3882C44.5192 9.72617 44.6553 10.0503 44.8976 10.2893C45.1399 10.5283 45.4685 10.6625 45.8112 10.6625C46.1539 10.6625 46.4826 10.5283 46.7249 10.2893C46.9672 10.0503 47.1033 9.72617 47.1033 9.3882V7.17128H52.0948C53.0869 7.1759 54.0368 7.56782 54.7367 8.26134C55.4366 8.95486 55.8295 9.89352 55.8295 10.872V21.5552C55.8295 21.8932 55.9656 22.2173 56.2079 22.4563C56.4502 22.6952 56.779 22.8295 57.1216 22.8295C57.4613 22.8249 57.7853 22.6886 58.0238 22.4502C58.2623 22.2117 58.396 21.8901 58.396 21.5552V10.872C58.396 9.22222 57.7328 7.63976 56.5516 6.47155C55.3703 5.30335 53.7676 4.64473 52.0948 4.64011H47.1033V2.42319C47.1033 2.08523 46.9672 1.7611 46.7249 1.52212C46.4826 1.28314 46.1539 1.14887 45.8112 1.14887C45.4685 1.14887 45.1399 1.28314 44.8976 1.52212C44.6553 1.7611 44.5192 2.08523 44.5192 2.42319V4.64011H36.2001V2.42319C36.2214 2.24451 36.2041 2.06342 36.1493 1.8918C36.0946 1.72019 36.0036 1.56195 35.8824 1.42751C35.7611 1.29307 35.6124 1.18545 35.446 1.11176C35.2796 1.03808 35.0992 1 34.9168 1C34.7343 1 34.554 1.03808 34.3876 1.11176C34.2212 1.18545 34.0725 1.29307 33.9513 1.42751C33.83 1.56195 33.7391 1.72019 33.6843 1.8918C33.6296 2.06342 33.6122 2.24451 33.6335 2.42319V4.64011H25.3145V2.42319C25.3358 2.24451 25.3186 2.06342 25.2638 1.8918C25.209 1.72019 25.118 1.56195 24.9967 1.42751C24.8755 1.29307 24.7268 1.18545 24.5604 1.11176C24.394 1.03808 24.2137 1 24.0312 1C23.8488 1 23.6684 1.03808 23.502 1.11176C23.3356 1.18545 23.1869 1.29307 23.0657 1.42751C22.9444 1.56195 22.8535 1.72019 22.7987 1.8918C22.7439 2.06342 22.7266 2.24451 22.7479 2.42319V4.64011H14.429V2.42319C14.429 2.25585 14.3955 2.09014 14.3305 1.93554C14.2656 1.78093 14.1705 1.64045 14.0505 1.52212C13.9305 1.40379 13.788 1.30992 13.6312 1.24588C13.4745 1.18184 13.3065 1.14887 13.1368 1.14887C12.7972 1.15346 12.4731 1.28974 12.2346 1.52822C11.9961 1.7667 11.8624 2.08823 11.8624 2.42319V4.64011H6.85325C5.18043 4.64473 3.57777 5.30335 2.39657 6.47155C1.21536 7.63976 0.552004 9.22222 0.55201 10.872V67.8665C0.526934 67.9757 0.526934 68.089 0.55201 68.1982C0.544337 68.2386 0.544337 68.28 0.55201 68.3204C0.611878 68.451 0.695942 68.5693 0.799838 68.6695L14.6059 82.5123C14.7237 82.6365 14.8691 82.7321 15.0307 82.7916C15.1863 82.8613 15.3554 82.897 15.5264 82.8963H36.5187C36.6998 82.9173 36.8834 82.9003 37.0574 82.8463C37.2314 82.7923 37.3919 82.7025 37.5282 82.583C37.6646 82.4634 37.7737 82.3168 37.8484 82.1527C37.9232 81.9885 37.9618 81.8107 37.9618 81.6308C37.9618 81.4508 37.9232 81.273 37.8484 81.1088C37.7737 80.9447 37.6646 80.798 37.5282 80.6785C37.3919 80.5589 37.2314 80.4692 37.0574 80.4152C36.8834 80.3612 36.6998 80.3441 36.5187 80.3652L36.5894 80.4699ZM14.305 78.637L4.85313 69.1408H10.6234C11.6125 69.1454 12.5597 69.535 13.2591 70.2247C13.9585 70.9145 14.3534 71.8486 14.3581 72.8241L14.305 78.637Z"/>
</mask>
<path d="M36.5894 80.4699H16.8892V72.8241C16.8845 71.1743 16.2167 69.5937 15.0322 68.4288C13.8477 67.2638 12.2431 66.6097 10.5702 66.6097H3.0654V10.872C3.06539 9.89352 3.45837 8.95486 4.15826 8.26134C4.85815 7.56782 5.80807 7.1759 6.80021 7.17128H11.8093V9.3882C11.8092 9.72317 11.9429 10.0447 12.1814 10.2832C12.4199 10.5217 12.7441 10.6579 13.0837 10.6625C13.4264 10.6625 13.755 10.5283 13.9974 10.2893C14.2397 10.0503 14.3758 9.72617 14.3758 9.3882V7.17128H22.6949V9.3882C22.6736 9.56688 22.6908 9.74801 22.7455 9.91962C22.8003 10.0912 22.8914 10.2494 23.0126 10.3839C23.1338 10.5183 23.2825 10.6259 23.449 10.6996C23.6154 10.7733 23.7957 10.8114 23.9781 10.8114C24.1605 10.8114 24.3409 10.7733 24.5074 10.6996C24.6738 10.6259 24.8225 10.5183 24.9437 10.3839C25.0649 10.2494 25.1559 10.0912 25.2106 9.91962C25.2654 9.74801 25.2827 9.56688 25.2614 9.3882V7.17128H33.6335V9.3882C33.6122 9.56688 33.6296 9.74801 33.6843 9.91962C33.7391 10.0912 33.83 10.2494 33.9513 10.3839C34.0725 10.5183 34.2212 10.6259 34.3876 10.6996C34.554 10.7733 34.7343 10.8114 34.9168 10.8114C35.0992 10.8114 35.2796 10.7733 35.446 10.6996C35.6124 10.6259 35.7611 10.5183 35.8824 10.3839C36.0036 10.2494 36.0946 10.0912 36.1493 9.91962C36.2041 9.74801 36.2214 9.56688 36.2001 9.3882V7.17128H44.5192V9.3882C44.5192 9.72617 44.6553 10.0503 44.8976 10.2893C45.1399 10.5283 45.4685 10.6625 45.8112 10.6625C46.1539 10.6625 46.4826 10.5283 46.7249 10.2893C46.9672 10.0503 47.1033 9.72617 47.1033 9.3882V7.17128H52.0948C53.0869 7.1759 54.0368 7.56782 54.7367 8.26134C55.4366 8.95486 55.8295 9.89352 55.8295 10.872V21.5552C55.8295 21.8932 55.9656 22.2173 56.2079 22.4563C56.4502 22.6952 56.779 22.8295 57.1216 22.8295C57.4613 22.8249 57.7853 22.6886 58.0238 22.4502C58.2623 22.2117 58.396 21.8901 58.396 21.5552V10.872C58.396 9.22222 57.7328 7.63976 56.5516 6.47155C55.3703 5.30335 53.7676 4.64473 52.0948 4.64011H47.1033V2.42319C47.1033 2.08523 46.9672 1.7611 46.7249 1.52212C46.4826 1.28314 46.1539 1.14887 45.8112 1.14887C45.4685 1.14887 45.1399 1.28314 44.8976 1.52212C44.6553 1.7611 44.5192 2.08523 44.5192 2.42319V4.64011H36.2001V2.42319C36.2214 2.24451 36.2041 2.06342 36.1493 1.8918C36.0946 1.72019 36.0036 1.56195 35.8824 1.42751C35.7611 1.29307 35.6124 1.18545 35.446 1.11176C35.2796 1.03808 35.0992 1 34.9168 1C34.7343 1 34.554 1.03808 34.3876 1.11176C34.2212 1.18545 34.0725 1.29307 33.9513 1.42751C33.83 1.56195 33.7391 1.72019 33.6843 1.8918C33.6296 2.06342 33.6122 2.24451 33.6335 2.42319V4.64011H25.3145V2.42319C25.3358 2.24451 25.3186 2.06342 25.2638 1.8918C25.209 1.72019 25.118 1.56195 24.9967 1.42751C24.8755 1.29307 24.7268 1.18545 24.5604 1.11176C24.394 1.03808 24.2137 1 24.0312 1C23.8488 1 23.6684 1.03808 23.502 1.11176C23.3356 1.18545 23.1869 1.29307 23.0657 1.42751C22.9444 1.56195 22.8535 1.72019 22.7987 1.8918C22.7439 2.06342 22.7266 2.24451 22.7479 2.42319V4.64011H14.429V2.42319C14.429 2.25585 14.3955 2.09014 14.3305 1.93554C14.2656 1.78093 14.1705 1.64045 14.0505 1.52212C13.9305 1.40379 13.788 1.30992 13.6312 1.24588C13.4745 1.18184 13.3065 1.14887 13.1368 1.14887C12.7972 1.15346 12.4731 1.28974 12.2346 1.52822C11.9961 1.7667 11.8624 2.08823 11.8624 2.42319V4.64011H6.85325C5.18043 4.64473 3.57777 5.30335 2.39657 6.47155C1.21536 7.63976 0.552004 9.22222 0.55201 10.872V67.8665C0.526934 67.9757 0.526934 68.089 0.55201 68.1982C0.544337 68.2386 0.544337 68.28 0.55201 68.3204C0.611878 68.451 0.695942 68.5693 0.799838 68.6695L14.6059 82.5123C14.7237 82.6365 14.8691 82.7321 15.0307 82.7916C15.1863 82.8613 15.3554 82.897 15.5264 82.8963H36.5187C36.6998 82.9173 36.8834 82.9003 37.0574 82.8463C37.2314 82.7923 37.3919 82.7025 37.5282 82.583C37.6646 82.4634 37.7737 82.3168 37.8484 82.1527C37.9232 81.9885 37.9618 81.8107 37.9618 81.6308C37.9618 81.4508 37.9232 81.273 37.8484 81.1088C37.7737 80.9447 37.6646 80.798 37.5282 80.6785C37.3919 80.5589 37.2314 80.4692 37.0574 80.4152C36.8834 80.3612 36.6998 80.3441 36.5187 80.3652L36.5894 80.4699ZM14.305 78.637L4.85313 69.1408H10.6234C11.6125 69.1454 12.5597 69.535 13.2591 70.2247C13.9585 70.9145 14.3534 71.8486 14.3581 72.8241L14.305 78.637Z" fill="white"/>
<path d="M36.5894 80.4699H16.8892V72.8241C16.8845 71.1743 16.2167 69.5937 15.0322 68.4288C13.8477 67.2638 12.2431 66.6097 10.5702 66.6097H3.0654V10.872C3.06539 9.89352 3.45837 8.95486 4.15826 8.26134C4.85815 7.56782 5.80807 7.1759 6.80021 7.17128H11.8093V9.3882C11.8092 9.72317 11.9429 10.0447 12.1814 10.2832C12.4199 10.5217 12.7441 10.6579 13.0837 10.6625C13.4264 10.6625 13.755 10.5283 13.9974 10.2893C14.2397 10.0503 14.3758 9.72617 14.3758 9.3882V7.17128H22.6949V9.3882C22.6736 9.56688 22.6908 9.74801 22.7455 9.91962C22.8003 10.0912 22.8914 10.2494 23.0126 10.3839C23.1338 10.5183 23.2825 10.6259 23.449 10.6996C23.6154 10.7733 23.7957 10.8114 23.9781 10.8114C24.1605 10.8114 24.3409 10.7733 24.5074 10.6996C24.6738 10.6259 24.8225 10.5183 24.9437 10.3839C25.0649 10.2494 25.1559 10.0912 25.2106 9.91962C25.2654 9.74801 25.2827 9.56688 25.2614 9.3882V7.17128H33.6335V9.3882C33.6122 9.56688 33.6296 9.74801 33.6843 9.91962C33.7391 10.0912 33.83 10.2494 33.9513 10.3839C34.0725 10.5183 34.2212 10.6259 34.3876 10.6996C34.554 10.7733 34.7343 10.8114 34.9168 10.8114C35.0992 10.8114 35.2796 10.7733 35.446 10.6996C35.6124 10.6259 35.7611 10.5183 35.8824 10.3839C36.0036 10.2494 36.0946 10.0912 36.1493 9.91962C36.2041 9.74801 36.2214 9.56688 36.2001 9.3882V7.17128H44.5192V9.3882C44.5192 9.72617 44.6553 10.0503 44.8976 10.2893C45.1399 10.5283 45.4685 10.6625 45.8112 10.6625C46.1539 10.6625 46.4826 10.5283 46.7249 10.2893C46.9672 10.0503 47.1033 9.72617 47.1033 9.3882V7.17128H52.0948C53.0869 7.1759 54.0368 7.56782 54.7367 8.26134C55.4366 8.95486 55.8295 9.89352 55.8295 10.872V21.5552C55.8295 21.8932 55.9656 22.2173 56.2079 22.4563C56.4502 22.6952 56.779 22.8295 57.1216 22.8295C57.4613 22.8249 57.7853 22.6886 58.0238 22.4502C58.2623 22.2117 58.396 21.8901 58.396 21.5552V10.872C58.396 9.22222 57.7328 7.63976 56.5516 6.47155C55.3703 5.30335 53.7676 4.64473 52.0948 4.64011H47.1033V2.42319C47.1033 2.08523 46.9672 1.7611 46.7249 1.52212C46.4826 1.28314 46.1539 1.14887 45.8112 1.14887C45.4685 1.14887 45.1399 1.28314 44.8976 1.52212C44.6553 1.7611 44.5192 2.08523 44.5192 2.42319V4.64011H36.2001V2.42319C36.2214 2.24451 36.2041 2.06342 36.1493 1.8918C36.0946 1.72019 36.0036 1.56195 35.8824 1.42751C35.7611 1.29307 35.6124 1.18545 35.446 1.11176C35.2796 1.03808 35.0992 1 34.9168 1C34.7343 1 34.554 1.03808 34.3876 1.11176C34.2212 1.18545 34.0725 1.29307 33.9513 1.42751C33.83 1.56195 33.7391 1.72019 33.6843 1.8918C33.6296 2.06342 33.6122 2.24451 33.6335 2.42319V4.64011H25.3145V2.42319C25.3358 2.24451 25.3186 2.06342 25.2638 1.8918C25.209 1.72019 25.118 1.56195 24.9967 1.42751C24.8755 1.29307 24.7268 1.18545 24.5604 1.11176C24.394 1.03808 24.2137 1 24.0312 1C23.8488 1 23.6684 1.03808 23.502 1.11176C23.3356 1.18545 23.1869 1.29307 23.0657 1.42751C22.9444 1.56195 22.8535 1.72019 22.7987 1.8918C22.7439 2.06342 22.7266 2.24451 22.7479 2.42319V4.64011H14.429V2.42319C14.429 2.25585 14.3955 2.09014 14.3305 1.93554C14.2656 1.78093 14.1705 1.64045 14.0505 1.52212C13.9305 1.40379 13.788 1.30992 13.6312 1.24588C13.4745 1.18184 13.3065 1.14887 13.1368 1.14887C12.7972 1.15346 12.4731 1.28974 12.2346 1.52822C11.9961 1.7667 11.8624 2.08823 11.8624 2.42319V4.64011H6.85325C5.18043 4.64473 3.57777 5.30335 2.39657 6.47155C1.21536 7.63976 0.552004 9.22222 0.55201 10.872V67.8665C0.526934 67.9757 0.526934 68.089 0.55201 68.1982C0.544337 68.2386 0.544337 68.28 0.55201 68.3204C0.611878 68.451 0.695942 68.5693 0.799838 68.6695L14.6059 82.5123C14.7237 82.6365 14.8691 82.7321 15.0307 82.7916C15.1863 82.8613 15.3554 82.897 15.5264 82.8963H36.5187C36.6998 82.9173 36.8834 82.9003 37.0574 82.8463C37.2314 82.7923 37.3919 82.7025 37.5282 82.583C37.6646 82.4634 37.7737 82.3168 37.8484 82.1527C37.9232 81.9885 37.9618 81.8107 37.9618 81.6308C37.9618 81.4508 37.9232 81.273 37.8484 81.1088C37.7737 80.9447 37.6646 80.798 37.5282 80.6785C37.3919 80.5589 37.2314 80.4692 37.0574 80.4152C36.8834 80.3612 36.6998 80.3441 36.5187 80.3652L36.5894 80.4699ZM14.305 78.637L4.85313 69.1408H10.6234C11.6125 69.1454 12.5597 69.535 13.2591 70.2247C13.9585 70.9145 14.3534 71.8486 14.3581 72.8241L14.305 78.637Z" stroke="white" stroke-width="0.2" mask="url(#path-10-outside-1_1374_1326)"/>
<path d="M36.5916 70.1729H22.3253C21.9696 70.1729 21.6283 70.3122 21.3765 70.5605C21.1248 70.8088 20.9832 71.1457 20.9832 71.4972C20.9832 71.8486 21.1248 72.1856 21.3765 72.4339C21.6283 72.6821 21.9695 72.8215 22.3253 72.8215H36.5916C36.9473 72.8215 37.2887 72.6821 37.5404 72.4339C37.7922 72.1856 37.9338 71.8486 37.9338 71.4972C37.9338 71.1457 37.7922 70.8088 37.5404 70.5605C37.2887 70.3122 36.9473 70.1729 36.5916 70.1729Z" fill="white" stroke="white" stroke-width="0.1"/>
<path d="M52.2088 27.8579L52.2087 27.8579C49.6481 27.8625 47.1936 28.8678 45.3827 30.6537C43.5719 32.4396 42.5524 34.8606 42.5477 37.3865V37.3866V73.5035C42.5477 76.0325 43.5651 78.458 45.3764 80.2477C47.1878 82.0374 49.645 83.0451 52.2087 83.0497H52.2088H75.8385H75.8386C78.4039 83.0451 80.8629 82.038 82.677 80.2488C84.4912 78.4597 85.5127 76.0342 85.5174 73.5036V73.5035V37.3866V37.3865C85.5127 34.8575 84.4906 32.4339 82.6759 30.6475C80.8612 28.8611 78.4022 27.8579 75.8385 27.8579L52.2088 27.8579ZM82.8686 73.5035C82.8686 75.3419 82.1281 77.1051 80.8098 78.4053C79.4915 79.7054 77.7033 80.436 75.8385 80.436H52.2088C50.3441 80.436 48.5559 79.7054 47.2376 78.4053C45.9192 77.1051 45.1788 75.3419 45.1788 73.5035V37.3866C45.1788 35.5482 45.9192 33.785 47.2376 32.4849C48.5559 31.1847 50.3441 30.4541 52.2088 30.4541H75.8385C77.7033 30.4541 79.4915 31.1847 80.8098 32.4849C82.1281 33.785 82.8686 35.5482 82.8686 37.3866V73.5035Z" fill="white" stroke="white" stroke-width="0.1"/>
<path d="M64.0252 33.1322L64.0252 33.1322H64.0245C63.8483 33.1322 63.6739 33.1664 63.5111 33.2329C63.3483 33.2994 63.2004 33.3968 63.0758 33.5198C62.9511 33.6427 62.8521 33.7887 62.7846 33.9494C62.7171 34.1102 62.6824 34.2824 62.6824 34.4564L62.6824 76.4561L62.6824 76.4568C62.6873 76.8051 62.8309 77.1374 63.0822 77.3818C63.3334 77.6261 63.6719 77.763 64.0245 77.7629C64.3755 77.7629 64.7124 77.6254 64.9608 77.3804C65.2093 77.1354 65.349 76.8029 65.349 76.4561V34.4565C65.349 34.4565 65.349 34.4564 65.349 34.4564C65.349 34.1081 65.2099 33.7739 64.9621 33.5261C64.7144 33.2784 64.3777 33.1369 64.0252 33.1322Z" fill="white" stroke="white" stroke-width="0.1"/>
<path d="M54.1848 35.6634C53.1878 35.6634 52.2132 35.955 51.3842 36.5013C50.5551 37.0476 49.9089 37.8241 49.5272 38.7329C49.1455 39.6416 49.0457 40.6416 49.2403 41.6063C49.4348 42.571 49.9151 43.4571 50.6202 44.1525C51.3253 44.8479 52.2237 45.3214 53.2015 45.5132C54.1793 45.705 55.1927 45.6065 56.1138 45.2303C57.035 44.854 57.8224 44.2167 58.3765 43.399C58.9305 42.5812 59.2262 41.6197 59.2262 40.6361C59.2262 39.317 58.695 38.0521 57.7494 37.1196C56.8039 36.1871 55.5216 35.6634 54.1848 35.6634ZM54.1844 42.9776C53.7138 42.9809 53.253 42.8464 52.8601 42.5911C52.4673 42.3358 52.1602 41.9712 51.9779 41.5438C51.7955 41.1163 51.7461 40.6451 51.8357 40.1899C51.9253 39.7348 52.1501 39.316 52.4815 38.9867C52.8128 38.6575 53.236 38.4327 53.6973 38.3409C54.1586 38.2491 54.6371 38.2945 55.0721 38.4713C55.5072 38.6481 55.8791 38.9483 56.1407 39.3337C56.4024 39.7191 56.542 40.1724 56.542 40.6361C56.542 41.2539 56.2944 41.8468 55.8528 42.2855C55.4112 42.7242 54.8115 42.973 54.1844 42.9776Z" fill="white" stroke="white" stroke-width="0.1"/>
<path d="M54.1848 57.7777L54.1844 57.7777C53.7131 57.781 53.2515 57.6461 52.8583 57.39C52.4651 57.1339 52.1581 56.7684 51.9763 56.3399C51.7945 55.9115 51.746 55.4394 51.837 54.9837C51.928 54.5281 52.1545 54.1093 52.4876 53.7808C52.8207 53.4522 53.2455 53.2288 53.708 53.1389C54.1704 53.0491 54.6495 53.0969 55.0842 53.2763C55.519 53.4558 55.8896 53.7586 56.1492 54.1463C56.4087 54.5339 56.5454 54.9889 56.542 55.4532V55.4536C56.542 55.7587 56.4811 56.0609 56.3627 56.3428C56.2443 56.6247 56.0707 56.8809 55.8519 57.0967C55.633 57.3126 55.3731 57.4838 55.0871 57.6007C54.801 57.7175 54.4944 57.7777 54.1848 57.7777ZM54.1848 50.481C53.1878 50.481 52.2132 50.7725 51.3842 51.3188C50.5551 51.8652 49.9089 52.6417 49.5272 53.5504C49.1455 54.4592 49.0457 55.4591 49.2403 56.4239C49.4348 57.3886 49.9151 58.2747 50.6202 58.9701C51.3253 59.6655 52.2237 60.1389 53.2015 60.3308C54.1793 60.5226 55.1927 60.4241 56.1138 60.0478C57.035 59.6716 57.8224 59.0343 58.3765 58.2165C58.9305 57.3988 59.2262 56.4373 59.2262 55.4536C59.2262 54.1346 58.695 52.8697 57.7494 51.9372C56.8039 51.0047 55.5216 50.481 54.1848 50.481Z" fill="white" stroke="white" stroke-width="0.1"/>
<path d="M54.1848 65.2864C53.1878 65.2864 52.2132 65.578 51.3842 66.1243C50.5551 66.6706 49.9089 67.4472 49.5272 68.3559C49.1455 69.2646 49.0457 70.2646 49.2403 71.2293C49.4348 72.194 49.9151 73.0801 50.6202 73.7755C51.3253 74.4709 52.2237 74.9444 53.2015 75.1362C54.1793 75.328 55.1927 75.2295 56.1138 74.8533C57.035 74.477 57.8224 73.8397 58.3765 73.022C58.9305 72.2042 59.2262 71.2427 59.2262 70.2591C59.2262 68.94 58.695 67.6751 57.7494 66.7426C56.8039 65.8101 55.5216 65.2864 54.1848 65.2864ZM54.1855 72.6006C53.7187 72.5938 53.2643 72.4515 52.8791 72.1916C52.4939 71.9316 52.195 71.5655 52.0196 71.1392C51.8442 70.7129 51.8002 70.2451 51.8929 69.7942C51.9856 69.3433 52.211 68.9293 52.541 68.6039C52.871 68.2784 53.2909 68.056 53.7484 67.9645C54.206 67.873 54.6807 67.9165 55.1133 68.0896C55.5459 68.2627 55.9172 68.5576 56.1807 68.9373C56.4442 69.3171 56.5883 69.7649 56.5951 70.2249C56.5998 70.538 56.5407 70.8489 56.4213 71.1392C56.3019 71.4295 56.1247 71.6932 55.9 71.9148C55.6754 72.1363 55.4079 72.3112 55.1133 72.429C54.8188 72.5468 54.5033 72.6052 54.1855 72.6006Z" fill="white" stroke="white" stroke-width="0.1"/>
<path d="M73.8645 35.6634C72.8675 35.6634 71.8929 35.955 71.0639 36.5013C70.2348 37.0476 69.5885 37.8241 69.2069 38.7329C68.8252 39.6416 68.7254 40.6416 68.92 41.6063C69.1145 42.571 69.5948 43.4571 70.2999 44.1525C71.005 44.8479 71.9033 45.3214 72.8812 45.5132C73.859 45.705 74.8724 45.6065 75.7935 45.2303C76.7146 44.854 77.5021 44.2167 78.0562 43.399C78.6102 42.5812 78.9059 41.6197 78.9059 40.6361C78.9059 39.317 78.3747 38.0521 77.4291 37.1196C76.4836 36.1871 75.2013 35.6634 73.8645 35.6634ZM73.8641 42.9776C73.3935 42.9809 72.9327 42.8464 72.5398 42.5911C72.147 42.3358 71.8399 41.9712 71.6575 41.5438C71.4752 41.1163 71.4258 40.6451 71.5154 40.1899C71.605 39.7348 71.8298 39.316 72.1611 38.9867C72.4925 38.6575 72.9157 38.4327 73.377 38.3409C73.8383 38.2491 74.3168 38.2945 74.7518 38.4713C75.1869 38.6481 75.5588 38.9483 75.8204 39.3337C76.0821 39.7191 76.2218 40.1724 76.2218 40.6361C76.2218 41.2539 75.9741 41.8468 75.5325 42.2855C75.0909 42.7242 74.4912 42.973 73.8641 42.9776Z" fill="white" stroke="white" stroke-width="0.1"/>
<path d="M73.8645 50.481C72.8675 50.481 71.8929 50.7725 71.0639 51.3188C70.2348 51.8652 69.5885 52.6417 69.2069 53.5504C68.8252 54.4592 68.7254 55.4591 68.92 56.4239C69.1145 57.3886 69.5948 58.2747 70.2999 58.9701C71.005 59.6655 71.9033 60.1389 72.8812 60.3308C73.859 60.5226 74.8724 60.4241 75.7935 60.0478C76.7146 59.6716 77.5021 59.0343 78.0562 58.2165C78.6102 57.3988 78.9059 56.4373 78.9059 55.4536C78.9059 54.1346 78.3747 52.8697 77.4291 51.9372C76.4836 51.0047 75.2013 50.481 73.8645 50.481ZM73.8641 57.7777C73.3928 57.781 72.9312 57.6461 72.538 57.39C72.1448 57.1339 71.8378 56.7684 71.656 56.3399C71.4742 55.9115 71.4257 55.4394 71.5167 54.9837C71.6077 54.5281 71.8342 54.1093 72.1673 53.7808C72.5004 53.4522 72.9252 53.2288 73.3877 53.1389C73.8501 53.0491 74.3292 53.0969 74.7639 53.2763C75.1986 53.4558 75.5693 53.7586 75.8289 54.1463C76.0884 54.5339 76.2252 54.9889 76.2218 55.4532C76.2172 56.0681 75.9675 56.6567 75.5265 57.0917C75.0854 57.5267 74.4882 57.7732 73.8641 57.7777Z" fill="white" stroke="white" stroke-width="0.1"/>
<path d="M73.8645 65.2864C72.8675 65.2864 71.8929 65.578 71.0639 66.1243C70.2348 66.6706 69.5885 67.4472 69.2069 68.3559C68.8252 69.2646 68.7254 70.2646 68.92 71.2293C69.1145 72.194 69.5948 73.0801 70.2999 73.7755C71.005 74.4709 71.9033 74.9444 72.8812 75.1362C73.859 75.328 74.8724 75.2295 75.7935 74.8533C76.7146 74.477 77.5021 73.8397 78.0562 73.022C78.6102 72.2042 78.9059 71.2427 78.9059 70.2591C78.9059 68.94 78.3747 67.6751 77.4291 66.7426C76.4836 65.8101 75.2013 65.2864 73.8645 65.2864ZM73.8641 72.6006C73.3935 72.6039 72.9327 72.4694 72.5398 72.2141C72.147 71.9588 71.8399 71.5942 71.6575 71.1668C71.4752 70.7393 71.4258 70.2681 71.5154 69.8129C71.605 69.3578 71.8298 68.939 72.1611 68.6097C72.4925 68.2805 72.9157 68.0557 73.377 67.9639C73.8383 67.8721 74.3168 67.9175 74.7518 68.0943C75.1869 68.2711 75.5588 68.5713 75.8204 68.9567C76.0821 69.3421 76.2218 69.7954 76.2218 70.2591C76.2218 70.8769 75.9741 71.4698 75.5325 71.9085C75.0909 72.3472 74.4912 72.596 73.8641 72.6006Z" fill="white" stroke="white" stroke-width="0.1"/>
</svg>
