<svg width="92" height="84" viewBox="0 0 92 84" fill="none" xmlns="http://www.w3.org/2000/svg">
<path d="M70.5752 4.39769H70.55H70.4527H70.451L70.451 4.39763C68.9487 4.29592 67.4414 4.29084 65.9384 4.38068C65.9384 4.38068 65.9384 4.38068 65.9384 4.38068L65.9369 4.35572C65.0617 4.41086 64.3092 3.71959 64.2569 2.81205L70.5752 4.39769ZM70.5752 4.39769L70.5752 4.39657C71.4535 4.40941 72.1805 3.6887 72.2068 2.77801C72.2334 1.85772 71.5358 1.0872 70.6461 1.05937C69.0134 0.951606 67.3767 0.947373 65.744 1.04497L65.744 1.04497C64.8542 1.10016 64.178 1.89307 64.2319 2.8135L70.5752 4.39769Z" fill="white" stroke="white" stroke-width="0.05"/>
<path d="M46.0423 83.0229H46.0004C45.1105 83.0229 44.391 82.2755 44.391 81.355V8.84189C44.391 8.23185 44.7121 7.67037 45.229 7.37741L45.2413 7.39916M46.0423 83.0229L90.8963 7.39332M46.0423 83.0229L46.0415 83.0214M46.0423 83.0229L46.0415 83.0214M45.2413 7.39916L45.2289 7.37745C48.1077 5.73384 51.1263 4.36843 54.2458 3.29943C54.6563 3.14442 55.1092 3.16949 55.5014 3.36678L55.5014 3.3668C55.8937 3.56501 56.1909 3.91904 56.3262 4.34851C56.4615 4.77795 56.4233 5.24612 56.2199 5.64555L56.2199 5.64559C56.0158 6.04485 55.6646 6.34209 55.2459 6.46803C52.6141 7.36925 50.0599 8.49683 47.6097 9.83976V78.6711C53.9711 75.405 60.9726 73.7032 68.0717 73.6997C75.17 73.6963 82.1739 75.3897 88.5377 78.6498V9.84683C86.1563 8.56471 83.681 7.47696 81.1349 6.59595L81.1431 6.57232M45.2413 7.39916C44.7326 7.68754 44.416 8.24055 44.416 8.84189V81.355C44.416 82.2527 45.1098 82.9819 45.9718 82.9977L54.2542 3.32296C51.1362 4.39146 48.1188 5.75626 45.2413 7.39916ZM81.1431 6.57232L81.135 6.59598C80.2905 6.30724 79.832 5.36422 80.1091 4.49013C80.3871 3.61488 81.2967 3.13765 82.1417 3.42656L82.1418 3.4266C85.1687 4.47626 88.1024 5.7966 90.9085 7.37152M81.1431 6.57232C80.312 6.28819 79.8597 5.35945 80.1329 4.4977C80.4069 3.6351 81.3026 3.16608 82.1336 3.45022L88.5627 9.8319C86.1761 8.54607 83.6952 7.4554 81.1431 6.57232ZM90.9085 7.37152L90.8963 7.39332M90.9085 7.37152C90.9085 7.3715 90.9085 7.37149 90.9085 7.37147L90.8963 7.39332M90.9085 7.37152C91.432 7.66278 91.7573 8.22855 91.7564 8.84288V81.356C91.7564 81.9403 91.461 82.4811 90.9774 82.7826C90.4945 83.0843 89.8935 83.1015 89.3948 82.8292L89.3948 82.8291C75.3893 75.1353 61.0469 75.1352 46.7422 82.8292M90.8963 7.39332C91.4116 7.68 91.7322 8.23724 91.7314 8.84284V81.356C91.7314 81.9319 91.4402 82.4646 90.9642 82.7614C90.489 83.0583 89.8976 83.0752 89.4068 82.8072C75.3938 75.1093 61.0424 75.1093 46.7304 82.8072M46.7422 82.8292C46.7423 82.8292 46.7423 82.8292 46.7424 82.8292L46.7304 82.8072M46.7422 82.8292L46.7304 82.8072M46.7422 82.8292C46.5259 82.9475 46.2858 83.0133 46.0415 83.0214M46.7304 82.8072C46.5138 82.9257 46.2729 82.9906 46.0282 82.9968L46.0415 83.0214" fill="white" stroke="white" stroke-width="0.05"/>
<path d="M1.94046 83.025H1.85388C0.964028 83.025 0.244533 82.2776 0.244533 81.3571L0.244533 8.84829L0.244533 8.84826H0.269531L1.94046 83.025ZM1.94046 83.025L1.93726 83.023L1.94046 83.025ZM23.8167 73.7037C16.7618 73.7561 9.80791 75.4446 3.46378 78.6456V9.85319C17.1713 2.50951 30.939 2.50375 44.392 9.84288V78.6747C37.9754 75.4722 30.9573 73.7754 23.8371 73.7047L23.8368 73.7035L23.8167 73.7037Z" fill="white" stroke="white" stroke-width="0.05"/>
<path d="M57.0902 24.0368H79.2754C80.1653 24.0368 80.8856 23.2895 80.8856 22.3689C80.8856 21.4484 80.1653 20.701 79.2754 20.701H57.0902C56.2004 20.701 55.4809 21.4485 55.4809 22.3689C55.4809 23.2894 56.2004 24.0368 57.0902 24.0368Z" fill="white" stroke="white" stroke-width="0.05"/>
<path d="M57.0902 37.0955H79.2754C80.1653 37.0955 80.8856 36.3481 80.8856 35.4276C80.8856 34.5071 80.1653 33.7588 79.2754 33.7588H57.0902C56.2003 33.7588 55.4809 34.5071 55.4809 35.4276C55.4809 36.348 56.2004 37.0955 57.0902 37.0955Z" fill="white" stroke="white" stroke-width="0.05"/>
<path d="M57.0902 50.1561H79.2754C80.1653 50.1561 80.8856 49.4087 80.8856 48.4882C80.8856 47.5677 80.1653 46.8203 79.2754 46.8203H57.0902C56.2004 46.8203 55.4809 47.5677 55.4809 48.4882C55.4809 49.4087 56.2004 50.1561 57.0902 50.1561Z" fill="white" stroke="white" stroke-width="0.05"/>
<path d="M57.0902 63.2169H79.2754C80.1653 63.2169 80.8856 62.4695 80.8856 61.549C80.8856 60.6285 80.1653 59.8803 79.2754 59.8803H57.0902C56.2003 59.8803 55.4809 60.6285 55.4809 61.549C55.4809 62.4695 56.2004 63.2169 57.0902 63.2169Z" fill="white" stroke="white" stroke-width="0.05"/>
<path d="M12.7277 24.0368H34.913C35.8028 24.0368 36.5223 23.2894 36.5223 22.3689C36.5223 21.4485 35.8028 20.701 34.913 20.701H12.7277C11.8379 20.701 11.1176 21.4484 11.1176 22.3689C11.1176 23.2895 11.8379 24.0368 12.7277 24.0368Z" fill="white" stroke="white" stroke-width="0.05"/>
<path d="M12.7277 37.0955H34.913C35.8028 37.0955 36.5223 36.348 36.5223 35.4276C36.5223 34.5071 35.8028 33.7588 34.913 33.7588H12.7277C11.8379 33.7588 11.1176 34.5071 11.1176 35.4276C11.1176 36.3481 11.8379 37.0955 12.7277 37.0955Z" fill="white" stroke="white" stroke-width="0.05"/>
<path d="M12.7277 50.1561H34.913C35.8028 50.1561 36.5223 49.4087 36.5223 48.4882C36.5223 47.5677 35.8028 46.8203 34.913 46.8203H12.7277C11.8379 46.8203 11.1176 47.5677 11.1176 48.4882C11.1176 49.4087 11.8379 50.1561 12.7277 50.1561Z" fill="white" stroke="white" stroke-width="0.05"/>
<path d="M12.7277 63.2169H34.913C35.8028 63.2169 36.5223 62.4695 36.5223 61.549C36.5223 60.6285 35.8028 59.8803 34.913 59.8803H12.7277C11.8379 59.8803 11.1176 60.6285 11.1176 61.549C11.1176 62.4695 11.8379 63.2169 12.7277 63.2169Z" fill="white" stroke="white" stroke-width="0.05"/>
</svg>
