<svg width="75" height="86" viewBox="0 0 75 86" fill="none" xmlns="http://www.w3.org/2000/svg">
<path d="M69.6296 16.3508C68.2915 21.352 63.1605 24.3158 58.173 22.9774C53.1854 21.639 50.2215 16.5028 51.5595 11.5016C52.8976 6.50039 58.0287 3.53658 63.0162 4.875C68.0037 6.21342 70.9677 11.3496 69.6296 16.3508Z" stroke="white" stroke-width="4"/>
<path d="M69.6296 69.6492C68.2915 64.648 63.1605 61.6842 58.173 63.0226C53.1854 64.361 50.2215 69.4972 51.5595 74.4984C52.8976 79.4996 58.0287 82.4634 63.0162 81.125C68.0037 79.7866 70.9677 74.6504 69.6296 69.6492Z" stroke="white" stroke-width="4"/>
<path d="M21.2071 41.0333C21.2071 46.2115 17.0165 50.404 11.8535 50.404C6.69057 50.404 2.5 46.2115 2.5 41.0333C2.5 35.8552 6.69057 31.6627 11.8535 31.6627C17.0165 31.6627 21.2071 35.8552 21.2071 41.0333Z" stroke="white" stroke-width="4"/>
<line x1="2" y1="-2" x2="24.5379" y2="-2" transform="matrix(-0.865698 0.500566 -0.499434 -0.866352 48.1562 20.312)" stroke="white" stroke-width="4" stroke-linecap="round"/>
<line x1="2" y1="-2" x2="24.5379" y2="-2" transform="matrix(-0.865698 -0.500566 -0.499434 0.866352 48.1562 65.688)" stroke="white" stroke-width="4" stroke-linecap="round"/>
</svg>
