<svg width="71" height="82" viewBox="0 0 71 82" fill="none" xmlns="http://www.w3.org/2000/svg">
<path d="M27.7188 46.7304C24.1748 46.7304 20.7064 45.5132 17.9531 43.3034C15.1724 41.0703 13.1918 37.9263 12.1912 34.1706C10.3953 33.6269 8.05469 31.8725 8.05469 27.7736C8.05469 24.5703 9.71936 23.4525 9.90878 23.3354L11.2496 25.599C11.2496 25.599 11.2709 25.5894 11.3047 25.5629C11.2779 25.5838 10.6476 26.0986 10.6476 27.7736C10.6476 31.4652 13.2397 31.7114 13.3497 31.7194C13.9164 31.7643 14.3888 32.1804 14.5145 32.7457C16.048 39.6342 21.2306 44.0852 27.7188 44.0852C32.646 44.0852 39.0603 41.1152 40.9214 32.7465C41.0495 32.1692 41.507 31.7506 42.0862 31.7194C42.0831 31.7194 42.7975 31.6392 43.4695 31.1244C44.3451 30.4549 44.7892 29.3275 44.7892 27.7736C44.7892 26.0986 44.1588 25.5838 44.1321 25.5629C44.1659 25.5894 44.1871 25.599 44.1871 25.599L45.5272 23.3354C45.7174 23.4525 47.3813 24.5703 47.3813 27.7736C47.3813 31.8725 45.0415 33.6269 43.2455 34.1698C42.2426 37.936 40.2534 41.0863 37.46 43.3194C34.7084 45.5189 31.2485 46.7304 27.7188 46.7304Z" fill="white"/>
<path d="M45.508 26.5428C45.3806 26.5428 45.2517 26.5235 45.1236 26.4834C44.4398 26.267 44.057 25.5253 44.2693 24.8285C44.2716 24.8213 44.7951 22.9306 44.7951 17.855C44.7951 15.3589 43.8857 12.6648 42.2336 10.2698C41.8225 9.67239 41.9632 8.84731 42.5488 8.42716C43.1343 8.007 43.9431 8.15133 44.3549 8.74869C46.3387 11.6256 47.3872 14.7752 47.3872 17.855C47.3872 23.3395 46.8111 25.3946 46.7459 25.6111C46.5737 26.1788 46.0613 26.5428 45.508 26.5428Z" fill="white"/>
<path d="M44.8576 25.7908C43.5293 25.7908 43.1191 24.4758 42.4392 22.298C41.3805 18.9071 39.6089 13.2326 34.9489 11.9713C34.0875 11.7372 32.8032 11.9473 31.4427 12.1702C30.3102 12.3554 29.0259 12.5655 27.7196 12.5655C26.4118 12.5655 25.1275 12.3554 23.9941 12.1702C22.6344 11.9473 21.3494 11.738 20.4887 11.9713C15.8287 13.2326 14.0572 18.9071 12.9985 22.298C12.3186 24.4758 11.9083 25.7908 10.58 25.7908C9.86403 25.7908 9.2832 25.199 9.2832 24.4686C9.2832 23.9931 9.52921 23.5761 9.89862 23.3428C10.0645 22.9796 10.3183 22.1665 10.5282 21.4954C11.6678 17.8439 13.7891 11.0476 19.8238 9.41428C21.2165 9.03582 22.7649 9.29 24.4044 9.55861C25.493 9.73662 26.6185 9.92024 27.7196 9.92024C28.82 9.92024 29.9447 9.73662 31.0325 9.55861C32.6728 9.29 34.2211 9.03662 35.6146 9.41428C41.6477 11.0476 43.7698 17.8439 44.9095 21.4954C45.1193 22.1665 45.3732 22.9796 45.539 23.3428C45.9077 23.5761 46.1545 23.9931 46.1545 24.4686C46.1545 25.199 45.5736 25.7908 44.8576 25.7908Z" fill="white"/>
<path d="M9.94022 26.5445C9.38611 26.5445 8.87131 26.1772 8.69839 25.6095C8.63237 25.393 8.05469 23.3428 8.05469 17.8543C8.05469 13.5469 10.1202 9.09912 13.7215 5.65207C17.5295 2.00697 22.5007 0 27.7188 0C32.0125 0 36.1247 1.34627 39.6112 3.89447C39.6144 3.89688 39.6183 3.90008 39.6222 3.90249C40.1873 4.29699 40.9191 4.35392 41.5392 4.05163C42.1656 3.74613 42.5837 3.11429 42.6309 2.40388C42.6788 1.67421 43.2958 1.12416 44.0111 1.17227C44.7255 1.22198 45.2655 1.85222 45.2175 2.58108C45.1075 4.24407 44.1266 5.72183 42.6568 6.43867C41.1847 7.1563 39.4414 7.00796 38.1077 6.04978C38.0951 6.04176 38.0833 6.03214 38.0715 6.02332C35.0345 3.81268 31.456 2.64442 27.7188 2.64442C17.9484 2.64442 10.6476 10.6747 10.6476 17.8543C10.6476 22.9306 11.1718 24.8157 11.1773 24.8342C11.3895 25.5318 11.0068 26.2678 10.323 26.4851C10.1957 26.5252 10.0668 26.5445 9.94022 26.5445Z" fill="white"/>
<path d="M43.614 54.0044C43.3845 54.0044 43.1518 53.9427 42.942 53.812L42.3045 53.4183C38.2498 50.915 34.0566 48.3267 34.0566 43.207C34.0566 42.4765 34.6375 41.8848 35.3535 41.8848C36.0695 41.8848 36.6495 42.4765 36.6495 43.207C36.6495 46.6605 39.3085 48.4766 43.647 51.1547C43.86 51.2862 44.0738 51.4185 44.2891 51.5516C44.9006 51.9317 45.0947 52.7456 44.723 53.3694C44.4793 53.7791 44.0517 54.0044 43.614 54.0044Z" fill="white"/>
<path d="M1.79606 82C1.08004 82 0.5 81.4082 0.5 80.6777V67.45C0.5 58.1279 6.76574 54.2599 11.7999 51.1521C16.1368 48.4747 18.795 46.6586 18.795 43.2059C18.795 42.4755 19.3758 41.8837 20.0918 41.8837C20.8079 41.8837 21.3879 42.4755 21.3879 43.2059C21.3879 48.3256 17.1963 50.9123 13.1423 53.4156C8.2017 56.465 3.09291 59.6193 3.09291 67.45V80.6777C3.09291 81.4082 2.51208 82 1.79606 82Z" fill="white"/>
<path d="M27.6797 57.7521C22.4664 57.7521 17.4142 55.5687 13.8122 51.7584C13.3154 51.2332 13.3304 50.3953 13.846 49.8886C14.3608 49.3818 15.1821 49.3971 15.6788 49.9223C18.7944 53.2186 23.1667 55.1068 27.6797 55.1068H27.7135C32.2588 55.0956 36.4998 53.2346 39.6547 49.8653C40.1491 49.3369 40.9696 49.3177 41.4876 49.822C42.0048 50.3264 42.0236 51.1635 41.5292 51.6919C37.935 55.531 32.9017 57.7392 27.719 57.7521H27.6797Z" fill="white"/>
<path d="M27.716 39.6872C26.0804 39.6872 24.4464 39.1556 23.0513 38.0915C22.4783 37.6545 22.3604 36.8255 22.7896 36.2401C23.2187 35.6556 24.0306 35.5353 24.6044 35.9731C26.4647 37.3924 28.9673 37.3924 30.8308 35.9723C31.4037 35.5353 32.2164 35.6556 32.6448 36.2409C33.0731 36.8263 32.956 37.6545 32.3823 38.0923C30.9864 39.1556 29.3508 39.6872 27.716 39.6872Z" fill="white"/>
<path d="M32.903 27.7731C32.5076 27.7731 32.1178 27.5895 31.8631 27.2415C31.4348 26.6561 31.5527 25.8271 32.1264 25.3901C33.7542 24.1504 35.9407 24.1504 37.5677 25.3909C38.1407 25.8279 38.2586 26.6569 37.8302 27.2423C37.4011 27.8268 36.5884 27.9479 36.0154 27.5101C35.3167 26.9777 34.3767 26.9777 33.6779 27.5109C33.4445 27.6881 33.1726 27.7731 32.903 27.7731Z" fill="white"/>
<path d="M22.5343 27.7731C22.2648 27.7731 21.9928 27.6881 21.7602 27.5109C21.0607 26.9777 20.1206 26.9777 19.4219 27.5101C18.8489 27.9479 18.0362 27.8268 17.6079 27.2423C17.1788 26.6569 17.2966 25.8279 17.8704 25.3909C19.4966 24.1504 21.6831 24.1504 23.3109 25.3901C23.8846 25.8271 24.0025 26.6561 23.5742 27.2415C23.3195 27.5895 22.9297 27.7731 22.5343 27.7731Z" fill="white"/>
<path d="M12.1652 81.9986C11.4492 81.9986 10.8691 81.4068 10.8691 80.6764V72.7407C10.8691 72.0102 11.4492 71.4185 12.1652 71.4185C12.8812 71.4185 13.4613 72.0102 13.4613 72.7407V80.6764C13.4613 81.4068 12.8812 81.9986 12.1652 81.9986Z" fill="white"/>
<path d="M46.1665 58.1916C42.7059 58.1916 41.9796 61.0854 41.9796 63.5133C41.9796 69.8389 48.4167 76.1188 54.9441 79.2235C61.4716 76.1188 67.9079 69.8389 67.9079 63.5133C67.9079 61.0854 67.1817 58.1916 63.721 58.1916C60.6715 58.1916 58.1658 59.9709 56.0626 63.6304C55.8299 64.0353 55.4039 64.2847 54.9441 64.2847C54.4844 64.2847 54.0584 64.0353 53.8257 63.6304C51.7225 59.9709 49.2168 58.1916 46.1665 58.1916ZM54.9441 81.9978C54.7657 81.9978 54.5881 81.9609 54.4215 81.8864C47.1804 78.6326 39.3867 71.4955 39.3867 63.5133C39.3867 58.5997 41.9843 55.5464 46.1665 55.5464C49.6043 55.5464 52.5493 57.2286 54.9441 60.5514C57.3382 57.2286 60.284 55.5464 63.721 55.5464C67.9032 55.5464 70.5008 58.5997 70.5008 63.5133C70.5008 71.4955 62.7079 78.6326 55.4668 81.8864C55.3002 81.9609 55.1218 81.9978 54.9441 81.9978Z" fill="white"/>
</svg>
