<svg width="84" height="84" viewBox="0 0 84 84" fill="none" xmlns="http://www.w3.org/2000/svg">
<path d="M63.1658 54.2391C62.995 54.1854 62.8147 54.1683 62.6368 54.189H34.0602C33.8824 54.1683 33.7021 54.1854 33.5313 54.2391C33.36 54.293 33.202 54.3826 33.0678 54.5019C32.9336 54.6213 32.8262 54.7677 32.7526 54.9316C32.6791 55.0954 32.641 55.273 32.641 55.4526C32.641 55.6322 32.6791 55.8097 32.7526 55.9736C32.8262 56.1374 32.9336 56.2838 33.0678 56.4032C33.202 56.5225 33.36 56.6121 33.5313 56.666C33.7021 56.7197 33.8824 56.7368 34.0602 56.7161H62.6368C62.8147 56.7368 62.995 56.7197 63.1658 56.666C63.3371 56.6121 63.4951 56.5225 63.6293 56.4032C63.7635 56.2838 63.8709 56.1374 63.9444 55.9736C64.018 55.8097 64.056 55.6322 64.056 55.4526C64.056 55.273 64.018 55.0954 63.9444 54.9316C63.8709 54.7677 63.7635 54.6213 63.6293 54.5019C63.4951 54.3826 63.3371 54.293 63.1658 54.2391Z" fill="white" stroke="white" stroke-width="0.05"/>
<path d="M55.003 62.3549H34.0596C33.7222 62.3549 33.3986 62.4889 33.1601 62.7275C32.9215 62.966 32.7875 63.2896 32.7875 63.6269C32.7875 63.9643 32.9215 64.2879 33.1601 64.5265C33.3986 64.765 33.7222 64.899 34.0596 64.899H55.003C55.3404 64.899 55.664 64.765 55.9025 64.5265C56.1411 64.2879 56.2751 63.9643 56.2751 63.6269C56.2751 63.2896 56.1411 62.966 55.9025 62.7275C55.664 62.4889 55.3404 62.3549 55.003 62.3549Z" fill="white" stroke="white" stroke-width="0.05"/>
<path d="M75.5598 81.7529V38.745L79.276 38.745C80.269 38.7405 81.2199 38.344 81.922 37.6419C82.624 36.9398 83.0205 35.9889 83.025 34.9959V17.3317C83.0205 16.3386 82.624 15.3876 81.922 14.6855C81.2199 13.9834 80.269 13.587 79.276 13.5825H75.5598V2.24705C75.5599 1.91267 75.4282 1.59176 75.1934 1.35369C74.9586 1.11563 74.6395 0.979583 74.3052 0.975002V0.975H74.3049H9.08283C8.74547 0.975 8.42189 1.10901 8.18333 1.34757C7.94478 1.58614 7.81077 1.90967 7.81077 2.24705V10.3402C5.90986 10.6381 4.17715 11.6041 2.92411 13.0649C1.66641 14.5312 0.975 16.3992 0.975 18.331C0.975 20.2628 1.66641 22.1308 2.92411 23.5971C4.17715 25.0579 5.90986 26.0239 7.81077 26.3218V34.0177C5.90986 34.3157 4.17715 35.2816 2.92411 36.7425C1.66641 38.2087 0.975 40.0767 0.975 42.0085C0.975 43.9403 1.66641 45.8083 2.92411 47.2746C4.17715 48.7354 5.90986 49.7014 7.81077 49.9993V57.6781C5.90986 57.976 4.17715 58.942 2.92411 60.4028C1.66641 61.8691 0.975 63.7371 0.975 65.6689C0.975 67.6007 1.66641 69.4687 2.92411 70.935C4.17715 72.3959 5.90986 73.3618 7.81077 73.6597V81.7529C7.81077 82.0903 7.94478 82.4138 8.18333 82.6524C8.42189 82.8909 8.74546 83.025 9.08283 83.025H74.3049H74.3052C74.6395 83.0204 74.9586 82.8844 75.1934 82.6463C75.4282 82.4082 75.5599 82.0873 75.5598 81.7529ZM4.80443 14.8741C5.58217 13.8973 6.66492 13.2099 7.87912 12.9215V23.7406C6.66628 23.4556 5.58394 22.7715 4.80602 21.7975C4.0216 20.8154 3.59297 19.5966 3.59008 18.3396C3.59216 17.0805 4.02015 15.8591 4.80443 14.8741ZM4.80602 38.542C5.58394 37.568 6.66628 36.8839 7.87912 36.5989V47.401C6.66628 47.116 5.58394 46.4319 4.80602 45.4579C4.02159 44.4758 3.59296 43.257 3.59008 42C3.59296 40.743 4.02159 39.5241 4.80602 38.542ZM7.87912 60.2337V60.2594C7.88744 60.2575 7.89578 60.2555 7.90412 60.2536V60.2279C7.89578 60.2298 7.88744 60.2318 7.87912 60.2337ZM7.90412 71.1527C7.89578 71.1507 7.88744 71.1488 7.87912 71.1469V71.1725C7.88744 71.1745 7.89578 71.1764 7.90412 71.1783V71.1527ZM14.7122 65.6775L14.7122 65.6777C14.7248 66.9463 14.3033 68.1811 13.5176 69.1772C12.7384 70.1651 11.6474 70.8593 10.4232 71.1469V49.9992C12.3221 49.694 14.0514 48.7247 15.3028 47.2636C16.5589 45.797 17.2515 43.931 17.2563 42.0001V42C17.2563 41.6626 17.1223 41.339 16.8837 41.1005C16.6452 40.8619 16.3216 40.7279 15.9842 40.7279C15.6469 40.7279 15.3233 40.8619 15.0848 41.1005C14.8462 41.339 14.7122 41.6626 14.7122 42C14.7094 43.2569 14.2807 44.4758 13.4963 45.4579C12.7184 46.4319 11.636 47.116 10.4232 47.401V26.3218C12.3207 26.0203 14.0496 25.0543 15.3013 23.5961C16.5577 22.1324 17.2509 20.2686 17.2563 18.3396V18.3396C17.2563 18.0022 17.1223 17.6786 16.8837 17.44C16.6452 17.2015 16.3216 17.0675 15.9842 17.0675C15.6469 17.0675 15.3233 17.2015 15.0848 17.44C14.8462 17.6786 14.7122 18.0022 14.7122 18.3395C14.7094 19.5965 14.2807 20.8154 13.4963 21.7975C12.7184 22.7715 11.636 23.4556 10.4232 23.7406V3.51915H21.1866V80.4979H10.4232V73.6597C12.3222 73.3615 14.0531 72.3965 15.3054 70.9375C16.5624 69.4731 17.2544 67.6074 17.2563 65.6775C17.2563 65.3401 17.1223 65.0166 16.8837 64.778C16.6452 64.5394 16.3216 64.4054 15.9842 64.4054C15.6469 64.4054 15.3233 64.5394 15.0848 64.778C14.8462 65.0166 14.7122 65.3401 14.7122 65.6775ZM73.0328 3.51915V80.4466H23.6623V3.51915H73.0328ZM80.4126 34.9446C80.4126 35.2658 80.2862 35.5741 80.0606 35.8028C79.8351 36.0315 79.5286 36.1622 79.2076 36.1666C79.2075 36.1666 79.2074 36.1666 79.2073 36.1666L75.4915 36.1666V16.1096H79.2075C79.5286 16.114 79.8351 16.2447 80.0606 16.4734C80.2862 16.7021 80.4126 17.0104 80.4126 17.3317V34.9446Z" fill="white" stroke="white" stroke-width="0.05"/>
<path d="M34.0316 31.3744L34.0316 31.3745C34.0362 35.169 35.5443 38.807 38.2258 41.4918C40.9072 44.1765 44.5434 45.6891 48.3378 45.6982C51.1714 45.7016 53.9424 44.8644 56.3001 43.2925C58.6578 41.7207 60.4963 39.4848 61.583 36.8678C62.6697 34.2507 62.9558 31.3702 62.4051 28.5905C61.8543 25.8108 60.4915 23.257 58.4891 21.2521C56.4866 19.2471 53.9345 17.8812 51.1556 17.3272C48.3767 16.7731 45.4958 17.0558 42.8776 18.1394C40.2594 19.223 38.0213 21.0589 36.4467 23.4148C34.8721 25.7707 34.0316 28.5407 34.0316 31.3744ZM38.5621 37.9206C37.267 35.9831 36.5757 33.705 36.5757 31.3745C36.5802 28.2546 37.8204 25.2636 40.0247 23.056C42.2291 20.8484 45.2182 19.6039 48.3379 19.5948C50.6683 19.5915 52.9473 20.2794 54.8867 21.5717C56.826 22.8641 58.3384 24.7026 59.2326 26.8547C60.1267 29.0068 60.3624 31.3759 59.9099 33.662C59.4573 35.9482 58.3368 38.0487 56.6901 39.6978C55.0434 41.3469 52.9446 42.4705 50.6592 42.9264C48.3738 43.3823 46.0045 43.15 43.8512 42.2589C41.6978 41.3679 39.8571 39.8581 38.5621 37.9206Z" fill="white" stroke="white" stroke-width="0.05"/>
<path d="M47.0857 30.1512H42.1396C41.8022 30.1512 41.4787 30.2852 41.2401 30.5237C41.0016 30.7623 40.8676 31.0859 40.8676 31.4233C40.8676 31.7606 41.0016 32.0842 41.2401 32.3227C41.4787 32.5613 41.8022 32.6953 42.1396 32.6953H42.1646V32.6703V32.6441H47.0857V37.5889C47.065 37.7668 47.0821 37.947 47.1358 38.1179C47.1897 38.2892 47.2793 38.4472 47.3986 38.5814C47.518 38.7156 47.6644 38.823 47.8282 38.8965C47.992 38.9701 48.1696 39.0081 48.3492 39.0081C48.5288 39.0081 48.7063 38.9701 48.8702 38.8965C49.034 38.823 49.1804 38.7156 49.2997 38.5814C49.4191 38.4472 49.5087 38.2892 49.5626 38.1179C49.6164 37.947 49.6334 37.7667 49.6127 37.5889V32.6441H54.5588C54.8962 32.6441 55.2197 32.51 55.4582 32.2715C55.6968 32.0329 55.8308 31.7094 55.8308 31.372C55.8308 31.0346 55.6968 30.711 55.4582 30.4725C55.2197 30.2339 54.8962 30.0999 54.5588 30.0999H49.6127V25.1722C49.6334 24.9943 49.6164 24.8141 49.5626 24.6432C49.5087 24.4719 49.4191 24.3139 49.2997 24.1797C49.1804 24.0455 49.034 23.9381 48.8702 23.8646C48.7063 23.791 48.5288 23.7529 48.3492 23.7529C48.1696 23.7529 47.992 23.791 47.8282 23.8646C47.6644 23.9381 47.518 24.0455 47.3986 24.1797C47.2793 24.3139 47.1897 24.4719 47.1358 24.6432C47.0821 24.8141 47.065 24.9943 47.0857 25.1722V30.1512Z" fill="white" stroke="white" stroke-width="0.05"/>
</svg>
